<svg xmlns="http://www.w3.org/2000/svg" xmlns:xlink="http://www.w3.org/1999/xlink" width="90" zoomAndPan="magnify" viewBox="0 0 67.5 30.000001" height="40" preserveAspectRatio="xMidYMid meet" version="1.0"><defs><g/><clipPath id="ddc9a4480d"><path d="M 0.847656 0 L 66.167969 0 L 66.167969 29.03125 L 0.847656 29.03125 Z M 0.847656 0 " clip-rule="nonzero"/></clipPath><clipPath id="bffaa99802"><path d="M 25 10 L 27 10 L 27 11.550781 L 25 11.550781 Z M 25 10 " clip-rule="nonzero"/></clipPath><clipPath id="6606f72e50"><path d="M 26 8 L 34 8 L 34 11.550781 L 26 11.550781 Z M 26 8 " clip-rule="nonzero"/></clipPath><clipPath id="4e2decbd4d"><path d="M 23.578125 4.242188 L 36.738281 4.242188 L 36.738281 10 L 23.578125 10 Z M 23.578125 4.242188 " clip-rule="nonzero"/></clipPath><clipPath id="ca790a01d7"><path d="M 34 5 L 36.738281 5 L 36.738281 9 L 34 9 Z M 34 5 " clip-rule="nonzero"/></clipPath><clipPath id="d1f4d02fd8"><path d="M 26 9 L 34 9 L 34 11.550781 L 26 11.550781 Z M 26 9 " clip-rule="nonzero"/></clipPath><clipPath id="7dbb3757d6"><path d="M 32 4.242188 L 33 4.242188 L 33 6 L 32 6 Z M 32 4.242188 " clip-rule="nonzero"/></clipPath><clipPath id="0baca0a9cc"><path d="M 32 4.242188 L 35 4.242188 L 35 6 L 32 6 Z M 32 4.242188 " clip-rule="nonzero"/></clipPath><clipPath id="1a1bc9709b"><path d="M 30 4.242188 L 33 4.242188 L 33 6 L 30 6 Z M 30 4.242188 " clip-rule="nonzero"/></clipPath><clipPath id="3b258210d4"><path d="M 30 4.242188 L 31 4.242188 L 31 6 L 30 6 Z M 30 4.242188 " clip-rule="nonzero"/></clipPath><clipPath id="7e9051cb86"><path d="M 26 4.242188 L 31 4.242188 L 31 7 L 26 7 Z M 26 4.242188 " clip-rule="nonzero"/></clipPath><clipPath id="26f8fdc513"><path d="M 26 10 L 27 10 L 27 11.550781 L 26 11.550781 Z M 26 10 " clip-rule="nonzero"/></clipPath><clipPath id="b386cb893b"><path d="M 25 10 L 27 10 L 27 11.550781 L 25 11.550781 Z M 25 10 " clip-rule="nonzero"/></clipPath><clipPath id="2dfe70df88"><path d="M 23.578125 6 L 27 6 L 27 10 L 23.578125 10 Z M 23.578125 6 " clip-rule="nonzero"/></clipPath></defs><g clip-path="url(#ddc9a4480d)"><path fill="#ffffff" d="M 0.847656 0 L 66.652344 0 L 66.652344 138.925781 L 0.847656 138.925781 Z M 0.847656 0 " fill-opacity="1" fill-rule="nonzero"/><path fill="#ffffff" d="M 0.847656 0 L 66.652344 0 L 66.652344 29.246094 L 0.847656 29.246094 Z M 0.847656 0 " fill-opacity="1" fill-rule="nonzero"/><path fill="#ffffff" d="M 0.847656 0 L 66.652344 0 L 66.652344 29.246094 L 0.847656 29.246094 Z M 0.847656 0 " fill-opacity="1" fill-rule="nonzero"/></g><g fill="#000000" fill-opacity="1"><g transform="translate(10.828359, 19.097873)"><g/></g></g><g fill="#000000" fill-opacity="1"><g transform="translate(12.074254, 19.097873)"><g><path d="M 4.519531 -8.617188 C 3.648438 -8.53125 2.8125 -8.214844 2.054688 -7.792969 C 1.367188 -7.410156 0.59375 -6.9375 0.25 -6.199219 C -0.117188 -5.414062 0.214844 -4.695312 0.734375 -4.074219 C 1.285156 -3.410156 2.003906 -2.90625 2.730469 -2.453125 C 2.890625 -2.355469 3.050781 -2.257812 3.214844 -2.160156 C 3.117188 -2.054688 3.023438 -1.945312 2.9375 -1.835938 C 2.710938 -1.554688 2.386719 -1.195312 2.328125 -0.828125 C 2.28125 -0.53125 2.472656 -0.292969 2.722656 -0.160156 C 3.28125 0.136719 4.226562 0.0390625 4.699219 -0.390625 C 5.363281 -1.003906 4.378906 -1.625 3.914062 -1.914062 C 3.796875 -1.988281 3.679688 -2.058594 3.5625 -2.132812 C 3.660156 -2.234375 3.753906 -2.335938 3.851562 -2.433594 C 4.1875 -2.773438 4.566406 -3.058594 4.929688 -3.371094 C 4.96875 -3.402344 4.882812 -3.4375 4.859375 -3.425781 C 4.285156 -3.160156 3.765625 -2.742188 3.324219 -2.277344 C 2.695312 -2.65625 2.070312 -3.03125 1.515625 -3.511719 C 0.847656 -4.085938 0.0546875 -4.949219 0.359375 -5.902344 C 0.636719 -6.761719 1.53125 -7.289062 2.277344 -7.695312 C 3.109375 -8.144531 4.03125 -8.46875 4.984375 -8.476562 C 5.492188 -8.476562 6.214844 -8.40625 6.386719 -7.828125 C 6.542969 -7.304688 6.070312 -6.726562 5.753906 -6.359375 C 5.039062 -5.539062 4.214844 -4.820312 3.433594 -4.066406 C 3.378906 -4.015625 3.511719 -3.945312 3.5625 -3.984375 C 4.332031 -4.601562 5.070312 -5.246094 5.738281 -5.964844 C 6.195312 -6.460938 6.96875 -7.289062 6.539062 -8.011719 C 6.144531 -8.671875 5.1875 -8.679688 4.519531 -8.617188 Z M 3.457031 -2.011719 C 3.621094 -1.910156 3.792969 -1.804688 3.957031 -1.699219 C 4.300781 -1.480469 4.960938 -1.066406 4.558594 -0.59375 C 4.246094 -0.222656 3.539062 -0.125 3.085938 -0.214844 C 2.851562 -0.261719 2.582031 -0.394531 2.582031 -0.671875 C 2.585938 -0.925781 2.789062 -1.167969 2.929688 -1.363281 C 3.09375 -1.589844 3.269531 -1.804688 3.457031 -2.011719 Z M 3.457031 -2.011719 "/></g></g></g><g fill="#000000" fill-opacity="1"><g transform="translate(17.491933, 19.097873)"><g><path d="M 0.234375 -3.253906 C 0.269531 -3.386719 0.304688 -3.523438 0.355469 -3.652344 C 0.359375 -3.664062 0.367188 -3.671875 0.371094 -3.683594 C 0.355469 -3.476562 0.359375 -3.273438 0.390625 -3.066406 C 0.429688 -2.816406 0.46875 -2.464844 0.679688 -2.300781 C 0.851562 -2.171875 1.054688 -2.222656 1.128906 -2.417969 C 1.191406 -2.578125 1.183594 -2.773438 1.222656 -2.9375 C 1.234375 -2.988281 1.246094 -3.039062 1.261719 -3.085938 C 1.289062 -2.921875 1.332031 -2.753906 1.375 -2.613281 C 1.445312 -2.363281 1.554688 -2.015625 1.84375 -1.960938 C 1.875 -1.957031 1.933594 -1.953125 1.957031 -1.984375 C 2.046875 -2.113281 2.035156 -2.257812 2.035156 -2.410156 C 2.039062 -2.621094 2.039062 -2.835938 2.058594 -3.046875 C 2.097656 -3.511719 2.246094 -3.894531 2.574219 -4.234375 C 2.59375 -4.257812 2.542969 -4.28125 2.523438 -4.273438 C 2.011719 -3.96875 1.921875 -3.300781 1.890625 -2.757812 C 1.882812 -2.632812 1.921875 -2.371094 1.859375 -2.265625 C 1.78125 -2.128906 1.761719 -2.285156 1.722656 -2.378906 C 1.691406 -2.453125 1.664062 -2.527344 1.640625 -2.609375 C 1.546875 -2.921875 1.570312 -3.269531 1.445312 -3.570312 C 1.421875 -3.621094 1.296875 -3.675781 1.273438 -3.605469 C 1.246094 -3.519531 1.238281 -3.425781 1.238281 -3.328125 C 1.21875 -3.175781 1.191406 -3.023438 1.140625 -2.875 C 1.113281 -2.789062 1.074219 -2.597656 1.019531 -2.527344 C 0.996094 -2.414062 0.917969 -2.417969 0.773438 -2.539062 C 0.765625 -2.578125 0.75 -2.613281 0.742188 -2.648438 C 0.609375 -3.097656 0.601562 -3.574219 0.695312 -4.03125 C 0.71875 -4.15625 0.492188 -4.253906 0.429688 -4.140625 C 0.386719 -4.058594 0.40625 -4.015625 0.386719 -3.921875 C 0.371094 -3.839844 0.324219 -3.757812 0.300781 -3.675781 C 0.261719 -3.535156 0.246094 -3.394531 0.222656 -3.253906 C 0.222656 -3.253906 0.234375 -3.25 0.234375 -3.253906 Z M 0.234375 -3.253906 "/></g></g></g><g fill="#000000" fill-opacity="1"><g transform="translate(19.782694, 19.097873)"><g><path d="M 0.0117188 -2.121094 C 0.265625 -1.992188 0.492188 -2.191406 0.640625 -2.382812 C 0.742188 -2.511719 0.832031 -2.648438 0.917969 -2.789062 C 0.992188 -2.914062 1.113281 -3.082031 1.164062 -3.234375 C 1.167969 -3.148438 1.171875 -3.0625 1.183594 -2.980469 C 1.199219 -2.832031 1.214844 -2.65625 1.300781 -2.527344 C 1.738281 -1.859375 2.210938 -3.203125 2.308594 -3.464844 C 2.3125 -3.480469 2.277344 -3.496094 2.269531 -3.480469 C 2.195312 -3.289062 2.105469 -3.125 1.992188 -2.957031 C 1.917969 -2.847656 1.695312 -2.492188 1.59375 -2.492188 C 1.496094 -2.492188 1.472656 -2.804688 1.46875 -2.875 C 1.457031 -3.015625 1.457031 -3.160156 1.441406 -3.300781 C 1.417969 -3.457031 1.324219 -3.597656 1.144531 -3.609375 C 1 -3.621094 0.851562 -3.277344 0.773438 -3.117188 C 0.671875 -2.921875 0.40625 -2.289062 0.167969 -2.363281 C 0.0976562 -2.386719 0.0429688 -2.46875 0.0351562 -2.589844 C 0.03125 -2.679688 0.0390625 -2.765625 0.0507812 -2.851562 C 0.078125 -3.035156 0.144531 -3.214844 0.214844 -3.386719 C 0.34375 -3.667969 0.492188 -3.972656 0.71875 -4.1875 C 0.851562 -4.308594 1.042969 -4.425781 1.234375 -4.410156 C 1.476562 -4.394531 1.539062 -4.1875 1.640625 -4.015625 C 1.667969 -3.976562 1.753906 -3.953125 1.78125 -4 C 1.78125 -4 1.851562 -4.308594 1.476562 -4.53125 C 1.25 -4.667969 0.957031 -4.632812 0.726562 -4.511719 C 0.449219 -4.371094 0.269531 -4.109375 0.125 -3.84375 C -0.0507812 -3.53125 -0.207031 -3.1875 -0.238281 -2.824219 C -0.261719 -2.578125 -0.238281 -2.246094 0.0117188 -2.121094 Z M 0.0117188 -2.121094 "/></g></g></g><g fill="#000000" fill-opacity="1"><g transform="translate(21.778514, 19.097873)"><g><path d="M 0.414062 -2.257812 C 0.65625 -2.363281 0.710938 -2.867188 0.78125 -3.085938 C 0.832031 -3.253906 0.894531 -3.417969 0.972656 -3.578125 C 1.019531 -3.671875 1.078125 -3.820312 1.160156 -3.886719 C 1.296875 -4.003906 1.304688 -3.9375 1.300781 -3.796875 C 1.285156 -3.328125 1.207031 -2.859375 1.246094 -2.382812 C 1.261719 -2.160156 1.265625 -1.683594 1.582031 -1.664062 C 1.84375 -1.648438 1.824219 -2.152344 1.851562 -2.332031 C 1.921875 -2.851562 2.144531 -3.246094 2.667969 -3.410156 C 2.703125 -3.421875 2.664062 -3.453125 2.640625 -3.449219 C 1.953125 -3.316406 1.789062 -2.628906 1.664062 -2.042969 C 1.652344 -1.988281 1.636719 -1.9375 1.621094 -1.882812 C 1.617188 -1.808594 1.609375 -1.808594 1.59375 -1.886719 C 1.542969 -1.96875 1.539062 -2.136719 1.53125 -2.230469 C 1.507812 -2.449219 1.507812 -2.671875 1.519531 -2.890625 C 1.53125 -3.109375 1.554688 -3.332031 1.566406 -3.550781 C 1.574219 -3.691406 1.609375 -3.859375 1.539062 -3.988281 C 1.464844 -4.140625 1.277344 -4.195312 1.167969 -4.054688 C 1.082031 -3.949219 1.011719 -3.789062 0.945312 -3.667969 C 0.871094 -3.523438 0.808594 -3.371094 0.75 -3.222656 C 0.691406 -3.066406 0.625 -2.914062 0.558594 -2.765625 C 0.523438 -2.683594 0.488281 -2.625 0.429688 -2.492188 C 0.394531 -2.433594 0.34375 -2.367188 0.289062 -2.394531 C 0.273438 -2.445312 0.261719 -2.496094 0.253906 -2.550781 C 0.183594 -2.976562 0.246094 -3.429688 0.386719 -3.835938 C 0.425781 -3.953125 0.164062 -4.058594 0.125 -3.941406 C -0.0195312 -3.527344 -0.105469 -3.042969 -0.0195312 -2.609375 C 0.015625 -2.417969 0.183594 -2.160156 0.414062 -2.257812 Z M 0.414062 -2.257812 "/></g></g></g><g fill="#000000" fill-opacity="1"><g transform="translate(23.996193, 19.097873)"><g/></g></g><g fill="#000000" fill-opacity="1"><g transform="translate(25.242909, 19.097873)"><g><path d="M 0.59375 -1.921875 C 0.890625 -2.011719 1.132812 -2.3125 1.316406 -2.546875 C 1.527344 -2.824219 1.71875 -3.128906 1.859375 -3.449219 C 1.875 -3.496094 1.78125 -3.535156 1.757812 -3.503906 C 1.507812 -3.15625 1.316406 -2.765625 1.019531 -2.457031 C 0.871094 -2.296875 0.617188 -2.023438 0.375 -2.042969 C 0.0117188 -2.066406 0.0078125 -2.535156 0.0429688 -2.792969 C 0.105469 -3.261719 0.308594 -3.71875 0.585938 -4.101562 C 0.65625 -4.191406 1.09375 -4.78125 1.183594 -4.375 C 1.226562 -4.175781 1.03125 -3.898438 0.949219 -3.730469 C 0.933594 -3.691406 1.011719 -3.664062 1.035156 -3.6875 C 1.207031 -3.847656 1.476562 -4.238281 1.371094 -4.492188 C 1.304688 -4.667969 1.066406 -4.730469 0.902344 -4.679688 C 0.609375 -4.59375 0.398438 -4.242188 0.246094 -4 C 0.0507812 -3.6875 -0.0820312 -3.34375 -0.152344 -2.980469 C -0.207031 -2.691406 -0.222656 -2.367188 -0.0234375 -2.125 C 0.125 -1.945312 0.363281 -1.851562 0.59375 -1.921875 Z M 0.59375 -1.921875 "/></g></g></g><g fill="#000000" fill-opacity="1"><g transform="translate(26.742805, 19.097873)"><g><path d="M 1.042969 -2.78125 C 1.050781 -2.800781 1.011719 -2.816406 1.003906 -2.796875 C 0.886719 -2.566406 0.78125 -2.359375 0.621094 -2.160156 C 0.585938 -2.117188 0.554688 -2.066406 0.515625 -2.027344 C 0.460938 -1.980469 0.3125 -1.882812 0.238281 -1.917969 C 0.144531 -1.96875 0.152344 -2.285156 0.152344 -2.371094 C 0.15625 -2.882812 0.277344 -3.375 0.402344 -3.867188 C 0.429688 -3.984375 0.191406 -4.085938 0.144531 -3.972656 C 0.0117188 -3.605469 -0.0585938 -3.210938 -0.101562 -2.824219 C -0.132812 -2.527344 -0.191406 -2.113281 0.0117188 -1.859375 C 0.476562 -1.285156 0.957031 -2.476562 1.042969 -2.78125 Z M 0.246094 -4.242188 C 0.289062 -4.242188 0.328125 -4.25 0.355469 -4.285156 C 0.375 -4.308594 0.390625 -4.335938 0.414062 -4.359375 C 0.457031 -4.410156 0.503906 -4.445312 0.507812 -4.515625 C 0.515625 -4.59375 0.398438 -4.628906 0.339844 -4.621094 C 0.230469 -4.605469 0.144531 -4.488281 0.0976562 -4.398438 C 0.0859375 -4.375 0.0976562 -4.339844 0.113281 -4.324219 C 0.140625 -4.273438 0.191406 -4.242188 0.246094 -4.242188 Z M 0.246094 -4.242188 "/></g></g></g><g fill="#000000" fill-opacity="1"><g transform="translate(27.770271, 19.097873)"><g><path d="M -0.917969 -5.753906 C -0.570312 -5.761719 -0.222656 -5.925781 0.105469 -6.023438 C 0.320312 -6.085938 0.527344 -6.148438 0.738281 -6.203125 C 0.632812 -5.476562 0.554688 -4.746094 0.5 -4.015625 C 0.433594 -3.105469 0.402344 -2.195312 0.46875 -1.285156 C 0.5 -0.859375 0.550781 -0.429688 0.632812 -0.0117188 C 0.726562 0.453125 0.878906 0.867188 1.082031 1.289062 C 1.097656 1.324219 1.191406 1.351562 1.175781 1.292969 C 0.964844 0.441406 0.796875 -0.441406 0.734375 -1.316406 C 0.679688 -2.199219 0.710938 -3.078125 0.773438 -3.957031 C 0.828125 -4.726562 0.90625 -5.503906 1.011719 -6.273438 C 1.066406 -6.289062 1.128906 -6.304688 1.1875 -6.320312 C 1.546875 -6.40625 1.914062 -6.488281 2.277344 -6.5625 C 2.605469 -6.628906 2.972656 -6.640625 3.277344 -6.785156 C 3.355469 -6.824219 3.238281 -6.894531 3.195312 -6.898438 C 2.84375 -6.925781 2.484375 -6.832031 2.136719 -6.761719 C 1.773438 -6.691406 1.40625 -6.605469 1.042969 -6.515625 C 1.183594 -7.515625 1.363281 -8.507812 1.601562 -9.476562 C 1.617188 -9.546875 1.46875 -9.609375 1.449219 -9.539062 C 1.21875 -8.644531 0.996094 -7.75 0.839844 -6.839844 C 0.816406 -6.710938 0.796875 -6.582031 0.773438 -6.449219 C 0.492188 -6.375 0.207031 -6.296875 -0.0742188 -6.210938 C -0.363281 -6.125 -0.773438 -6.058594 -1.003906 -5.851562 C -1.050781 -5.808594 -0.953125 -5.753906 -0.917969 -5.753906 Z M -0.917969 -5.753906 "/></g></g></g><g fill="#000000" fill-opacity="1"><g transform="translate(28.86038, 19.097873)"><g><path d="M 1.722656 1.257812 C 2.039062 0.816406 2.171875 0.285156 2.238281 -0.242188 C 2.324219 -0.878906 2.328125 -1.53125 2.261719 -2.167969 C 2.246094 -2.308594 2.230469 -2.453125 2.214844 -2.597656 C 2.519531 -2.925781 2.863281 -3.21875 3.25 -3.46875 C 3.265625 -3.476562 3.238281 -3.496094 3.230469 -3.488281 C 2.851562 -3.277344 2.503906 -3.011719 2.199219 -2.710938 C 2.136719 -3.101562 2.042969 -3.496094 1.851562 -3.835938 C 1.757812 -4.007812 1.601562 -4.195312 1.378906 -4.132812 C 1.164062 -4.070312 1.046875 -3.734375 0.957031 -3.558594 C 0.894531 -3.441406 0.832031 -3.320312 0.761719 -3.207031 C 0.6875 -3.085938 0.539062 -2.84375 0.390625 -2.804688 C -0.0234375 -2.691406 0.183594 -3.710938 0.226562 -3.851562 C 0.261719 -3.957031 0.0351562 -4.046875 -0.00390625 -3.945312 C -0.128906 -3.597656 -0.230469 -2.96875 0.0976562 -2.691406 C 0.425781 -2.414062 0.773438 -2.765625 0.957031 -3.03125 C 1.074219 -3.207031 1.160156 -3.398438 1.261719 -3.582031 C 1.308594 -3.667969 1.371094 -3.832031 1.453125 -3.898438 C 1.59375 -4.011719 1.671875 -3.71875 1.71875 -3.609375 C 1.863281 -3.257812 1.9375 -2.871094 1.984375 -2.488281 C 1.671875 -2.144531 1.40625 -1.757812 1.191406 -1.351562 C 0.949219 -0.890625 0.769531 -0.398438 0.648438 0.105469 C 0.550781 0.523438 0.34375 1.125 0.671875 1.484375 C 1.023438 1.867188 1.476562 1.605469 1.722656 1.257812 Z M 1.066406 1.488281 C 0.820312 1.519531 0.75 1.222656 0.734375 1.058594 C 0.710938 0.828125 0.738281 0.582031 0.773438 0.355469 C 0.84375 -0.128906 1 -0.609375 1.199219 -1.058594 C 1.410156 -1.527344 1.679688 -1.960938 2 -2.351562 C 2.011719 -2.222656 2.023438 -2.097656 2.035156 -1.96875 C 2.074219 -1.398438 2.058594 -0.824219 1.984375 -0.257812 C 1.910156 0.261719 1.765625 0.824219 1.414062 1.238281 C 1.328125 1.339844 1.207031 1.46875 1.066406 1.488281 Z M 1.066406 1.488281 "/></g></g></g><g fill="#000000" fill-opacity="1"><g transform="translate(31.819331, 19.097873)"><g/></g></g><g fill="#000000" fill-opacity="1"><g transform="translate(33.066046, 19.097873)"><g><path d="M 0.273438 1.03125 C 0.3125 1.117188 0.507812 1.164062 0.503906 1.058594 C 0.488281 0.8125 0.40625 0.570312 0.359375 0.328125 C 0.308594 0.0585938 0.269531 -0.207031 0.238281 -0.480469 C 0.214844 -0.71875 0.195312 -0.964844 0.183594 -1.207031 C 0.1875 -1.265625 0.191406 -1.324219 0.195312 -1.378906 C 0.253906 -2.207031 0.460938 -3.023438 0.8125 -3.773438 C 0.976562 -4.128906 1.140625 -4.511719 1.472656 -4.738281 C 1.933594 -5.046875 2.058594 -4.203125 1.734375 -3.570312 C 1.585938 -3.570312 1.476562 -3.535156 1.324219 -3.421875 C 1.195312 -3.324219 0.914062 -2.976562 1.167969 -2.867188 C 1.394531 -2.765625 1.648438 -3.105469 1.757812 -3.253906 C 1.8125 -3.332031 1.863281 -3.417969 1.910156 -3.503906 C 1.953125 -3.496094 1.996094 -3.488281 2.039062 -3.480469 C 2.0625 -3.472656 2.058594 -3.496094 2.042969 -3.503906 C 2.007812 -3.519531 1.96875 -3.535156 1.929688 -3.542969 C 2.042969 -3.773438 2.109375 -4.015625 2.128906 -4.269531 C 2.144531 -4.496094 2.152344 -4.875 1.871094 -4.953125 C 1.566406 -5.039062 1.253906 -4.6875 1.089844 -4.480469 C 0.59375 -3.835938 0.320312 -2.984375 0.171875 -2.1875 C 0.179688 -2.652344 0.210938 -3.113281 0.25 -3.578125 C 0.296875 -4.117188 0.390625 -4.660156 0.40625 -5.203125 C 0.40625 -5.269531 0.246094 -5.332031 0.222656 -5.257812 C 0.0859375 -4.761719 0.0390625 -4.234375 -0.015625 -3.726562 C -0.0742188 -3.191406 -0.105469 -2.648438 -0.109375 -2.105469 C -0.113281 -1.582031 -0.09375 -1.058594 -0.0351562 -0.539062 C 0.015625 -0.0351562 0.0625 0.570312 0.273438 1.03125 Z M 1.15625 -3.070312 C 1.175781 -3.125 1.203125 -3.179688 1.238281 -3.230469 C 1.285156 -3.296875 1.347656 -3.347656 1.417969 -3.394531 C 1.539062 -3.472656 1.617188 -3.511719 1.699219 -3.503906 C 1.425781 -3.140625 1.144531 -2.878906 1.15625 -3.070312 Z M 1.15625 -3.070312 "/></g></g></g><g fill="#000000" fill-opacity="1"><g transform="translate(35.085355, 19.097873)"><g><path d="M 1.042969 -2.78125 C 1.050781 -2.800781 1.011719 -2.816406 1.003906 -2.796875 C 0.886719 -2.566406 0.78125 -2.359375 0.621094 -2.160156 C 0.585938 -2.117188 0.554688 -2.066406 0.515625 -2.027344 C 0.460938 -1.980469 0.3125 -1.882812 0.238281 -1.917969 C 0.144531 -1.96875 0.152344 -2.285156 0.152344 -2.371094 C 0.15625 -2.882812 0.277344 -3.375 0.402344 -3.867188 C 0.429688 -3.984375 0.191406 -4.085938 0.144531 -3.972656 C 0.0117188 -3.605469 -0.0585938 -3.210938 -0.101562 -2.824219 C -0.132812 -2.527344 -0.191406 -2.113281 0.0117188 -1.859375 C 0.476562 -1.285156 0.957031 -2.476562 1.042969 -2.78125 Z M 0.246094 -4.242188 C 0.289062 -4.242188 0.328125 -4.25 0.355469 -4.285156 C 0.375 -4.308594 0.390625 -4.335938 0.414062 -4.359375 C 0.457031 -4.410156 0.503906 -4.445312 0.507812 -4.515625 C 0.515625 -4.59375 0.398438 -4.628906 0.339844 -4.621094 C 0.230469 -4.605469 0.144531 -4.488281 0.0976562 -4.398438 C 0.0859375 -4.375 0.0976562 -4.339844 0.113281 -4.324219 C 0.140625 -4.273438 0.191406 -4.242188 0.246094 -4.242188 Z M 0.246094 -4.242188 "/></g></g></g><g fill="#000000" fill-opacity="1"><g transform="translate(36.112821, 19.097873)"><g><path d="M 2.324219 -2.640625 C 2.34375 -2.65625 2.363281 -2.667969 2.378906 -2.679688 C 2.773438 -2.945312 3.261719 -3.226562 3.734375 -3.285156 C 3.820312 -3.296875 3.722656 -3.414062 3.644531 -3.386719 C 3.386719 -3.300781 3.125 -3.253906 2.875 -3.152344 C 2.660156 -3.0625 2.453125 -2.949219 2.257812 -2.828125 C 2.246094 -2.855469 2.230469 -2.882812 2.214844 -2.910156 C 2.011719 -3.28125 1.601562 -3.292969 1.230469 -3.234375 C 1.230469 -3.789062 1.527344 -4.289062 1.59375 -4.832031 C 1.617188 -5.042969 1.628906 -5.34375 1.484375 -5.519531 C 1.347656 -5.683594 1.128906 -5.675781 0.957031 -5.570312 C 0.488281 -5.269531 0.171875 -4.582031 0.0507812 -4.0625 C -0.0234375 -3.753906 -0.195312 -3.003906 0.238281 -2.882812 C 0.335938 -2.859375 0.3125 -2.960938 0.238281 -2.984375 C -0.0703125 -3.078125 0.296875 -4.09375 0.371094 -4.273438 C 0.527344 -4.667969 0.773438 -5.113281 1.121094 -5.375 C 1.371094 -5.574219 1.351562 -5.117188 1.339844 -4.960938 C 1.320312 -4.746094 1.257812 -4.539062 1.191406 -4.335938 C 1.074219 -3.945312 0.941406 -3.554688 1 -3.140625 C 1.011719 -3.066406 1.105469 -3.011719 1.175781 -3.03125 C 1.367188 -3.082031 1.59375 -3.140625 1.789062 -3.085938 C 1.957031 -3.03125 2.050781 -2.890625 2.109375 -2.726562 C 1.695312 -2.445312 1.332031 -2.097656 1.019531 -1.710938 C 0.679688 -1.300781 0.398438 -0.84375 0.152344 -0.375 C -0.105469 0.117188 -0.332031 0.652344 -0.359375 1.214844 C -0.375 1.578125 -0.3125 2.058594 0.0585938 2.230469 C 0.5 2.441406 0.902344 2.039062 1.160156 1.726562 C 1.816406 0.933594 2.117188 -0.0742188 2.292969 -1.070312 C 2.378906 -1.550781 2.472656 -2.144531 2.324219 -2.640625 Z M 2.046875 -0.894531 C 1.875 -0.09375 1.613281 0.714844 1.132812 1.386719 C 1.019531 1.546875 0.894531 1.703125 0.75 1.835938 C 0.535156 2.054688 0.144531 2.277344 -0.0429688 1.894531 C -0.234375 1.492188 -0.128906 0.957031 -0.00390625 0.554688 C 0.257812 -0.269531 0.75 -1.070312 1.308594 -1.722656 C 1.5625 -2.019531 1.847656 -2.285156 2.160156 -2.519531 C 2.171875 -2.453125 2.183594 -2.382812 2.1875 -2.320312 C 2.238281 -1.84375 2.144531 -1.359375 2.046875 -0.894531 Z M 2.046875 -0.894531 "/></g></g></g><g fill="#000000" fill-opacity="1"><g transform="translate(39.554643, 19.097873)"><g><path d="M 2.324219 -2.640625 C 2.34375 -2.65625 2.363281 -2.667969 2.378906 -2.679688 C 2.773438 -2.945312 3.261719 -3.226562 3.734375 -3.285156 C 3.820312 -3.296875 3.722656 -3.414062 3.644531 -3.386719 C 3.386719 -3.300781 3.125 -3.253906 2.875 -3.152344 C 2.660156 -3.0625 2.453125 -2.949219 2.257812 -2.828125 C 2.246094 -2.855469 2.230469 -2.882812 2.214844 -2.910156 C 2.011719 -3.28125 1.601562 -3.292969 1.230469 -3.234375 C 1.230469 -3.789062 1.527344 -4.289062 1.59375 -4.832031 C 1.617188 -5.042969 1.628906 -5.34375 1.484375 -5.519531 C 1.347656 -5.683594 1.128906 -5.675781 0.957031 -5.570312 C 0.488281 -5.269531 0.171875 -4.582031 0.0507812 -4.0625 C -0.0234375 -3.753906 -0.195312 -3.003906 0.238281 -2.882812 C 0.335938 -2.859375 0.3125 -2.960938 0.238281 -2.984375 C -0.0703125 -3.078125 0.296875 -4.09375 0.371094 -4.273438 C 0.527344 -4.667969 0.773438 -5.113281 1.121094 -5.375 C 1.371094 -5.574219 1.351562 -5.117188 1.339844 -4.960938 C 1.320312 -4.746094 1.257812 -4.539062 1.191406 -4.335938 C 1.074219 -3.945312 0.941406 -3.554688 1 -3.140625 C 1.011719 -3.066406 1.105469 -3.011719 1.175781 -3.03125 C 1.367188 -3.082031 1.59375 -3.140625 1.789062 -3.085938 C 1.957031 -3.03125 2.050781 -2.890625 2.109375 -2.726562 C 1.695312 -2.445312 1.332031 -2.097656 1.019531 -1.710938 C 0.679688 -1.300781 0.398438 -0.84375 0.152344 -0.375 C -0.105469 0.117188 -0.332031 0.652344 -0.359375 1.214844 C -0.375 1.578125 -0.3125 2.058594 0.0585938 2.230469 C 0.5 2.441406 0.902344 2.039062 1.160156 1.726562 C 1.816406 0.933594 2.117188 -0.0742188 2.292969 -1.070312 C 2.378906 -1.550781 2.472656 -2.144531 2.324219 -2.640625 Z M 2.046875 -0.894531 C 1.875 -0.09375 1.613281 0.714844 1.132812 1.386719 C 1.019531 1.546875 0.894531 1.703125 0.75 1.835938 C 0.535156 2.054688 0.144531 2.277344 -0.0429688 1.894531 C -0.234375 1.492188 -0.128906 0.957031 -0.00390625 0.554688 C 0.257812 -0.269531 0.75 -1.070312 1.308594 -1.722656 C 1.5625 -2.019531 1.847656 -2.285156 2.160156 -2.519531 C 2.171875 -2.453125 2.183594 -2.382812 2.1875 -2.320312 C 2.238281 -1.84375 2.144531 -1.359375 2.046875 -0.894531 Z M 2.046875 -0.894531 "/></g></g></g><g fill="#000000" fill-opacity="1"><g transform="translate(42.996465, 19.097873)"><g><path d="M 0.585938 -1.929688 C 0.898438 -1.964844 0.996094 -2.480469 1.097656 -2.71875 C 1.296875 -3.191406 1.535156 -3.316406 1.890625 -3.371094 C 1.929688 -3.378906 1.875 -3.421875 1.859375 -3.421875 C 1.453125 -3.417969 1.136719 -3.195312 0.953125 -2.839844 C 0.847656 -2.640625 0.785156 -2.308594 0.578125 -2.183594 C 0.3125 -2.019531 0.226562 -2.6875 0.222656 -2.855469 C 0.207031 -3.335938 0.335938 -3.960938 0.671875 -4.324219 C 0.710938 -4.363281 0.785156 -4.453125 0.84375 -4.464844 C 0.949219 -4.480469 0.945312 -4.40625 0.949219 -4.339844 C 0.964844 -4.234375 0.902344 -4.085938 0.863281 -3.992188 C 0.757812 -3.738281 0.554688 -3.621094 0.394531 -3.417969 C 0.347656 -3.363281 0.457031 -3.300781 0.507812 -3.316406 C 0.886719 -3.425781 1.585938 -4.363281 1.042969 -4.652344 C 0.808594 -4.78125 0.5625 -4.621094 0.40625 -4.445312 C 0.160156 -4.171875 0.0546875 -3.789062 -0.0117188 -3.433594 C -0.0742188 -3.066406 -0.0859375 -2.675781 0.0703125 -2.324219 C 0.160156 -2.121094 0.335938 -1.90625 0.585938 -1.929688 Z M 0.585938 -1.929688 "/></g></g></g><g fill="#000000" fill-opacity="1"><g transform="translate(44.545955, 19.097873)"><g><path d="M 0.277344 -2.195312 C 0.285156 -2.144531 0.367188 -2.089844 0.417969 -2.125 C 0.546875 -2.210938 0.539062 -2.402344 0.5625 -2.542969 C 0.617188 -2.855469 0.664062 -3.171875 0.746094 -3.480469 C 0.871094 -3.949219 1.085938 -4.425781 1.488281 -4.722656 C 1.496094 -4.730469 1.476562 -4.738281 1.46875 -4.734375 C 1.085938 -4.527344 0.828125 -4.179688 0.683594 -3.773438 C 0.59375 -3.519531 0.539062 -3.261719 0.492188 -2.996094 C 0.480469 -2.9375 0.46875 -2.875 0.460938 -2.816406 C 0.457031 -3 0.460938 -3.179688 0.46875 -3.363281 C 0.480469 -3.542969 0.496094 -3.730469 0.519531 -3.914062 C 0.546875 -4.121094 0.625 -4.351562 0.59375 -4.558594 C 0.582031 -4.617188 0.453125 -4.699219 0.40625 -4.632812 C 0.308594 -4.492188 0.296875 -4.320312 0.269531 -4.152344 C 0.234375 -3.941406 0.214844 -3.726562 0.199219 -3.511719 C 0.183594 -3.292969 0.175781 -3.078125 0.183594 -2.859375 C 0.183594 -2.625 0.234375 -2.425781 0.277344 -2.195312 Z M 0.277344 -2.195312 "/></g></g></g><g fill="#000000" fill-opacity="1"><g transform="translate(45.578643, 19.097873)"><g><path d="M 1.042969 -2.78125 C 1.050781 -2.800781 1.011719 -2.816406 1.003906 -2.796875 C 0.886719 -2.566406 0.78125 -2.359375 0.621094 -2.160156 C 0.585938 -2.117188 0.554688 -2.066406 0.515625 -2.027344 C 0.460938 -1.980469 0.3125 -1.882812 0.238281 -1.917969 C 0.144531 -1.96875 0.152344 -2.285156 0.152344 -2.371094 C 0.15625 -2.882812 0.277344 -3.375 0.402344 -3.867188 C 0.429688 -3.984375 0.191406 -4.085938 0.144531 -3.972656 C 0.0117188 -3.605469 -0.0585938 -3.210938 -0.101562 -2.824219 C -0.132812 -2.527344 -0.191406 -2.113281 0.0117188 -1.859375 C 0.476562 -1.285156 0.957031 -2.476562 1.042969 -2.78125 Z M 0.246094 -4.242188 C 0.289062 -4.242188 0.328125 -4.25 0.355469 -4.285156 C 0.375 -4.308594 0.390625 -4.335938 0.414062 -4.359375 C 0.457031 -4.410156 0.503906 -4.445312 0.507812 -4.515625 C 0.515625 -4.59375 0.398438 -4.628906 0.339844 -4.621094 C 0.230469 -4.605469 0.144531 -4.488281 0.0976562 -4.398438 C 0.0859375 -4.375 0.0976562 -4.339844 0.113281 -4.324219 C 0.140625 -4.273438 0.191406 -4.242188 0.246094 -4.242188 Z M 0.246094 -4.242188 "/></g></g></g><g fill="#000000" fill-opacity="1"><g transform="translate(46.606111, 19.097873)"><g><path d="M 0.0117188 -2.121094 C 0.265625 -1.992188 0.492188 -2.191406 0.640625 -2.382812 C 0.742188 -2.511719 0.832031 -2.648438 0.917969 -2.789062 C 0.992188 -2.914062 1.113281 -3.082031 1.164062 -3.234375 C 1.167969 -3.148438 1.171875 -3.0625 1.183594 -2.980469 C 1.199219 -2.832031 1.214844 -2.65625 1.300781 -2.527344 C 1.738281 -1.859375 2.210938 -3.203125 2.308594 -3.464844 C 2.3125 -3.480469 2.277344 -3.496094 2.269531 -3.480469 C 2.195312 -3.289062 2.105469 -3.125 1.992188 -2.957031 C 1.917969 -2.847656 1.695312 -2.492188 1.59375 -2.492188 C 1.496094 -2.492188 1.472656 -2.804688 1.46875 -2.875 C 1.457031 -3.015625 1.457031 -3.160156 1.441406 -3.300781 C 1.417969 -3.457031 1.324219 -3.597656 1.144531 -3.609375 C 1 -3.621094 0.851562 -3.277344 0.773438 -3.117188 C 0.671875 -2.921875 0.40625 -2.289062 0.167969 -2.363281 C 0.0976562 -2.386719 0.0429688 -2.46875 0.0351562 -2.589844 C 0.03125 -2.679688 0.0390625 -2.765625 0.0507812 -2.851562 C 0.078125 -3.035156 0.144531 -3.214844 0.214844 -3.386719 C 0.34375 -3.667969 0.492188 -3.972656 0.71875 -4.1875 C 0.851562 -4.308594 1.042969 -4.425781 1.234375 -4.410156 C 1.476562 -4.394531 1.539062 -4.1875 1.640625 -4.015625 C 1.667969 -3.976562 1.753906 -3.953125 1.78125 -4 C 1.78125 -4 1.851562 -4.308594 1.476562 -4.53125 C 1.25 -4.667969 0.957031 -4.632812 0.726562 -4.511719 C 0.449219 -4.371094 0.269531 -4.109375 0.125 -3.84375 C -0.0507812 -3.53125 -0.207031 -3.1875 -0.238281 -2.824219 C -0.261719 -2.578125 -0.238281 -2.246094 0.0117188 -2.121094 Z M 0.0117188 -2.121094 "/></g></g></g><g fill="#000000" fill-opacity="1"><g transform="translate(48.594977, 19.097873)"><g/></g></g><g clip-path="url(#bffaa99802)"><path fill="#ffffff" d="M 26.773438 10.527344 C 26.789062 10.640625 26.796875 10.746094 26.792969 10.839844 C 26.742188 10.890625 26.480469 11.117188 26.039062 11.09375 C 25.730469 11.078125 25.585938 10.945312 25.523438 10.855469 C 26.019531 10.839844 26.507812 10.648438 26.773438 10.527344 " fill-opacity="1" fill-rule="nonzero"/></g><path fill="#ffffff" d="M 26.664062 9.980469 C 26.6875 10.09375 26.714844 10.226562 26.742188 10.375 C 26.484375 10.496094 25.933594 10.722656 25.40625 10.707031 C 25.097656 10.695312 24.796875 10.601562 24.570312 10.351562 C 24.136719 9.871094 24.257812 9.523438 24.3125 9.417969 C 24.578125 9.5 25.007812 9.585938 25.425781 9.667969 C 25.929688 9.769531 26.558594 9.890625 26.660156 9.980469 C 26.660156 9.980469 26.660156 9.980469 26.664062 9.980469 " fill-opacity="1" fill-rule="nonzero"/><g clip-path="url(#6606f72e50)"><path fill="#ffffff" d="M 33.609375 10.734375 C 33.621094 10.839844 33.625 10.921875 33.625 10.992188 C 33.625 11.246094 33.539062 11.300781 33.113281 11.339844 C 32.46875 11.402344 30.265625 11.363281 28.972656 11.203125 C 27.953125 11.074219 27.1875 11.195312 26.894531 11.257812 C 26.917969 11.171875 26.941406 11.042969 26.945312 10.882812 C 26.945312 10.863281 26.945312 10.84375 26.945312 10.824219 C 26.945312 10.699219 26.933594 10.554688 26.902344 10.402344 C 26.863281 10.207031 26.828125 10.039062 26.800781 9.902344 C 26.761719 9.726562 26.734375 9.601562 26.71875 9.542969 C 26.789062 9.488281 26.984375 9.359375 27.339844 9.234375 C 27.796875 9.074219 28.519531 8.917969 29.601562 8.933594 C 29.703125 8.933594 29.8125 8.9375 29.921875 8.941406 C 30.316406 8.960938 30.675781 8.992188 31.007812 9.035156 C 31.371094 9.082031 31.699219 9.140625 31.988281 9.203125 C 32.5 9.316406 32.894531 9.441406 33.160156 9.539062 C 33.347656 9.609375 33.472656 9.664062 33.53125 9.691406 C 33.535156 9.769531 33.601562 10.613281 33.601562 10.613281 L 33.609375 10.734375 " fill-opacity="1" fill-rule="nonzero"/></g><g clip-path="url(#4e2decbd4d)"><path fill="#ffffff" d="M 35.921875 6.320312 C 36.378906 6.753906 36.5625 7.449219 36.351562 7.976562 C 36.179688 8.410156 35.785156 8.667969 35.230469 8.714844 C 35.597656 8.359375 35.957031 8.089844 35.9375 8.058594 C 35.914062 8.027344 35.421875 8.308594 35.003906 8.730469 C 34.988281 8.738281 34.976562 8.75 34.96875 8.765625 C 34.960938 8.773438 34.953125 8.78125 34.949219 8.789062 C 34.511719 9.25 33.804688 9.613281 33.214844 9.390625 C 33.203125 9.386719 33.195312 9.386719 33.183594 9.386719 C 32.980469 9.316406 32.714844 9.226562 32.382812 9.144531 C 32.617188 9.082031 32.835938 8.992188 32.824219 8.976562 C 32.808594 8.953125 32.421875 9.066406 32.375 9.074219 C 32.328125 9.078125 32.4375 8.960938 32.890625 8.808594 C 33.339844 8.660156 33.734375 8.648438 34.136719 8.488281 C 34.539062 8.324219 34.597656 8.078125 34.570312 8.078125 C 34.542969 8.078125 34.191406 8.320312 33.511719 8.535156 C 32.917969 8.722656 32.308594 8.902344 32.046875 9.0625 C 31.824219 9.011719 31.574219 8.964844 31.308594 8.925781 C 31.648438 8.734375 32.078125 8.460938 32.5625 8.058594 C 33.070312 7.632812 33.144531 7.464844 33.121094 7.460938 C 33.09375 7.453125 33.007812 7.574219 32.804688 7.734375 C 32.605469 7.890625 32.308594 8.105469 32.289062 8.121094 C 32.3125 8.09375 32.882812 7.386719 33.429688 7.03125 C 33.988281 6.664062 34.464844 6.578125 34.464844 6.628906 C 34.464844 6.675781 34.453125 6.757812 34.507812 6.757812 C 34.5625 6.757812 34.597656 6.539062 34.519531 6.515625 C 34.4375 6.488281 34.109375 6.53125 33.585938 6.804688 C 33.058594 7.078125 32.574219 7.574219 32.390625 7.835938 C 32.207031 8.097656 32.070312 8.277344 31.730469 8.535156 C 31.472656 8.734375 31.234375 8.847656 31.050781 8.890625 C 30.707031 8.84375 30.332031 8.808594 29.929688 8.792969 C 29.882812 8.792969 29.839844 8.789062 29.796875 8.789062 C 29.894531 8.695312 30.003906 8.539062 30.113281 8.292969 C 30.398438 7.660156 30.390625 7.175781 30.375 7.175781 C 30.359375 7.175781 30.222656 7.679688 29.992188 8.109375 C 29.761719 8.539062 29.609375 8.707031 29.5625 8.703125 C 29.511719 8.695312 29.632812 8.480469 29.605469 8.316406 C 29.601562 8.292969 29.46875 8.597656 29.496094 8.78125 C 29 8.78125 28.582031 8.8125 28.226562 8.867188 C 28.121094 8.734375 27.898438 8.417969 27.894531 8.039062 C 27.890625 7.539062 28.234375 7.1875 28.511719 7.152344 C 28.777344 7.121094 28.855469 7.335938 28.910156 7.300781 C 28.960938 7.261719 28.914062 6.972656 28.535156 7.003906 C 28.152344 7.035156 27.800781 7.378906 27.757812 8.007812 C 27.722656 8.476562 27.886719 8.78125 27.96875 8.910156 C 27.734375 8.953125 27.535156 9.007812 27.367188 9.0625 C 27.171875 8.96875 26.710938 8.773438 26.347656 8.621094 C 25.871094 8.421875 25.425781 8.164062 25.371094 8.195312 C 25.347656 8.210938 25.847656 8.550781 26.425781 8.835938 C 26.761719 9 27.007812 9.089844 27.15625 9.140625 C 26.765625 9.292969 26.601562 9.445312 26.585938 9.457031 C 26.566406 9.476562 26.558594 9.503906 26.5625 9.53125 C 26.5625 9.53125 26.585938 9.625 26.621094 9.792969 C 26.414062 9.714844 26.019531 9.632812 25.457031 9.519531 C 25.035156 9.4375 24.601562 9.351562 24.34375 9.269531 C 24.328125 9.265625 24.3125 9.257812 24.300781 9.253906 C 23.796875 9.078125 23.761719 8.757812 23.875 8.230469 C 23.992188 7.679688 24.179688 7.128906 25.078125 6.984375 L 25.546875 6.917969 C 26.027344 6.847656 26.40625 6.792969 26.648438 6.6875 C 26.4375 7.042969 26.136719 7.207031 26.152344 7.234375 C 26.175781 7.269531 26.707031 7.054688 26.921875 6.4375 C 26.925781 6.425781 26.925781 6.417969 26.929688 6.410156 L 26.976562 6.25 C 27.085938 5.859375 27.207031 5.421875 27.585938 5.082031 C 28.058594 4.664062 29.277344 4.242188 30.128906 5.082031 C 29.773438 5.554688 29.703125 6.15625 29.734375 6.164062 C 29.761719 6.167969 29.886719 5.5625 30.273438 5.121094 C 30.40625 4.96875 30.574219 4.832031 30.777344 4.753906 C 31.527344 4.460938 32.335938 4.75 32.675781 5.03125 C 32.140625 5.183594 31.765625 5.484375 31.785156 5.507812 C 31.800781 5.535156 32.25 5.25 32.828125 5.140625 C 32.980469 5.109375 33.144531 5.09375 33.308594 5.09375 C 34.058594 5.109375 34.402344 5.496094 34.457031 5.757812 C 34.136719 5.808594 33.917969 5.914062 33.925781 5.929688 C 33.933594 5.949219 34.171875 5.867188 34.511719 5.847656 C 34.523438 5.855469 34.535156 5.855469 34.546875 5.855469 C 34.554688 5.851562 34.566406 5.851562 34.574219 5.847656 C 34.972656 5.835938 35.488281 5.914062 35.921875 6.320312 " fill-opacity="1" fill-rule="nonzero"/></g><path fill="#000000" d="M 35.230469 8.714844 C 35.179688 8.765625 35.128906 8.816406 35.074219 8.871094 C 35.0625 8.871094 35.050781 8.871094 35.039062 8.871094 C 34.996094 8.871094 34.960938 8.835938 34.960938 8.796875 C 34.960938 8.785156 34.964844 8.773438 34.96875 8.765625 C 34.980469 8.753906 34.992188 8.742188 35.003906 8.730469 C 35.015625 8.722656 35.027344 8.722656 35.039062 8.722656 C 35.105469 8.722656 35.167969 8.71875 35.230469 8.714844 " fill-opacity="1" fill-rule="nonzero"/><path fill="#000000" d="M 35.003906 8.730469 C 35.421875 8.308594 35.914062 8.027344 35.9375 8.058594 C 35.957031 8.089844 35.597656 8.359375 35.230469 8.714844 C 35.167969 8.71875 35.105469 8.722656 35.039062 8.722656 C 35.027344 8.722656 35.015625 8.722656 35.003906 8.730469 " fill-opacity="1" fill-rule="nonzero"/><path fill="#000000" d="M 35.003906 8.730469 C 34.992188 8.742188 34.980469 8.753906 34.96875 8.765625 C 34.976562 8.75 34.988281 8.738281 35.003906 8.730469 " fill-opacity="1" fill-rule="nonzero"/><g clip-path="url(#ca790a01d7)"><path fill="#000000" d="M 35.921875 6.320312 C 35.488281 5.914062 34.972656 5.835938 34.574219 5.847656 C 34.597656 5.832031 34.617188 5.804688 34.613281 5.769531 C 34.609375 5.761719 34.609375 5.75 34.605469 5.738281 C 35.023438 5.703125 35.5625 5.777344 36.023438 6.210938 C 36.535156 6.691406 36.726562 7.4375 36.492188 8.03125 C 36.367188 8.34375 36.019531 8.863281 35.074219 8.871094 C 35.128906 8.816406 35.179688 8.765625 35.230469 8.714844 C 35.785156 8.667969 36.179688 8.410156 36.351562 7.976562 C 36.5625 7.449219 36.378906 6.753906 35.921875 6.320312 " fill-opacity="1" fill-rule="nonzero"/></g><path fill="#000000" d="M 34.613281 5.769531 C 34.617188 5.804688 34.597656 5.832031 34.574219 5.847656 C 34.550781 5.847656 34.53125 5.847656 34.511719 5.847656 C 34.484375 5.839844 34.464844 5.816406 34.464844 5.789062 C 34.460938 5.777344 34.460938 5.765625 34.457031 5.757812 C 34.503906 5.75 34.554688 5.742188 34.605469 5.738281 C 34.609375 5.75 34.609375 5.761719 34.613281 5.769531 " fill-opacity="1" fill-rule="nonzero"/><path fill="#000000" d="M 34.574219 5.847656 C 34.566406 5.851562 34.554688 5.851562 34.546875 5.855469 C 34.535156 5.855469 34.523438 5.855469 34.511719 5.847656 C 34.53125 5.847656 34.550781 5.847656 34.574219 5.847656 " fill-opacity="1" fill-rule="nonzero"/><path fill="#000000" d="M 34.464844 5.789062 C 34.464844 5.816406 34.484375 5.839844 34.511719 5.847656 C 34.171875 5.867188 33.933594 5.949219 33.925781 5.929688 C 33.917969 5.914062 34.136719 5.808594 34.457031 5.757812 C 34.460938 5.765625 34.460938 5.777344 34.464844 5.789062 " fill-opacity="1" fill-rule="nonzero"/><path fill="#000000" d="M 33.667969 9.609375 C 33.5 9.617188 33.328125 9.597656 33.160156 9.535156 C 33.121094 9.519531 33.101562 9.476562 33.117188 9.4375 C 33.128906 9.40625 33.15625 9.390625 33.183594 9.386719 C 33.476562 9.496094 33.632812 9.574219 33.636719 9.574219 C 33.652344 9.582031 33.664062 9.59375 33.667969 9.609375 " fill-opacity="1" fill-rule="nonzero"/><g clip-path="url(#d1f4d02fd8)"><path fill="#000000" d="M 33.160156 9.535156 C 33.328125 9.597656 33.5 9.617188 33.667969 9.609375 C 33.671875 9.617188 33.675781 9.625 33.675781 9.636719 L 33.75 10.605469 L 33.761719 10.722656 C 33.804688 11.253906 33.785156 11.425781 33.125 11.492188 C 32.476562 11.554688 30.257812 11.515625 28.953125 11.351562 C 27.699219 11.191406 26.816406 11.433594 26.808594 11.433594 C 26.78125 11.441406 26.75 11.433594 26.730469 11.410156 C 26.710938 11.390625 26.707031 11.359375 26.714844 11.335938 C 26.71875 11.332031 26.757812 11.222656 26.78125 11.042969 C 26.863281 10.984375 26.910156 10.9375 26.914062 10.933594 C 26.925781 10.917969 26.933594 10.898438 26.933594 10.882812 L 26.945312 10.882812 C 26.941406 11.042969 26.917969 11.171875 26.894531 11.257812 C 27.1875 11.195312 27.953125 11.074219 28.972656 11.203125 C 30.265625 11.363281 32.46875 11.402344 33.113281 11.339844 C 33.539062 11.300781 33.625 11.246094 33.625 10.992188 C 33.625 10.921875 33.621094 10.839844 33.609375 10.734375 L 33.601562 10.613281 C 33.601562 10.613281 33.535156 9.769531 33.53125 9.691406 C 33.472656 9.664062 33.347656 9.609375 33.160156 9.539062 L 33.160156 9.535156 " fill-opacity="1" fill-rule="nonzero"/></g><path fill="#000000" d="M 35.054688 8.890625 C 34.722656 9.242188 34.207031 9.582031 33.667969 9.609375 C 33.664062 9.59375 33.652344 9.582031 33.636719 9.574219 C 33.632812 9.574219 33.476562 9.496094 33.183594 9.386719 C 33.195312 9.386719 33.203125 9.386719 33.214844 9.390625 C 33.804688 9.613281 34.511719 9.25 34.949219 8.789062 C 34.953125 8.78125 34.960938 8.773438 34.96875 8.765625 C 34.964844 8.773438 34.960938 8.785156 34.960938 8.796875 C 34.960938 8.835938 34.996094 8.871094 35.039062 8.871094 C 35.050781 8.871094 35.0625 8.871094 35.074219 8.871094 C 35.070312 8.878906 35.0625 8.882812 35.054688 8.890625 " fill-opacity="1" fill-rule="nonzero"/><g clip-path="url(#7dbb3757d6)"><path fill="#000000" d="M 32.871094 5.011719 C 32.898438 5.042969 32.898438 5.089844 32.867188 5.121094 C 32.855469 5.128906 32.84375 5.132812 32.828125 5.136719 C 32.804688 5.140625 32.777344 5.132812 32.761719 5.113281 C 32.738281 5.085938 32.707031 5.058594 32.675781 5.03125 C 32.730469 5.015625 32.789062 5 32.851562 4.988281 C 32.859375 4.996094 32.863281 5.003906 32.871094 5.011719 " fill-opacity="1" fill-rule="nonzero"/></g><g clip-path="url(#0baca0a9cc)"><path fill="#000000" d="M 32.867188 5.121094 C 32.898438 5.089844 32.898438 5.042969 32.871094 5.011719 C 32.863281 5.003906 32.859375 4.996094 32.851562 4.988281 C 32.996094 4.960938 33.152344 4.941406 33.308594 4.945312 C 34.164062 4.960938 34.546875 5.417969 34.605469 5.738281 C 34.554688 5.742188 34.503906 5.75 34.457031 5.757812 C 34.402344 5.496094 34.058594 5.109375 33.308594 5.09375 C 33.144531 5.09375 32.980469 5.109375 32.828125 5.140625 L 32.828125 5.136719 C 32.84375 5.132812 32.855469 5.128906 32.867188 5.121094 " fill-opacity="1" fill-rule="nonzero"/></g><path fill="#000000" d="M 32.761719 5.113281 C 32.777344 5.132812 32.804688 5.140625 32.828125 5.136719 L 32.828125 5.140625 C 32.25 5.25 31.800781 5.535156 31.785156 5.507812 C 31.765625 5.484375 32.140625 5.183594 32.675781 5.03125 C 32.707031 5.058594 32.738281 5.085938 32.761719 5.113281 " fill-opacity="1" fill-rule="nonzero"/><path fill="#000000" d="M 32.046875 9.0625 C 32.164062 9.089844 32.277344 9.117188 32.382812 9.144531 C 32.316406 9.160156 32.246094 9.175781 32.183594 9.183594 C 32.082031 9.199219 32.023438 9.199219 31.992188 9.191406 C 31.929688 9.171875 31.957031 9.132812 31.957031 9.132812 C 31.980469 9.109375 32.011719 9.085938 32.046875 9.0625 " fill-opacity="1" fill-rule="nonzero"/><path fill="#000000" d="M 33.511719 8.535156 C 34.191406 8.320312 34.542969 8.078125 34.570312 8.078125 C 34.597656 8.078125 34.539062 8.324219 34.136719 8.488281 C 33.734375 8.648438 33.339844 8.660156 32.890625 8.808594 C 32.4375 8.960938 32.328125 9.078125 32.375 9.074219 C 32.421875 9.066406 32.808594 8.953125 32.824219 8.976562 C 32.835938 8.992188 32.617188 9.082031 32.382812 9.144531 C 32.277344 9.117188 32.164062 9.089844 32.046875 9.0625 C 32.308594 8.902344 32.917969 8.722656 33.511719 8.535156 " fill-opacity="1" fill-rule="nonzero"/><path fill="#000000" d="M 33.117188 9.4375 C 33.101562 9.476562 33.121094 9.519531 33.160156 9.535156 L 33.160156 9.539062 C 32.894531 9.441406 32.5 9.316406 31.988281 9.203125 L 31.992188 9.191406 C 32.023438 9.199219 32.082031 9.199219 32.183594 9.183594 C 32.246094 9.175781 32.316406 9.160156 32.382812 9.144531 C 32.714844 9.226562 32.980469 9.316406 33.183594 9.386719 C 33.15625 9.390625 33.128906 9.40625 33.117188 9.4375 " fill-opacity="1" fill-rule="nonzero"/><path fill="#000000" d="M 34.519531 6.515625 C 34.597656 6.539062 34.5625 6.757812 34.507812 6.757812 C 34.453125 6.757812 34.464844 6.675781 34.464844 6.628906 C 34.464844 6.578125 33.988281 6.664062 33.429688 7.03125 C 32.882812 7.386719 32.3125 8.09375 32.289062 8.121094 C 32.308594 8.105469 32.605469 7.890625 32.804688 7.734375 C 33.007812 7.574219 33.09375 7.453125 33.121094 7.460938 C 33.144531 7.464844 33.070312 7.632812 32.5625 8.058594 C 32.078125 8.460938 31.648438 8.734375 31.308594 8.925781 C 31.222656 8.914062 31.136719 8.898438 31.050781 8.890625 C 31.234375 8.847656 31.472656 8.734375 31.730469 8.535156 C 32.070312 8.277344 32.207031 8.097656 32.390625 7.835938 C 32.574219 7.574219 33.058594 7.078125 33.585938 6.804688 C 34.109375 6.53125 34.4375 6.488281 34.519531 6.515625 " fill-opacity="1" fill-rule="nonzero"/><path fill="#000000" d="M 31.308594 8.925781 C 31.289062 8.933594 31.273438 8.945312 31.253906 8.953125 C 31.140625 9.019531 31.0625 9.035156 31.011719 9.027344 C 30.902344 9.015625 30.902344 8.90625 30.902344 8.90625 C 30.945312 8.90625 30.996094 8.902344 31.050781 8.890625 C 31.136719 8.898438 31.222656 8.914062 31.308594 8.925781 " fill-opacity="1" fill-rule="nonzero"/><path fill="#000000" d="M 31.308594 8.925781 C 31.574219 8.964844 31.824219 9.011719 32.046875 9.0625 C 32.011719 9.085938 31.980469 9.109375 31.957031 9.132812 C 31.957031 9.132812 31.929688 9.171875 31.992188 9.191406 L 31.988281 9.203125 C 31.699219 9.140625 31.371094 9.082031 31.007812 9.035156 L 31.011719 9.027344 C 31.0625 9.035156 31.140625 9.019531 31.253906 8.953125 C 31.273438 8.945312 31.289062 8.933594 31.308594 8.925781 " fill-opacity="1" fill-rule="nonzero"/><path fill="#000000" d="M 30.902344 8.90625 C 30.902344 8.90625 30.902344 9.015625 31.011719 9.027344 L 31.007812 9.035156 C 30.675781 8.992188 30.316406 8.960938 29.921875 8.941406 C 29.8125 8.9375 29.703125 8.933594 29.601562 8.933594 L 29.601562 8.890625 C 29.652344 8.890625 29.71875 8.859375 29.796875 8.789062 C 29.839844 8.789062 29.882812 8.792969 29.929688 8.792969 C 30.332031 8.808594 30.707031 8.84375 31.050781 8.890625 C 30.996094 8.902344 30.945312 8.90625 30.902344 8.90625 " fill-opacity="1" fill-rule="nonzero"/><g clip-path="url(#1a1bc9709b)"><path fill="#000000" d="M 30.261719 5.109375 C 30.289062 5.082031 30.292969 5.03125 30.261719 5.003906 C 30.25 4.992188 30.238281 4.976562 30.222656 4.964844 C 30.355469 4.820312 30.519531 4.691406 30.722656 4.613281 C 31.5625 4.285156 32.496094 4.621094 32.851562 4.988281 C 32.789062 5 32.730469 5.015625 32.675781 5.03125 C 32.335938 4.75 31.527344 4.460938 30.777344 4.753906 C 30.574219 4.832031 30.40625 4.96875 30.273438 5.121094 L 30.261719 5.109375 " fill-opacity="1" fill-rule="nonzero"/></g><g clip-path="url(#3b258210d4)"><path fill="#000000" d="M 30.128906 5.082031 C 30.15625 5.042969 30.191406 5.003906 30.222656 4.964844 C 30.238281 4.976562 30.25 4.992188 30.261719 5.003906 C 30.292969 5.03125 30.289062 5.082031 30.261719 5.109375 C 30.230469 5.140625 30.183594 5.136719 30.15625 5.109375 C 30.144531 5.097656 30.136719 5.089844 30.128906 5.082031 " fill-opacity="1" fill-rule="nonzero"/></g><path fill="#000000" d="M 30.15625 5.109375 C 30.183594 5.136719 30.230469 5.140625 30.261719 5.109375 L 30.273438 5.121094 C 29.886719 5.5625 29.761719 6.167969 29.734375 6.164062 C 29.703125 6.15625 29.773438 5.554688 30.128906 5.082031 C 30.136719 5.089844 30.144531 5.097656 30.15625 5.109375 " fill-opacity="1" fill-rule="nonzero"/><path fill="#000000" d="M 29.796875 8.789062 C 29.71875 8.859375 29.652344 8.890625 29.601562 8.890625 C 29.546875 8.890625 29.507812 8.855469 29.496094 8.796875 C 29.496094 8.792969 29.496094 8.789062 29.496094 8.78125 C 29.59375 8.78125 29.691406 8.785156 29.796875 8.789062 " fill-opacity="1" fill-rule="nonzero"/><path fill="#000000" d="M 29.5625 8.703125 C 29.609375 8.707031 29.761719 8.539062 29.992188 8.109375 C 30.222656 7.679688 30.359375 7.175781 30.375 7.175781 C 30.390625 7.175781 30.398438 7.660156 30.113281 8.292969 C 30.003906 8.539062 29.894531 8.695312 29.796875 8.789062 C 29.691406 8.785156 29.59375 8.78125 29.496094 8.78125 C 29.46875 8.597656 29.601562 8.292969 29.605469 8.316406 C 29.632812 8.480469 29.511719 8.695312 29.5625 8.703125 " fill-opacity="1" fill-rule="nonzero"/><path fill="#000000" d="M 28.535156 7.003906 C 28.914062 6.972656 28.960938 7.261719 28.910156 7.300781 C 28.855469 7.335938 28.777344 7.121094 28.511719 7.152344 C 28.234375 7.1875 27.890625 7.539062 27.894531 8.039062 C 27.898438 8.417969 28.121094 8.734375 28.226562 8.867188 C 28.136719 8.878906 28.050781 8.894531 27.96875 8.910156 C 27.886719 8.78125 27.722656 8.476562 27.757812 8.007812 C 27.800781 7.378906 28.152344 7.035156 28.535156 7.003906 " fill-opacity="1" fill-rule="nonzero"/><path fill="#000000" d="M 28.285156 8.933594 L 28.019531 8.976562 C 28.019531 8.976562 28 8.953125 27.96875 8.910156 C 28.050781 8.894531 28.136719 8.878906 28.226562 8.867188 C 28.261719 8.910156 28.285156 8.933594 28.285156 8.933594 " fill-opacity="1" fill-rule="nonzero"/><path fill="#000000" d="M 27.367188 9.0625 C 27.429688 9.09375 27.464844 9.113281 27.460938 9.117188 C 27.449219 9.132812 27.324219 9.183594 27.324219 9.183594 C 27.324219 9.183594 27.265625 9.175781 27.15625 9.140625 C 27.21875 9.113281 27.289062 9.089844 27.367188 9.0625 " fill-opacity="1" fill-rule="nonzero"/><path fill="#000000" d="M 29.601562 8.933594 C 28.519531 8.917969 27.796875 9.074219 27.339844 9.234375 L 27.324219 9.183594 C 27.324219 9.183594 27.449219 9.132812 27.460938 9.117188 C 27.464844 9.113281 27.429688 9.09375 27.367188 9.0625 C 27.535156 9.007812 27.734375 8.953125 27.96875 8.910156 C 28 8.953125 28.019531 8.976562 28.019531 8.976562 L 28.285156 8.933594 C 28.285156 8.933594 28.261719 8.910156 28.226562 8.867188 C 28.582031 8.8125 29 8.78125 29.496094 8.78125 C 29.496094 8.789062 29.496094 8.792969 29.496094 8.796875 C 29.507812 8.855469 29.546875 8.890625 29.601562 8.890625 L 29.601562 8.933594 " fill-opacity="1" fill-rule="nonzero"/><path fill="#000000" d="M 27.367188 9.0625 C 27.289062 9.089844 27.21875 9.113281 27.15625 9.140625 C 27.007812 9.089844 26.761719 9 26.425781 8.835938 C 25.847656 8.550781 25.347656 8.210938 25.371094 8.195312 C 25.425781 8.164062 25.871094 8.421875 26.347656 8.621094 C 26.710938 8.773438 27.171875 8.96875 27.367188 9.0625 " fill-opacity="1" fill-rule="nonzero"/><g clip-path="url(#7e9051cb86)"><path fill="#000000" d="M 26.867188 6.339844 C 26.839844 6.328125 26.808594 6.339844 26.789062 6.359375 L 26.832031 6.207031 C 26.945312 5.800781 27.074219 5.339844 27.488281 4.972656 C 27.726562 4.757812 28.179688 4.507812 28.726562 4.453125 C 29.132812 4.414062 29.714844 4.46875 30.222656 4.964844 C 30.191406 5.003906 30.15625 5.042969 30.128906 5.082031 C 29.277344 4.242188 28.058594 4.664062 27.585938 5.082031 C 27.207031 5.421875 27.085938 5.859375 26.976562 6.25 L 26.929688 6.410156 C 26.925781 6.417969 26.925781 6.425781 26.921875 6.4375 L 26.914062 6.433594 C 26.929688 6.394531 26.90625 6.351562 26.867188 6.339844 " fill-opacity="1" fill-rule="nonzero"/></g><path fill="#000000" d="M 26.914062 6.433594 L 26.921875 6.4375 C 26.707031 7.054688 26.175781 7.269531 26.152344 7.234375 C 26.136719 7.207031 26.4375 7.042969 26.648438 6.6875 C 26.785156 6.625 26.878906 6.542969 26.914062 6.433594 " fill-opacity="1" fill-rule="nonzero"/><g clip-path="url(#26f8fdc513)"><path fill="#000000" d="M 26.792969 10.839844 C 26.800781 10.835938 26.800781 10.832031 26.804688 10.832031 C 26.832031 10.800781 26.878906 10.796875 26.910156 10.828125 C 26.925781 10.84375 26.933594 10.863281 26.933594 10.882812 C 26.933594 10.898438 26.925781 10.917969 26.914062 10.933594 C 26.910156 10.9375 26.863281 10.984375 26.78125 11.042969 C 26.789062 10.980469 26.792969 10.914062 26.792969 10.839844 " fill-opacity="1" fill-rule="nonzero"/></g><path fill="#000000" d="M 26.785156 6.367188 L 26.789062 6.359375 C 26.808594 6.339844 26.839844 6.328125 26.867188 6.339844 C 26.90625 6.351562 26.929688 6.394531 26.914062 6.433594 C 26.878906 6.542969 26.785156 6.625 26.648438 6.6875 C 26.703125 6.59375 26.75 6.488281 26.785156 6.367188 " fill-opacity="1" fill-rule="nonzero"/><path fill="#000000" d="M 26.796875 10.347656 C 26.832031 10.332031 26.878906 10.34375 26.898438 10.382812 C 26.898438 10.386719 26.902344 10.394531 26.902344 10.402344 C 26.910156 10.433594 26.894531 10.46875 26.863281 10.484375 C 26.835938 10.496094 26.808594 10.511719 26.773438 10.527344 C 26.769531 10.496094 26.761719 10.464844 26.753906 10.429688 C 26.75 10.410156 26.746094 10.390625 26.742188 10.375 C 26.761719 10.363281 26.78125 10.355469 26.796875 10.347656 " fill-opacity="1" fill-rule="nonzero"/><path fill="#000000" d="M 26.800781 9.902344 C 26.828125 10.039062 26.863281 10.207031 26.902344 10.402344 C 26.902344 10.394531 26.898438 10.386719 26.898438 10.382812 C 26.878906 10.34375 26.832031 10.332031 26.796875 10.347656 C 26.78125 10.355469 26.761719 10.363281 26.742188 10.375 C 26.714844 10.226562 26.6875 10.09375 26.664062 9.980469 C 26.695312 10.003906 26.738281 10 26.765625 9.96875 C 26.78125 9.953125 26.785156 9.929688 26.78125 9.90625 L 26.800781 9.902344 " fill-opacity="1" fill-rule="nonzero"/><path fill="#000000" d="M 26.910156 10.828125 C 26.878906 10.796875 26.832031 10.800781 26.804688 10.832031 C 26.800781 10.832031 26.800781 10.835938 26.792969 10.839844 C 26.796875 10.746094 26.789062 10.640625 26.773438 10.527344 C 26.808594 10.511719 26.835938 10.496094 26.863281 10.484375 C 26.894531 10.46875 26.910156 10.433594 26.902344 10.402344 C 26.933594 10.554688 26.945312 10.699219 26.945312 10.824219 C 26.945312 10.84375 26.945312 10.863281 26.945312 10.882812 L 26.933594 10.882812 C 26.933594 10.863281 26.925781 10.84375 26.910156 10.828125 " fill-opacity="1" fill-rule="nonzero"/><path fill="#000000" d="M 26.71875 9.542969 C 26.734375 9.601562 26.761719 9.726562 26.800781 9.902344 L 26.78125 9.90625 C 26.777344 9.890625 26.769531 9.875 26.757812 9.863281 C 26.730469 9.839844 26.683594 9.816406 26.621094 9.792969 C 26.585938 9.625 26.5625 9.53125 26.5625 9.53125 C 26.558594 9.503906 26.566406 9.476562 26.585938 9.457031 C 26.601562 9.445312 26.765625 9.292969 27.15625 9.140625 C 27.265625 9.175781 27.324219 9.183594 27.324219 9.183594 L 27.339844 9.234375 C 26.984375 9.359375 26.789062 9.488281 26.71875 9.542969 " fill-opacity="1" fill-rule="nonzero"/><g clip-path="url(#b386cb893b)"><path fill="#000000" d="M 26.792969 10.839844 C 26.792969 10.914062 26.789062 10.980469 26.78125 11.042969 C 26.640625 11.136719 26.386719 11.261719 26.03125 11.242188 C 25.558594 11.21875 25.394531 10.953125 25.351562 10.855469 C 25.40625 10.855469 25.464844 10.859375 25.523438 10.855469 C 25.585938 10.945312 25.730469 11.078125 26.039062 11.09375 C 26.480469 11.117188 26.742188 10.890625 26.792969 10.839844 " fill-opacity="1" fill-rule="nonzero"/></g><path fill="#000000" d="M 26.78125 9.90625 C 26.785156 9.929688 26.78125 9.953125 26.765625 9.96875 C 26.738281 10 26.695312 10.003906 26.664062 9.980469 C 26.648438 9.910156 26.632812 9.847656 26.621094 9.792969 C 26.683594 9.816406 26.730469 9.839844 26.757812 9.863281 C 26.769531 9.875 26.777344 9.890625 26.78125 9.90625 " fill-opacity="1" fill-rule="nonzero"/><path fill="#000000" d="M 25.40625 10.707031 C 25.933594 10.722656 26.484375 10.496094 26.742188 10.375 C 26.746094 10.390625 26.75 10.410156 26.753906 10.429688 C 26.761719 10.464844 26.769531 10.496094 26.773438 10.527344 C 26.507812 10.648438 26.019531 10.839844 25.523438 10.855469 C 25.492188 10.8125 25.480469 10.777344 25.480469 10.773438 C 25.46875 10.742188 25.441406 10.722656 25.40625 10.722656 L 25.40625 10.707031 " fill-opacity="1" fill-rule="nonzero"/><path fill="#000000" d="M 25.386719 10.722656 C 25.347656 10.734375 25.324219 10.777344 25.335938 10.816406 C 25.335938 10.820312 25.339844 10.832031 25.351562 10.855469 C 25.023438 10.835938 24.707031 10.722656 24.460938 10.453125 C 23.984375 9.929688 24.097656 9.523438 24.171875 9.367188 C 24.210938 9.382812 24.253906 9.398438 24.300781 9.414062 C 24.304688 9.414062 24.308594 9.414062 24.3125 9.417969 C 24.257812 9.523438 24.136719 9.871094 24.570312 10.351562 C 24.796875 10.601562 25.097656 10.695312 25.40625 10.707031 L 25.40625 10.722656 C 25.402344 10.722656 25.394531 10.722656 25.386719 10.722656 " fill-opacity="1" fill-rule="nonzero"/><path fill="#000000" d="M 25.335938 10.816406 C 25.324219 10.777344 25.347656 10.734375 25.386719 10.722656 C 25.394531 10.722656 25.402344 10.722656 25.40625 10.722656 C 25.441406 10.722656 25.46875 10.742188 25.480469 10.773438 C 25.480469 10.777344 25.492188 10.8125 25.523438 10.855469 C 25.464844 10.859375 25.40625 10.855469 25.351562 10.855469 C 25.339844 10.832031 25.335938 10.820312 25.335938 10.816406 " fill-opacity="1" fill-rule="nonzero"/><path fill="#000000" d="M 24.316406 9.28125 C 24.347656 9.304688 24.355469 9.351562 24.332031 9.386719 C 24.332031 9.386719 24.324219 9.398438 24.3125 9.417969 C 24.308594 9.414062 24.304688 9.414062 24.300781 9.414062 C 24.253906 9.398438 24.210938 9.382812 24.171875 9.367188 C 24.191406 9.324219 24.207031 9.300781 24.210938 9.296875 C 24.230469 9.269531 24.265625 9.261719 24.292969 9.269531 C 24.300781 9.273438 24.308594 9.277344 24.316406 9.28125 " fill-opacity="1" fill-rule="nonzero"/><path fill="#000000" d="M 24.34375 9.269531 C 24.601562 9.351562 25.035156 9.4375 25.457031 9.519531 C 26.019531 9.632812 26.414062 9.714844 26.621094 9.792969 C 26.632812 9.847656 26.648438 9.910156 26.664062 9.980469 C 26.660156 9.980469 26.660156 9.980469 26.660156 9.980469 C 26.558594 9.890625 25.929688 9.769531 25.425781 9.667969 C 25.007812 9.585938 24.578125 9.5 24.3125 9.417969 C 24.324219 9.398438 24.332031 9.386719 24.332031 9.386719 C 24.355469 9.351562 24.347656 9.304688 24.316406 9.28125 C 24.308594 9.277344 24.300781 9.273438 24.292969 9.269531 L 24.300781 9.253906 C 24.3125 9.257812 24.328125 9.265625 24.34375 9.269531 " fill-opacity="1" fill-rule="nonzero"/><g clip-path="url(#2dfe70df88)"><path fill="#000000" d="M 23.875 8.230469 C 23.761719 8.757812 23.796875 9.078125 24.300781 9.253906 L 24.292969 9.269531 C 24.265625 9.261719 24.230469 9.269531 24.210938 9.296875 C 24.207031 9.300781 24.191406 9.324219 24.171875 9.367188 C 23.585938 9.121094 23.632812 8.640625 23.726562 8.199219 C 23.851562 7.621094 24.0625 6.992188 25.054688 6.835938 L 25.523438 6.769531 C 26.183594 6.671875 26.703125 6.597656 26.773438 6.386719 C 26.777344 6.375 26.78125 6.367188 26.789062 6.359375 L 26.785156 6.367188 C 26.75 6.488281 26.703125 6.59375 26.648438 6.6875 C 26.40625 6.792969 26.027344 6.847656 25.546875 6.917969 L 25.078125 6.984375 C 24.179688 7.128906 23.992188 7.679688 23.875 8.230469 " fill-opacity="1" fill-rule="nonzero"/></g></svg>