<svg xmlns="http://www.w3.org/2000/svg" xmlns:xlink="http://www.w3.org/1999/xlink" width="1080" zoomAndPan="magnify" viewBox="0 0 810 1439.999935" height="1920" preserveAspectRatio="xMidYMid meet" version="1.0"><defs><clipPath id="a098c3802b"><path d="M 216.824219 531.824219 L 593.324219 531.824219 L 593.324219 908.324219 L 216.824219 908.324219 Z M 216.824219 531.824219 " clip-rule="nonzero"/></clipPath><clipPath id="793a30b0cd"><path d="M 593.324219 720.074219 C 593.324219 723.15625 593.25 726.234375 593.097656 729.3125 C 592.945312 732.386719 592.71875 735.460938 592.417969 738.527344 C 592.117188 741.59375 591.738281 744.648438 591.285156 747.695312 C 590.835938 750.742188 590.308594 753.777344 589.707031 756.800781 C 589.105469 759.820312 588.429688 762.828125 587.683594 765.816406 C 586.933594 768.804688 586.113281 771.773438 585.21875 774.71875 C 584.324219 777.667969 583.359375 780.59375 582.320312 783.492188 C 581.28125 786.394531 580.171875 789.269531 578.996094 792.113281 C 577.816406 794.960938 576.566406 797.777344 575.25 800.5625 C 573.933594 803.347656 572.546875 806.097656 571.097656 808.816406 C 569.644531 811.53125 568.125 814.210938 566.542969 816.855469 C 564.957031 819.496094 563.308594 822.097656 561.597656 824.660156 C 559.886719 827.222656 558.113281 829.738281 556.277344 832.214844 C 554.441406 834.6875 552.546875 837.117188 550.59375 839.5 C 548.640625 841.878906 546.628906 844.210938 544.558594 846.496094 C 542.488281 848.777344 540.367188 851.007812 538.1875 853.1875 C 536.007812 855.367188 533.777344 857.488281 531.496094 859.558594 C 529.210938 861.628906 526.878906 863.640625 524.5 865.59375 C 522.117188 867.546875 519.6875 869.441406 517.214844 871.277344 C 514.742188 873.113281 512.222656 874.886719 509.660156 876.597656 C 507.097656 878.308594 504.496094 879.957031 501.855469 881.542969 C 499.210938 883.125 496.53125 884.644531 493.816406 886.097656 C 491.097656 887.546875 488.347656 888.933594 485.5625 890.25 C 482.777344 891.566406 479.960938 892.816406 477.113281 893.996094 C 474.269531 895.171875 471.394531 896.28125 468.492188 897.320312 C 465.59375 898.359375 462.667969 899.324219 459.71875 900.21875 C 456.773438 901.113281 453.804688 901.933594 450.816406 902.683594 C 447.828125 903.429688 444.820312 904.105469 441.800781 904.707031 C 438.777344 905.308594 435.742188 905.835938 432.695312 906.285156 C 429.648438 906.738281 426.59375 907.117188 423.527344 907.417969 C 420.460938 907.71875 417.386719 907.945312 414.3125 908.097656 C 411.234375 908.25 408.15625 908.324219 405.074219 908.324219 C 401.992188 908.324219 398.914062 908.25 395.835938 908.097656 C 392.761719 907.945312 389.6875 907.71875 386.621094 907.417969 C 383.558594 907.117188 380.5 906.738281 377.453125 906.285156 C 374.40625 905.835938 371.371094 905.308594 368.347656 904.707031 C 365.328125 904.105469 362.320312 903.429688 359.332031 902.683594 C 356.34375 901.933594 353.375 901.113281 350.429688 900.21875 C 347.480469 899.324219 344.554688 898.359375 341.65625 897.320312 C 338.753906 896.28125 335.878906 895.171875 333.035156 893.996094 C 330.1875 892.816406 327.371094 891.566406 324.585938 890.25 C 321.800781 888.933594 319.050781 887.546875 316.335938 886.097656 C 313.617188 884.644531 310.9375 883.125 308.292969 881.542969 C 305.652344 879.957031 303.050781 878.308594 300.488281 876.597656 C 297.925781 874.886719 295.410156 873.113281 292.933594 871.277344 C 290.460938 869.441406 288.03125 867.546875 285.648438 865.59375 C 283.269531 863.640625 280.9375 861.628906 278.652344 859.558594 C 276.371094 857.488281 274.140625 855.367188 271.960938 853.1875 C 269.78125 851.007812 267.660156 848.777344 265.589844 846.496094 C 263.519531 844.210938 261.507812 841.878906 259.554688 839.5 C 257.601562 837.117188 255.707031 834.6875 253.871094 832.214844 C 252.035156 829.738281 250.261719 827.222656 248.550781 824.660156 C 246.839844 822.097656 245.191406 819.496094 243.605469 816.855469 C 242.023438 814.210938 240.503906 811.53125 239.054688 808.816406 C 237.601562 806.097656 236.214844 803.347656 234.898438 800.5625 C 233.582031 797.777344 232.332031 794.960938 231.152344 792.113281 C 229.976562 789.269531 228.867188 786.394531 227.828125 783.492188 C 226.789062 780.59375 225.824219 777.667969 224.929688 774.71875 C 224.035156 771.773438 223.214844 768.804688 222.464844 765.816406 C 221.71875 762.828125 221.042969 759.820312 220.441406 756.800781 C 219.839844 753.777344 219.3125 750.742188 218.863281 747.695312 C 218.410156 744.648438 218.03125 741.59375 217.730469 738.527344 C 217.429688 735.460938 217.203125 732.386719 217.050781 729.3125 C 216.898438 726.234375 216.824219 723.15625 216.824219 720.074219 C 216.824219 716.992188 216.898438 713.914062 217.050781 710.835938 C 217.203125 707.761719 217.429688 704.6875 217.730469 701.621094 C 218.03125 698.554688 218.410156 695.5 218.863281 692.453125 C 219.3125 689.40625 219.839844 686.371094 220.441406 683.347656 C 221.042969 680.328125 221.71875 677.320312 222.464844 674.332031 C 223.214844 671.34375 224.035156 668.375 224.929688 665.429688 C 225.824219 662.480469 226.789062 659.554688 227.828125 656.65625 C 228.867188 653.753906 229.976562 650.878906 231.152344 648.035156 C 232.332031 645.1875 233.582031 642.371094 234.898438 639.585938 C 236.214844 636.800781 237.601562 634.050781 239.054688 631.332031 C 240.503906 628.617188 242.023438 625.9375 243.605469 623.292969 C 245.191406 620.652344 246.839844 618.050781 248.550781 615.488281 C 250.261719 612.925781 252.035156 610.410156 253.871094 607.933594 C 255.707031 605.460938 257.601562 603.03125 259.554688 600.648438 C 261.507812 598.269531 263.519531 595.9375 265.589844 593.652344 C 267.660156 591.371094 269.78125 589.140625 271.960938 586.960938 C 274.140625 584.78125 276.371094 582.660156 278.652344 580.589844 C 280.9375 578.519531 283.269531 576.507812 285.648438 574.554688 C 288.03125 572.601562 290.460938 570.707031 292.933594 568.871094 C 295.410156 567.035156 297.925781 565.261719 300.488281 563.550781 C 303.050781 561.839844 305.652344 560.191406 308.292969 558.605469 C 310.9375 557.023438 313.617188 555.503906 316.335938 554.050781 C 319.050781 552.601562 321.800781 551.214844 324.585938 549.898438 C 327.371094 548.582031 330.1875 547.332031 333.035156 546.152344 C 335.878906 544.976562 338.753906 543.867188 341.65625 542.828125 C 344.554688 541.789062 347.480469 540.824219 350.429688 539.929688 C 353.375 539.035156 356.34375 538.214844 359.332031 537.464844 C 362.320312 536.71875 365.328125 536.042969 368.347656 535.441406 C 371.371094 534.839844 374.40625 534.3125 377.453125 533.863281 C 380.5 533.410156 383.558594 533.03125 386.621094 532.730469 C 389.6875 532.429688 392.761719 532.203125 395.835938 532.050781 C 398.914062 531.898438 401.992188 531.824219 405.074219 531.824219 C 408.15625 531.824219 411.234375 531.898438 414.3125 532.050781 C 417.386719 532.203125 420.460938 532.429688 423.527344 532.730469 C 426.59375 533.03125 429.648438 533.410156 432.695312 533.863281 C 435.742188 534.3125 438.777344 534.839844 441.800781 535.441406 C 444.820312 536.042969 447.828125 536.71875 450.816406 537.464844 C 453.804688 538.214844 456.773438 539.035156 459.71875 539.929688 C 462.667969 540.824219 465.59375 541.789062 468.492188 542.828125 C 471.394531 543.867188 474.269531 544.976562 477.113281 546.152344 C 479.960938 547.332031 482.777344 548.582031 485.5625 549.898438 C 488.347656 551.214844 491.097656 552.601562 493.816406 554.050781 C 496.53125 555.503906 499.210938 557.023438 501.855469 558.605469 C 504.496094 560.191406 507.097656 561.839844 509.660156 563.550781 C 512.222656 565.261719 514.742188 567.035156 517.214844 568.871094 C 519.6875 570.707031 522.117188 572.601562 524.5 574.554688 C 526.878906 576.507812 529.210938 578.519531 531.496094 580.589844 C 533.777344 582.660156 536.007812 584.78125 538.1875 586.960938 C 540.367188 589.140625 542.488281 591.371094 544.558594 593.652344 C 546.628906 595.9375 548.640625 598.269531 550.59375 600.648438 C 552.546875 603.03125 554.441406 605.460938 556.277344 607.933594 C 558.113281 610.410156 559.886719 612.925781 561.597656 615.488281 C 563.308594 618.050781 564.957031 620.652344 566.542969 623.292969 C 568.125 625.9375 569.644531 628.617188 571.097656 631.332031 C 572.546875 634.050781 573.933594 636.800781 575.25 639.585938 C 576.566406 642.371094 577.816406 645.1875 578.996094 648.035156 C 580.171875 650.878906 581.28125 653.753906 582.320312 656.65625 C 583.359375 659.554688 584.324219 662.480469 585.21875 665.429688 C 586.113281 668.375 586.933594 671.34375 587.683594 674.332031 C 588.429688 677.320312 589.105469 680.328125 589.707031 683.347656 C 590.308594 686.371094 590.835938 689.40625 591.285156 692.453125 C 591.738281 695.5 592.117188 698.554688 592.417969 701.621094 C 592.71875 704.6875 592.945312 707.761719 593.097656 710.835938 C 593.25 713.914062 593.324219 716.992188 593.324219 720.074219 Z M 593.324219 720.074219 " clip-rule="nonzero"/></clipPath><linearGradient x1="1770.92586" gradientTransform="matrix(0.00000000000000018, 2.934528, -2.934528, 0.00000000000000018, 1123.546598, -4665.007589)" y1="244.834" x2="1899.225837" gradientUnits="userSpaceOnUse" y2="244.834" id="6f04d28835"><stop stop-opacity="1" stop-color="rgb(22.698975%, 60.798645%, 86.299133%)" offset="0"/><stop stop-opacity="1" stop-color="rgb(22.644043%, 60.571289%, 86.383057%)" offset="0.00390625"/><stop stop-opacity="1" stop-color="rgb(22.589111%, 60.345459%, 86.468506%)" offset="0.0078125"/><stop stop-opacity="1" stop-color="rgb(22.532654%, 60.118103%, 86.552429%)" offset="0.0117188"/><stop stop-opacity="1" stop-color="rgb(22.477722%, 59.890747%, 86.636353%)" offset="0.015625"/><stop stop-opacity="1" stop-color="rgb(22.421265%, 59.663391%, 86.720276%)" offset="0.0195312"/><stop stop-opacity="1" stop-color="rgb(22.366333%, 59.437561%, 86.804199%)" offset="0.0234375"/><stop stop-opacity="1" stop-color="rgb(22.311401%, 59.210205%, 86.888123%)" offset="0.0273438"/><stop stop-opacity="1" stop-color="rgb(22.25647%, 58.982849%, 86.973572%)" offset="0.03125"/><stop stop-opacity="1" stop-color="rgb(22.200012%, 58.755493%, 87.057495%)" offset="0.0351562"/><stop stop-opacity="1" stop-color="rgb(22.145081%, 58.529663%, 87.141418%)" offset="0.0390625"/><stop stop-opacity="1" stop-color="rgb(22.090149%, 58.302307%, 87.225342%)" offset="0.0429688"/><stop stop-opacity="1" stop-color="rgb(22.035217%, 58.074951%, 87.310791%)" offset="0.046875"/><stop stop-opacity="1" stop-color="rgb(21.97876%, 57.847595%, 87.394714%)" offset="0.0507812"/><stop stop-opacity="1" stop-color="rgb(21.923828%, 57.621765%, 87.478638%)" offset="0.0546875"/><stop stop-opacity="1" stop-color="rgb(21.868896%, 57.394409%, 87.562561%)" offset="0.0585937"/><stop stop-opacity="1" stop-color="rgb(21.813965%, 57.167053%, 87.64801%)" offset="0.0625"/><stop stop-opacity="1" stop-color="rgb(21.757507%, 56.939697%, 87.731934%)" offset="0.0664062"/><stop stop-opacity="1" stop-color="rgb(21.702576%, 56.713867%, 87.815857%)" offset="0.0703125"/><stop stop-opacity="1" stop-color="rgb(21.647644%, 56.486511%, 87.89978%)" offset="0.0742188"/><stop stop-opacity="1" stop-color="rgb(21.592712%, 56.259155%, 87.985229%)" offset="0.078125"/><stop stop-opacity="1" stop-color="rgb(21.536255%, 56.031799%, 88.069153%)" offset="0.0820313"/><stop stop-opacity="1" stop-color="rgb(21.481323%, 55.805969%, 88.153076%)" offset="0.0859375"/><stop stop-opacity="1" stop-color="rgb(21.424866%, 55.578613%, 88.237%)" offset="0.0898437"/><stop stop-opacity="1" stop-color="rgb(21.369934%, 55.351257%, 88.322449%)" offset="0.09375"/><stop stop-opacity="1" stop-color="rgb(21.315002%, 55.123901%, 88.406372%)" offset="0.0976562"/><stop stop-opacity="1" stop-color="rgb(21.260071%, 54.898071%, 88.490295%)" offset="0.101562"/><stop stop-opacity="1" stop-color="rgb(21.203613%, 54.670715%, 88.574219%)" offset="0.105469"/><stop stop-opacity="1" stop-color="rgb(21.148682%, 54.443359%, 88.659668%)" offset="0.109375"/><stop stop-opacity="1" stop-color="rgb(21.09375%, 54.216003%, 88.743591%)" offset="0.113281"/><stop stop-opacity="1" stop-color="rgb(21.038818%, 53.990173%, 88.827515%)" offset="0.117187"/><stop stop-opacity="1" stop-color="rgb(20.982361%, 53.762817%, 88.911438%)" offset="0.121094"/><stop stop-opacity="1" stop-color="rgb(20.927429%, 53.535461%, 88.995361%)" offset="0.125"/><stop stop-opacity="1" stop-color="rgb(20.872498%, 53.308105%, 89.079285%)" offset="0.128906"/><stop stop-opacity="1" stop-color="rgb(20.817566%, 53.082275%, 89.164734%)" offset="0.132812"/><stop stop-opacity="1" stop-color="rgb(20.761108%, 52.854919%, 89.248657%)" offset="0.136719"/><stop stop-opacity="1" stop-color="rgb(20.706177%, 52.627563%, 89.332581%)" offset="0.140625"/><stop stop-opacity="1" stop-color="rgb(20.649719%, 52.400208%, 89.416504%)" offset="0.144531"/><stop stop-opacity="1" stop-color="rgb(20.594788%, 52.172852%, 89.501953%)" offset="0.148438"/><stop stop-opacity="1" stop-color="rgb(20.539856%, 51.945496%, 89.585876%)" offset="0.152344"/><stop stop-opacity="1" stop-color="rgb(20.484924%, 51.719666%, 89.6698%)" offset="0.15625"/><stop stop-opacity="1" stop-color="rgb(20.428467%, 51.49231%, 89.753723%)" offset="0.160156"/><stop stop-opacity="1" stop-color="rgb(20.373535%, 51.264954%, 89.839172%)" offset="0.164062"/><stop stop-opacity="1" stop-color="rgb(20.318604%, 51.037598%, 89.923096%)" offset="0.167969"/><stop stop-opacity="1" stop-color="rgb(20.263672%, 50.811768%, 90.007019%)" offset="0.171875"/><stop stop-opacity="1" stop-color="rgb(20.207214%, 50.584412%, 90.090942%)" offset="0.175781"/><stop stop-opacity="1" stop-color="rgb(20.152283%, 50.357056%, 90.176392%)" offset="0.179688"/><stop stop-opacity="1" stop-color="rgb(20.097351%, 50.1297%, 90.260315%)" offset="0.183594"/><stop stop-opacity="1" stop-color="rgb(20.042419%, 49.90387%, 90.344238%)" offset="0.1875"/><stop stop-opacity="1" stop-color="rgb(19.985962%, 49.676514%, 90.428162%)" offset="0.191406"/><stop stop-opacity="1" stop-color="rgb(19.93103%, 49.449158%, 90.513611%)" offset="0.195313"/><stop stop-opacity="1" stop-color="rgb(19.874573%, 49.221802%, 90.597534%)" offset="0.199219"/><stop stop-opacity="1" stop-color="rgb(19.819641%, 48.995972%, 90.681458%)" offset="0.203125"/><stop stop-opacity="1" stop-color="rgb(19.764709%, 48.768616%, 90.765381%)" offset="0.207031"/><stop stop-opacity="1" stop-color="rgb(19.709778%, 48.54126%, 90.85083%)" offset="0.210937"/><stop stop-opacity="1" stop-color="rgb(19.65332%, 48.313904%, 90.934753%)" offset="0.214844"/><stop stop-opacity="1" stop-color="rgb(19.598389%, 48.088074%, 91.018677%)" offset="0.21875"/><stop stop-opacity="1" stop-color="rgb(19.543457%, 47.860718%, 91.1026%)" offset="0.222656"/><stop stop-opacity="1" stop-color="rgb(19.488525%, 47.633362%, 91.186523%)" offset="0.226562"/><stop stop-opacity="1" stop-color="rgb(19.432068%, 47.406006%, 91.270447%)" offset="0.230469"/><stop stop-opacity="1" stop-color="rgb(19.377136%, 47.180176%, 91.355896%)" offset="0.234375"/><stop stop-opacity="1" stop-color="rgb(19.322205%, 46.95282%, 91.439819%)" offset="0.238281"/><stop stop-opacity="1" stop-color="rgb(19.267273%, 46.725464%, 91.523743%)" offset="0.242188"/><stop stop-opacity="1" stop-color="rgb(19.210815%, 46.498108%, 91.607666%)" offset="0.246094"/><stop stop-opacity="1" stop-color="rgb(19.155884%, 46.272278%, 91.693115%)" offset="0.25"/><stop stop-opacity="1" stop-color="rgb(19.099426%, 46.044922%, 91.777039%)" offset="0.253906"/><stop stop-opacity="1" stop-color="rgb(19.044495%, 45.817566%, 91.860962%)" offset="0.257812"/><stop stop-opacity="1" stop-color="rgb(18.989563%, 45.59021%, 91.944885%)" offset="0.261719"/><stop stop-opacity="1" stop-color="rgb(18.934631%, 45.36438%, 92.030334%)" offset="0.265625"/><stop stop-opacity="1" stop-color="rgb(18.878174%, 45.137024%, 92.114258%)" offset="0.269531"/><stop stop-opacity="1" stop-color="rgb(18.823242%, 44.909668%, 92.198181%)" offset="0.273438"/><stop stop-opacity="1" stop-color="rgb(18.768311%, 44.682312%, 92.282104%)" offset="0.277344"/><stop stop-opacity="1" stop-color="rgb(18.713379%, 44.456482%, 92.367554%)" offset="0.28125"/><stop stop-opacity="1" stop-color="rgb(18.656921%, 44.229126%, 92.451477%)" offset="0.285156"/><stop stop-opacity="1" stop-color="rgb(18.60199%, 44.00177%, 92.5354%)" offset="0.289063"/><stop stop-opacity="1" stop-color="rgb(18.547058%, 43.774414%, 92.619324%)" offset="0.292969"/><stop stop-opacity="1" stop-color="rgb(18.492126%, 43.548584%, 92.704773%)" offset="0.296875"/><stop stop-opacity="1" stop-color="rgb(18.435669%, 43.321228%, 92.788696%)" offset="0.300781"/><stop stop-opacity="1" stop-color="rgb(18.380737%, 43.093872%, 92.87262%)" offset="0.304688"/><stop stop-opacity="1" stop-color="rgb(18.325806%, 42.866516%, 92.956543%)" offset="0.308594"/><stop stop-opacity="1" stop-color="rgb(18.270874%, 42.63916%, 93.041992%)" offset="0.3125"/><stop stop-opacity="1" stop-color="rgb(18.214417%, 42.411804%, 93.125916%)" offset="0.316406"/><stop stop-opacity="1" stop-color="rgb(18.159485%, 42.185974%, 93.209839%)" offset="0.320312"/><stop stop-opacity="1" stop-color="rgb(18.103027%, 41.958618%, 93.293762%)" offset="0.324219"/><stop stop-opacity="1" stop-color="rgb(18.048096%, 41.731262%, 93.377686%)" offset="0.328125"/><stop stop-opacity="1" stop-color="rgb(17.993164%, 41.503906%, 93.461609%)" offset="0.332031"/><stop stop-opacity="1" stop-color="rgb(17.938232%, 41.278076%, 93.547058%)" offset="0.335938"/><stop stop-opacity="1" stop-color="rgb(17.881775%, 41.05072%, 93.630981%)" offset="0.339844"/><stop stop-opacity="1" stop-color="rgb(17.826843%, 40.823364%, 93.714905%)" offset="0.34375"/><stop stop-opacity="1" stop-color="rgb(17.771912%, 40.596008%, 93.798828%)" offset="0.347656"/><stop stop-opacity="1" stop-color="rgb(17.71698%, 40.370178%, 93.884277%)" offset="0.351562"/><stop stop-opacity="1" stop-color="rgb(17.660522%, 40.142822%, 93.968201%)" offset="0.355469"/><stop stop-opacity="1" stop-color="rgb(17.605591%, 39.915466%, 94.052124%)" offset="0.359375"/><stop stop-opacity="1" stop-color="rgb(17.550659%, 39.68811%, 94.136047%)" offset="0.363281"/><stop stop-opacity="1" stop-color="rgb(17.495728%, 39.46228%, 94.221497%)" offset="0.367188"/><stop stop-opacity="1" stop-color="rgb(17.43927%, 39.234924%, 94.30542%)" offset="0.371094"/><stop stop-opacity="1" stop-color="rgb(17.384338%, 39.007568%, 94.389343%)" offset="0.375"/><stop stop-opacity="1" stop-color="rgb(17.327881%, 38.780212%, 94.473267%)" offset="0.378906"/><stop stop-opacity="1" stop-color="rgb(17.272949%, 38.554382%, 94.558716%)" offset="0.382813"/><stop stop-opacity="1" stop-color="rgb(17.218018%, 38.327026%, 94.642639%)" offset="0.386719"/><stop stop-opacity="1" stop-color="rgb(17.163086%, 38.09967%, 94.726562%)" offset="0.390625"/><stop stop-opacity="1" stop-color="rgb(17.106628%, 37.872314%, 94.810486%)" offset="0.394531"/><stop stop-opacity="1" stop-color="rgb(17.051697%, 37.646484%, 94.895935%)" offset="0.398438"/><stop stop-opacity="1" stop-color="rgb(16.996765%, 37.419128%, 94.979858%)" offset="0.402344"/><stop stop-opacity="1" stop-color="rgb(16.941833%, 37.191772%, 95.063782%)" offset="0.40625"/><stop stop-opacity="1" stop-color="rgb(16.885376%, 36.964417%, 95.147705%)" offset="0.410156"/><stop stop-opacity="1" stop-color="rgb(16.830444%, 36.738586%, 95.233154%)" offset="0.414063"/><stop stop-opacity="1" stop-color="rgb(16.775513%, 36.51123%, 95.317078%)" offset="0.417969"/><stop stop-opacity="1" stop-color="rgb(16.720581%, 36.283875%, 95.401001%)" offset="0.421875"/><stop stop-opacity="1" stop-color="rgb(16.664124%, 36.056519%, 95.484924%)" offset="0.425781"/><stop stop-opacity="1" stop-color="rgb(16.609192%, 35.830688%, 95.570374%)" offset="0.429688"/><stop stop-opacity="1" stop-color="rgb(16.552734%, 35.603333%, 95.654297%)" offset="0.433594"/><stop stop-opacity="1" stop-color="rgb(16.497803%, 35.375977%, 95.73822%)" offset="0.4375"/><stop stop-opacity="1" stop-color="rgb(16.442871%, 35.148621%, 95.822144%)" offset="0.441406"/><stop stop-opacity="1" stop-color="rgb(16.387939%, 34.922791%, 95.906067%)" offset="0.445313"/><stop stop-opacity="1" stop-color="rgb(16.331482%, 34.695435%, 95.98999%)" offset="0.449219"/><stop stop-opacity="1" stop-color="rgb(16.27655%, 34.468079%, 96.075439%)" offset="0.453125"/><stop stop-opacity="1" stop-color="rgb(16.221619%, 34.240723%, 96.159363%)" offset="0.457031"/><stop stop-opacity="1" stop-color="rgb(16.166687%, 34.013367%, 96.243286%)" offset="0.460938"/><stop stop-opacity="1" stop-color="rgb(16.110229%, 33.786011%, 96.327209%)" offset="0.464844"/><stop stop-opacity="1" stop-color="rgb(16.055298%, 33.560181%, 96.412659%)" offset="0.46875"/><stop stop-opacity="1" stop-color="rgb(16.000366%, 33.332825%, 96.496582%)" offset="0.472656"/><stop stop-opacity="1" stop-color="rgb(15.945435%, 33.105469%, 96.580505%)" offset="0.476563"/><stop stop-opacity="1" stop-color="rgb(15.888977%, 32.878113%, 96.664429%)" offset="0.480469"/><stop stop-opacity="1" stop-color="rgb(15.834045%, 32.652283%, 96.749878%)" offset="0.484375"/><stop stop-opacity="1" stop-color="rgb(15.777588%, 32.424927%, 96.833801%)" offset="0.488281"/><stop stop-opacity="1" stop-color="rgb(15.722656%, 32.197571%, 96.917725%)" offset="0.492188"/><stop stop-opacity="1" stop-color="rgb(15.667725%, 31.970215%, 97.001648%)" offset="0.496094"/><stop stop-opacity="1" stop-color="rgb(15.612793%, 31.744385%, 97.087097%)" offset="0.5"/><stop stop-opacity="1" stop-color="rgb(15.556335%, 31.517029%, 97.171021%)" offset="0.503906"/><stop stop-opacity="1" stop-color="rgb(15.501404%, 31.289673%, 97.254944%)" offset="0.507812"/><stop stop-opacity="1" stop-color="rgb(15.446472%, 31.062317%, 97.338867%)" offset="0.511719"/><stop stop-opacity="1" stop-color="rgb(15.391541%, 30.836487%, 97.424316%)" offset="0.515625"/><stop stop-opacity="1" stop-color="rgb(15.335083%, 30.609131%, 97.50824%)" offset="0.519531"/><stop stop-opacity="1" stop-color="rgb(15.280151%, 30.381775%, 97.592163%)" offset="0.523438"/><stop stop-opacity="1" stop-color="rgb(15.22522%, 30.154419%, 97.676086%)" offset="0.527344"/><stop stop-opacity="1" stop-color="rgb(15.170288%, 29.928589%, 97.761536%)" offset="0.53125"/><stop stop-opacity="1" stop-color="rgb(15.113831%, 29.701233%, 97.845459%)" offset="0.535156"/><stop stop-opacity="1" stop-color="rgb(15.058899%, 29.473877%, 97.929382%)" offset="0.539062"/><stop stop-opacity="1" stop-color="rgb(15.002441%, 29.246521%, 98.013306%)" offset="0.542969"/><stop stop-opacity="1" stop-color="rgb(14.94751%, 29.020691%, 98.097229%)" offset="0.546875"/><stop stop-opacity="1" stop-color="rgb(14.892578%, 28.793335%, 98.181152%)" offset="0.550781"/><stop stop-opacity="1" stop-color="rgb(14.837646%, 28.565979%, 98.266602%)" offset="0.554687"/><stop stop-opacity="1" stop-color="rgb(14.781189%, 28.338623%, 98.350525%)" offset="0.558594"/><stop stop-opacity="1" stop-color="rgb(14.726257%, 28.112793%, 98.434448%)" offset="0.5625"/><stop stop-opacity="1" stop-color="rgb(14.671326%, 27.885437%, 98.518372%)" offset="0.566406"/><stop stop-opacity="1" stop-color="rgb(14.616394%, 27.658081%, 98.603821%)" offset="0.570312"/><stop stop-opacity="1" stop-color="rgb(14.559937%, 27.430725%, 98.687744%)" offset="0.574219"/><stop stop-opacity="1" stop-color="rgb(14.505005%, 27.204895%, 98.771667%)" offset="0.578125"/><stop stop-opacity="1" stop-color="rgb(14.450073%, 26.977539%, 98.855591%)" offset="0.582031"/><stop stop-opacity="1" stop-color="rgb(14.395142%, 26.750183%, 98.94104%)" offset="0.585937"/><stop stop-opacity="1" stop-color="rgb(14.338684%, 26.522827%, 99.024963%)" offset="0.589844"/><stop stop-opacity="1" stop-color="rgb(14.283752%, 26.296997%, 99.108887%)" offset="0.59375"/><stop stop-opacity="1" stop-color="rgb(14.228821%, 26.069641%, 99.19281%)" offset="0.597656"/><stop stop-opacity="1" stop-color="rgb(14.173889%, 25.842285%, 99.278259%)" offset="0.601563"/><stop stop-opacity="1" stop-color="rgb(14.117432%, 25.614929%, 99.362183%)" offset="0.605469"/><stop stop-opacity="1" stop-color="rgb(14.0625%, 25.389099%, 99.446106%)" offset="0.609375"/><stop stop-opacity="1" stop-color="rgb(14.006042%, 25.161743%, 99.530029%)" offset="0.613281"/><stop stop-opacity="1" stop-color="rgb(13.951111%, 24.934387%, 99.615479%)" offset="0.617188"/><stop stop-opacity="1" stop-color="rgb(13.896179%, 24.707031%, 99.699402%)" offset="0.621094"/><stop stop-opacity="1" stop-color="rgb(13.841248%, 24.479675%, 99.783325%)" offset="0.625"/><stop stop-opacity="1" stop-color="rgb(13.78479%, 24.252319%, 99.867249%)" offset="0.628906"/><stop stop-opacity="1" stop-color="rgb(13.729858%, 24.026489%, 99.952698%)" offset="0.632813"/><stop stop-opacity="1" stop-color="rgb(13.890076%, 24.336243%, 99.957275%)" offset="0.636719"/><stop stop-opacity="1" stop-color="rgb(14.051819%, 24.647522%, 99.961853%)" offset="0.640625"/><stop stop-opacity="1" stop-color="rgb(14.295959%, 25.166321%, 99.934387%)" offset="0.644531"/><stop stop-opacity="1" stop-color="rgb(14.541626%, 25.686646%, 99.908447%)" offset="0.648438"/><stop stop-opacity="1" stop-color="rgb(14.787292%, 26.205444%, 99.882507%)" offset="0.652344"/><stop stop-opacity="1" stop-color="rgb(15.032959%, 26.725769%, 99.856567%)" offset="0.65625"/><stop stop-opacity="1" stop-color="rgb(15.2771%, 27.246094%, 99.829102%)" offset="0.660156"/><stop stop-opacity="1" stop-color="rgb(15.522766%, 27.766418%, 99.803162%)" offset="0.664062"/><stop stop-opacity="1" stop-color="rgb(15.766907%, 28.285217%, 99.777222%)" offset="0.667969"/><stop stop-opacity="1" stop-color="rgb(16.012573%, 28.805542%, 99.751282%)" offset="0.671875"/><stop stop-opacity="1" stop-color="rgb(16.256714%, 29.324341%, 99.725342%)" offset="0.675781"/><stop stop-opacity="1" stop-color="rgb(16.50238%, 29.844666%, 99.699402%)" offset="0.679688"/><stop stop-opacity="1" stop-color="rgb(16.748047%, 30.363464%, 99.671936%)" offset="0.683594"/><stop stop-opacity="1" stop-color="rgb(16.993713%, 30.883789%, 99.645996%)" offset="0.6875"/><stop stop-opacity="1" stop-color="rgb(17.237854%, 31.404114%, 99.620056%)" offset="0.691406"/><stop stop-opacity="1" stop-color="rgb(17.483521%, 31.924438%, 99.594116%)" offset="0.695312"/><stop stop-opacity="1" stop-color="rgb(17.727661%, 32.443237%, 99.56665%)" offset="0.699219"/><stop stop-opacity="1" stop-color="rgb(17.973328%, 32.963562%, 99.54071%)" offset="0.703125"/><stop stop-opacity="1" stop-color="rgb(18.217468%, 33.482361%, 99.514771%)" offset="0.707031"/><stop stop-opacity="1" stop-color="rgb(18.463135%, 34.002686%, 99.488831%)" offset="0.710938"/><stop stop-opacity="1" stop-color="rgb(18.708801%, 34.521484%, 99.462891%)" offset="0.714844"/><stop stop-opacity="1" stop-color="rgb(18.954468%, 35.041809%, 99.436951%)" offset="0.71875"/><stop stop-opacity="1" stop-color="rgb(19.198608%, 35.562134%, 99.409485%)" offset="0.722656"/><stop stop-opacity="1" stop-color="rgb(19.444275%, 36.082458%, 99.383545%)" offset="0.726562"/><stop stop-opacity="1" stop-color="rgb(19.688416%, 36.601257%, 99.357605%)" offset="0.730469"/><stop stop-opacity="1" stop-color="rgb(19.934082%, 37.121582%, 99.331665%)" offset="0.734375"/><stop stop-opacity="1" stop-color="rgb(20.178223%, 37.640381%, 99.304199%)" offset="0.738281"/><stop stop-opacity="1" stop-color="rgb(20.423889%, 38.160706%, 99.278259%)" offset="0.742187"/><stop stop-opacity="1" stop-color="rgb(20.669556%, 38.679504%, 99.252319%)" offset="0.746094"/><stop stop-opacity="1" stop-color="rgb(20.915222%, 39.199829%, 99.226379%)" offset="0.75"/><stop stop-opacity="1" stop-color="rgb(21.159363%, 39.718628%, 99.198914%)" offset="0.753906"/><stop stop-opacity="1" stop-color="rgb(21.405029%, 40.238953%, 99.172974%)" offset="0.757812"/><stop stop-opacity="1" stop-color="rgb(21.64917%, 40.759277%, 99.147034%)" offset="0.761719"/><stop stop-opacity="1" stop-color="rgb(21.894836%, 41.279602%, 99.121094%)" offset="0.765625"/><stop stop-opacity="1" stop-color="rgb(22.140503%, 41.798401%, 99.095154%)" offset="0.769531"/><stop stop-opacity="1" stop-color="rgb(22.386169%, 42.318726%, 99.069214%)" offset="0.773437"/><stop stop-opacity="1" stop-color="rgb(22.63031%, 42.837524%, 99.041748%)" offset="0.777344"/><stop stop-opacity="1" stop-color="rgb(22.875977%, 43.357849%, 99.015808%)" offset="0.78125"/><stop stop-opacity="1" stop-color="rgb(23.120117%, 43.876648%, 98.989868%)" offset="0.785156"/><stop stop-opacity="1" stop-color="rgb(23.365784%, 44.396973%, 98.963928%)" offset="0.789062"/><stop stop-opacity="1" stop-color="rgb(23.609924%, 44.917297%, 98.936462%)" offset="0.792969"/><stop stop-opacity="1" stop-color="rgb(23.855591%, 45.437622%, 98.910522%)" offset="0.796875"/><stop stop-opacity="1" stop-color="rgb(24.101257%, 45.956421%, 98.884583%)" offset="0.800781"/><stop stop-opacity="1" stop-color="rgb(24.346924%, 46.476746%, 98.858643%)" offset="0.804688"/><stop stop-opacity="1" stop-color="rgb(24.591064%, 46.995544%, 98.831177%)" offset="0.808594"/><stop stop-opacity="1" stop-color="rgb(24.836731%, 47.515869%, 98.805237%)" offset="0.8125"/><stop stop-opacity="1" stop-color="rgb(25.080872%, 48.034668%, 98.779297%)" offset="0.816406"/><stop stop-opacity="1" stop-color="rgb(25.326538%, 48.554993%, 98.753357%)" offset="0.820313"/><stop stop-opacity="1" stop-color="rgb(25.570679%, 49.075317%, 98.727417%)" offset="0.824219"/><stop stop-opacity="1" stop-color="rgb(25.816345%, 49.595642%, 98.701477%)" offset="0.828125"/><stop stop-opacity="1" stop-color="rgb(26.062012%, 50.114441%, 98.674011%)" offset="0.832031"/><stop stop-opacity="1" stop-color="rgb(26.307678%, 50.634766%, 98.648071%)" offset="0.835938"/><stop stop-opacity="1" stop-color="rgb(26.551819%, 51.153564%, 98.622131%)" offset="0.839844"/><stop stop-opacity="1" stop-color="rgb(26.797485%, 51.673889%, 98.596191%)" offset="0.84375"/><stop stop-opacity="1" stop-color="rgb(27.041626%, 52.192688%, 98.568726%)" offset="0.847656"/><stop stop-opacity="1" stop-color="rgb(27.287292%, 52.713013%, 98.542786%)" offset="0.851562"/><stop stop-opacity="1" stop-color="rgb(27.531433%, 53.231812%, 98.516846%)" offset="0.855469"/><stop stop-opacity="1" stop-color="rgb(27.7771%, 53.752136%, 98.490906%)" offset="0.859375"/><stop stop-opacity="1" stop-color="rgb(28.022766%, 54.272461%, 98.464966%)" offset="0.863281"/><stop stop-opacity="1" stop-color="rgb(28.268433%, 54.792786%, 98.439026%)" offset="0.867188"/><stop stop-opacity="1" stop-color="rgb(28.512573%, 55.311584%, 98.41156%)" offset="0.871094"/><stop stop-opacity="1" stop-color="rgb(28.75824%, 55.831909%, 98.38562%)" offset="0.875"/><stop stop-opacity="1" stop-color="rgb(29.00238%, 56.350708%, 98.35968%)" offset="0.878906"/><stop stop-opacity="1" stop-color="rgb(29.248047%, 56.871033%, 98.33374%)" offset="0.882812"/><stop stop-opacity="1" stop-color="rgb(29.492188%, 57.389832%, 98.306274%)" offset="0.886719"/><stop stop-opacity="1" stop-color="rgb(29.737854%, 57.910156%, 98.280334%)" offset="0.890625"/><stop stop-opacity="1" stop-color="rgb(29.983521%, 58.430481%, 98.254395%)" offset="0.894531"/><stop stop-opacity="1" stop-color="rgb(30.229187%, 58.950806%, 98.228455%)" offset="0.898437"/><stop stop-opacity="1" stop-color="rgb(30.473328%, 59.469604%, 98.200989%)" offset="0.902344"/><stop stop-opacity="1" stop-color="rgb(30.718994%, 59.989929%, 98.175049%)" offset="0.90625"/><stop stop-opacity="1" stop-color="rgb(30.963135%, 60.508728%, 98.149109%)" offset="0.910156"/><stop stop-opacity="1" stop-color="rgb(31.208801%, 61.029053%, 98.123169%)" offset="0.914062"/><stop stop-opacity="1" stop-color="rgb(31.452942%, 61.547852%, 98.097229%)" offset="0.917969"/><stop stop-opacity="1" stop-color="rgb(31.698608%, 62.068176%, 98.071289%)" offset="0.921875"/><stop stop-opacity="1" stop-color="rgb(31.944275%, 62.588501%, 98.043823%)" offset="0.925781"/><stop stop-opacity="1" stop-color="rgb(32.189941%, 63.108826%, 98.017883%)" offset="0.929687"/><stop stop-opacity="1" stop-color="rgb(32.434082%, 63.627625%, 97.991943%)" offset="0.933594"/><stop stop-opacity="1" stop-color="rgb(32.679749%, 64.147949%, 97.966003%)" offset="0.9375"/><stop stop-opacity="1" stop-color="rgb(32.923889%, 64.666748%, 97.938538%)" offset="0.941406"/><stop stop-opacity="1" stop-color="rgb(33.169556%, 65.187073%, 97.912598%)" offset="0.945312"/><stop stop-opacity="1" stop-color="rgb(33.413696%, 65.705872%, 97.886658%)" offset="0.949219"/><stop stop-opacity="1" stop-color="rgb(33.659363%, 66.226196%, 97.860718%)" offset="0.953125"/><stop stop-opacity="1" stop-color="rgb(33.905029%, 66.746521%, 97.833252%)" offset="0.957031"/><stop stop-opacity="1" stop-color="rgb(34.150696%, 67.266846%, 97.807312%)" offset="0.960937"/><stop stop-opacity="1" stop-color="rgb(34.394836%, 67.785645%, 97.781372%)" offset="0.964844"/><stop stop-opacity="1" stop-color="rgb(34.640503%, 68.305969%, 97.755432%)" offset="0.96875"/><stop stop-opacity="1" stop-color="rgb(34.884644%, 68.824768%, 97.729492%)" offset="0.972656"/><stop stop-opacity="1" stop-color="rgb(35.13031%, 69.345093%, 97.703552%)" offset="0.976562"/><stop stop-opacity="1" stop-color="rgb(35.374451%, 69.863892%, 97.676086%)" offset="0.980469"/><stop stop-opacity="1" stop-color="rgb(35.620117%, 70.384216%, 97.650146%)" offset="0.984375"/><stop stop-opacity="1" stop-color="rgb(35.85968%, 70.890808%, 97.624207%)" offset="0.988281"/><stop stop-opacity="1" stop-color="rgb(36.099243%, 71.398926%, 97.599792%)" offset="0.992187"/><stop stop-opacity="1" stop-color="rgb(36.099243%, 71.398926%, 97.599792%)" offset="1"/></linearGradient><clipPath id="d7161fae73"><path d="M 271.867188 586.753906 L 538.117188 586.753906 L 538.117188 853.003906 L 271.867188 853.003906 Z M 271.867188 586.753906 " clip-rule="nonzero"/></clipPath></defs><g clip-path="url(#a098c3802b)"><g clip-path="url(#793a30b0cd)"><path fill="url(#6f04d28835)" d="M 593.324219 531.824219 L 216.824219 531.824219 L 216.824219 908.324219 L 593.324219 908.324219 Z M 593.324219 531.824219 " fill-rule="nonzero"/></g></g><g clip-path="url(#d7161fae73)"><path fill="#f4f6fc" d="M 404.992188 844.128906 C 336.46875 844.128906 280.742188 788.402344 280.742188 719.878906 C 280.742188 651.359375 336.46875 595.628906 404.992188 595.628906 C 473.511719 595.628906 529.242188 651.359375 529.242188 719.878906 C 529.242188 788.402344 473.511719 844.128906 404.992188 844.128906 Z M 404.992188 586.753906 C 331.582031 586.753906 271.867188 646.46875 271.867188 719.878906 C 271.867188 793.289062 331.582031 853.003906 404.992188 853.003906 C 478.402344 853.003906 538.117188 793.289062 538.117188 719.878906 C 538.117188 646.46875 478.402344 586.753906 404.992188 586.753906 " fill-opacity="1" fill-rule="nonzero"/></g><path fill="#f4f6fc" d="M 404.992188 780.027344 C 394.382812 768.675781 360.617188 730.332031 360.617188 702.128906 C 360.617188 677.65625 380.515625 657.753906 404.992188 657.753906 C 429.46875 657.753906 449.367188 677.65625 449.367188 702.128906 C 449.367188 730.296875 415.582031 768.675781 404.992188 780.027344 Z M 404.992188 648.878906 C 375.628906 648.878906 351.742188 672.765625 351.742188 702.128906 C 351.742188 739.050781 399.808594 787.535156 401.855469 789.578125 C 402.71875 790.445312 403.847656 790.878906 404.992188 790.878906 C 406.136719 790.878906 407.261719 790.445312 408.128906 789.578125 C 410.175781 787.535156 458.242188 739.050781 458.242188 702.128906 C 458.242188 672.765625 434.355469 648.878906 404.992188 648.878906 " fill-opacity="1" fill-rule="nonzero"/><path fill="#f4f6fc" d="M 404.992188 702.128906 C 400.101562 702.128906 396.117188 698.144531 396.117188 693.253906 C 396.117188 688.367188 400.101562 684.378906 404.992188 684.378906 C 409.878906 684.378906 413.867188 688.367188 413.867188 693.253906 C 413.867188 698.144531 409.878906 702.128906 404.992188 702.128906 Z M 404.992188 675.503906 C 395.199219 675.503906 387.242188 683.460938 387.242188 693.253906 C 387.242188 703.046875 395.199219 711.003906 404.992188 711.003906 C 414.785156 711.003906 422.742188 703.046875 422.742188 693.253906 C 422.742188 683.460938 414.785156 675.503906 404.992188 675.503906 " fill-opacity="1" fill-rule="nonzero"/></svg>