<svg xmlns="http://www.w3.org/2000/svg" xmlns:xlink="http://www.w3.org/1999/xlink" width="1080" zoomAndPan="magnify" viewBox="0 0 810 1439.999935" height="1920" preserveAspectRatio="xMidYMid meet" version="1.0"><defs><clipPath id="62b78d4d7b"><path d="M 216.824219 531.824219 L 593.324219 531.824219 L 593.324219 908.324219 L 216.824219 908.324219 Z M 216.824219 531.824219 " clip-rule="nonzero"/></clipPath><clipPath id="94eb847057"><path d="M 593.324219 720.074219 C 593.324219 723.15625 593.25 726.234375 593.097656 729.3125 C 592.945312 732.386719 592.71875 735.460938 592.417969 738.527344 C 592.117188 741.59375 591.738281 744.648438 591.285156 747.695312 C 590.835938 750.742188 590.308594 753.777344 589.707031 756.800781 C 589.105469 759.820312 588.429688 762.828125 587.683594 765.816406 C 586.933594 768.804688 586.113281 771.773438 585.21875 774.71875 C 584.324219 777.667969 583.359375 780.59375 582.320312 783.492188 C 581.28125 786.394531 580.171875 789.269531 578.996094 792.113281 C 577.816406 794.960938 576.566406 797.777344 575.25 800.5625 C 573.933594 803.347656 572.546875 806.097656 571.097656 808.816406 C 569.644531 811.53125 568.125 814.210938 566.542969 816.855469 C 564.957031 819.496094 563.308594 822.097656 561.597656 824.660156 C 559.886719 827.222656 558.113281 829.738281 556.277344 832.214844 C 554.441406 834.6875 552.546875 837.117188 550.59375 839.5 C 548.640625 841.878906 546.628906 844.210938 544.558594 846.496094 C 542.488281 848.777344 540.367188 851.007812 538.1875 853.1875 C 536.007812 855.367188 533.777344 857.488281 531.496094 859.558594 C 529.210938 861.628906 526.878906 863.640625 524.5 865.59375 C 522.117188 867.546875 519.6875 869.441406 517.214844 871.277344 C 514.742188 873.113281 512.222656 874.886719 509.660156 876.597656 C 507.097656 878.308594 504.496094 879.957031 501.855469 881.542969 C 499.210938 883.125 496.53125 884.644531 493.816406 886.097656 C 491.097656 887.546875 488.347656 888.933594 485.5625 890.25 C 482.777344 891.566406 479.960938 892.816406 477.113281 893.996094 C 474.269531 895.171875 471.394531 896.28125 468.492188 897.320312 C 465.59375 898.359375 462.667969 899.324219 459.71875 900.21875 C 456.773438 901.113281 453.804688 901.933594 450.816406 902.683594 C 447.828125 903.429688 444.820312 904.105469 441.800781 904.707031 C 438.777344 905.308594 435.742188 905.835938 432.695312 906.285156 C 429.648438 906.738281 426.59375 907.117188 423.527344 907.417969 C 420.460938 907.71875 417.386719 907.945312 414.3125 908.097656 C 411.234375 908.25 408.15625 908.324219 405.074219 908.324219 C 401.992188 908.324219 398.914062 908.25 395.835938 908.097656 C 392.761719 907.945312 389.6875 907.71875 386.621094 907.417969 C 383.558594 907.117188 380.5 906.738281 377.453125 906.285156 C 374.40625 905.835938 371.371094 905.308594 368.347656 904.707031 C 365.328125 904.105469 362.320312 903.429688 359.332031 902.683594 C 356.34375 901.933594 353.375 901.113281 350.429688 900.21875 C 347.480469 899.324219 344.554688 898.359375 341.65625 897.320312 C 338.753906 896.28125 335.878906 895.171875 333.035156 893.996094 C 330.1875 892.816406 327.371094 891.566406 324.585938 890.25 C 321.800781 888.933594 319.050781 887.546875 316.335938 886.097656 C 313.617188 884.644531 310.9375 883.125 308.292969 881.542969 C 305.652344 879.957031 303.050781 878.308594 300.488281 876.597656 C 297.925781 874.886719 295.410156 873.113281 292.933594 871.277344 C 290.460938 869.441406 288.03125 867.546875 285.648438 865.59375 C 283.269531 863.640625 280.9375 861.628906 278.652344 859.558594 C 276.371094 857.488281 274.140625 855.367188 271.960938 853.1875 C 269.78125 851.007812 267.660156 848.777344 265.589844 846.496094 C 263.519531 844.210938 261.507812 841.878906 259.554688 839.5 C 257.601562 837.117188 255.707031 834.6875 253.871094 832.214844 C 252.035156 829.738281 250.261719 827.222656 248.550781 824.660156 C 246.839844 822.097656 245.191406 819.496094 243.605469 816.855469 C 242.023438 814.210938 240.503906 811.53125 239.054688 808.816406 C 237.601562 806.097656 236.214844 803.347656 234.898438 800.5625 C 233.582031 797.777344 232.332031 794.960938 231.152344 792.113281 C 229.976562 789.269531 228.867188 786.394531 227.828125 783.492188 C 226.789062 780.59375 225.824219 777.667969 224.929688 774.71875 C 224.035156 771.773438 223.214844 768.804688 222.464844 765.816406 C 221.71875 762.828125 221.042969 759.820312 220.441406 756.800781 C 219.839844 753.777344 219.3125 750.742188 218.863281 747.695312 C 218.410156 744.648438 218.03125 741.59375 217.730469 738.527344 C 217.429688 735.460938 217.203125 732.386719 217.050781 729.3125 C 216.898438 726.234375 216.824219 723.15625 216.824219 720.074219 C 216.824219 716.992188 216.898438 713.914062 217.050781 710.835938 C 217.203125 707.761719 217.429688 704.6875 217.730469 701.621094 C 218.03125 698.554688 218.410156 695.5 218.863281 692.453125 C 219.3125 689.40625 219.839844 686.371094 220.441406 683.347656 C 221.042969 680.328125 221.71875 677.320312 222.464844 674.332031 C 223.214844 671.34375 224.035156 668.375 224.929688 665.429688 C 225.824219 662.480469 226.789062 659.554688 227.828125 656.65625 C 228.867188 653.753906 229.976562 650.878906 231.152344 648.035156 C 232.332031 645.1875 233.582031 642.371094 234.898438 639.585938 C 236.214844 636.800781 237.601562 634.050781 239.054688 631.332031 C 240.503906 628.617188 242.023438 625.9375 243.605469 623.292969 C 245.191406 620.652344 246.839844 618.050781 248.550781 615.488281 C 250.261719 612.925781 252.035156 610.410156 253.871094 607.933594 C 255.707031 605.460938 257.601562 603.03125 259.554688 600.648438 C 261.507812 598.269531 263.519531 595.9375 265.589844 593.652344 C 267.660156 591.371094 269.78125 589.140625 271.960938 586.960938 C 274.140625 584.78125 276.371094 582.660156 278.652344 580.589844 C 280.9375 578.519531 283.269531 576.507812 285.648438 574.554688 C 288.03125 572.601562 290.460938 570.707031 292.933594 568.871094 C 295.410156 567.035156 297.925781 565.261719 300.488281 563.550781 C 303.050781 561.839844 305.652344 560.191406 308.292969 558.605469 C 310.9375 557.023438 313.617188 555.503906 316.335938 554.050781 C 319.050781 552.601562 321.800781 551.214844 324.585938 549.898438 C 327.371094 548.582031 330.1875 547.332031 333.035156 546.152344 C 335.878906 544.976562 338.753906 543.867188 341.65625 542.828125 C 344.554688 541.789062 347.480469 540.824219 350.429688 539.929688 C 353.375 539.035156 356.34375 538.214844 359.332031 537.464844 C 362.320312 536.71875 365.328125 536.042969 368.347656 535.441406 C 371.371094 534.839844 374.40625 534.3125 377.453125 533.863281 C 380.5 533.410156 383.558594 533.03125 386.621094 532.730469 C 389.6875 532.429688 392.761719 532.203125 395.835938 532.050781 C 398.914062 531.898438 401.992188 531.824219 405.074219 531.824219 C 408.15625 531.824219 411.234375 531.898438 414.3125 532.050781 C 417.386719 532.203125 420.460938 532.429688 423.527344 532.730469 C 426.59375 533.03125 429.648438 533.410156 432.695312 533.863281 C 435.742188 534.3125 438.777344 534.839844 441.800781 535.441406 C 444.820312 536.042969 447.828125 536.71875 450.816406 537.464844 C 453.804688 538.214844 456.773438 539.035156 459.71875 539.929688 C 462.667969 540.824219 465.59375 541.789062 468.492188 542.828125 C 471.394531 543.867188 474.269531 544.976562 477.113281 546.152344 C 479.960938 547.332031 482.777344 548.582031 485.5625 549.898438 C 488.347656 551.214844 491.097656 552.601562 493.816406 554.050781 C 496.53125 555.503906 499.210938 557.023438 501.855469 558.605469 C 504.496094 560.191406 507.097656 561.839844 509.660156 563.550781 C 512.222656 565.261719 514.742188 567.035156 517.214844 568.871094 C 519.6875 570.707031 522.117188 572.601562 524.5 574.554688 C 526.878906 576.507812 529.210938 578.519531 531.496094 580.589844 C 533.777344 582.660156 536.007812 584.78125 538.1875 586.960938 C 540.367188 589.140625 542.488281 591.371094 544.558594 593.652344 C 546.628906 595.9375 548.640625 598.269531 550.59375 600.648438 C 552.546875 603.03125 554.441406 605.460938 556.277344 607.933594 C 558.113281 610.410156 559.886719 612.925781 561.597656 615.488281 C 563.308594 618.050781 564.957031 620.652344 566.542969 623.292969 C 568.125 625.9375 569.644531 628.617188 571.097656 631.332031 C 572.546875 634.050781 573.933594 636.800781 575.25 639.585938 C 576.566406 642.371094 577.816406 645.1875 578.996094 648.035156 C 580.171875 650.878906 581.28125 653.753906 582.320312 656.65625 C 583.359375 659.554688 584.324219 662.480469 585.21875 665.429688 C 586.113281 668.375 586.933594 671.34375 587.683594 674.332031 C 588.429688 677.320312 589.105469 680.328125 589.707031 683.347656 C 590.308594 686.371094 590.835938 689.40625 591.285156 692.453125 C 591.738281 695.5 592.117188 698.554688 592.417969 701.621094 C 592.71875 704.6875 592.945312 707.761719 593.097656 710.835938 C 593.25 713.914062 593.324219 716.992188 593.324219 720.074219 Z M 593.324219 720.074219 " clip-rule="nonzero"/></clipPath><linearGradient x1="1770.925973" gradientTransform="matrix(0.00000000000000018, 2.934528, -2.934528, 0.00000000000000018, 1123.546598, -4665.008089)" y1="244.834" x2="1899.225969" gradientUnits="userSpaceOnUse" y2="244.834" id="c849677e99"><stop stop-opacity="1" stop-color="rgb(22.698975%, 60.798645%, 86.299133%)" offset="0"/><stop stop-opacity="1" stop-color="rgb(22.644043%, 60.571289%, 86.383057%)" offset="0.00390625"/><stop stop-opacity="1" stop-color="rgb(22.589111%, 60.345459%, 86.468506%)" offset="0.0078125"/><stop stop-opacity="1" stop-color="rgb(22.532654%, 60.118103%, 86.552429%)" offset="0.0117187"/><stop stop-opacity="1" stop-color="rgb(22.477722%, 59.890747%, 86.636353%)" offset="0.015625"/><stop stop-opacity="1" stop-color="rgb(22.421265%, 59.663391%, 86.720276%)" offset="0.0195312"/><stop stop-opacity="1" stop-color="rgb(22.366333%, 59.437561%, 86.804199%)" offset="0.0234375"/><stop stop-opacity="1" stop-color="rgb(22.311401%, 59.210205%, 86.888123%)" offset="0.0273438"/><stop stop-opacity="1" stop-color="rgb(22.25647%, 58.982849%, 86.973572%)" offset="0.03125"/><stop stop-opacity="1" stop-color="rgb(22.200012%, 58.755493%, 87.057495%)" offset="0.0351562"/><stop stop-opacity="1" stop-color="rgb(22.145081%, 58.529663%, 87.141418%)" offset="0.0390625"/><stop stop-opacity="1" stop-color="rgb(22.090149%, 58.302307%, 87.225342%)" offset="0.0429688"/><stop stop-opacity="1" stop-color="rgb(22.035217%, 58.074951%, 87.310791%)" offset="0.046875"/><stop stop-opacity="1" stop-color="rgb(21.97876%, 57.847595%, 87.394714%)" offset="0.0507813"/><stop stop-opacity="1" stop-color="rgb(21.923828%, 57.621765%, 87.478638%)" offset="0.0546875"/><stop stop-opacity="1" stop-color="rgb(21.868896%, 57.394409%, 87.562561%)" offset="0.0585938"/><stop stop-opacity="1" stop-color="rgb(21.813965%, 57.167053%, 87.64801%)" offset="0.0625"/><stop stop-opacity="1" stop-color="rgb(21.757507%, 56.939697%, 87.731934%)" offset="0.0664062"/><stop stop-opacity="1" stop-color="rgb(21.702576%, 56.713867%, 87.815857%)" offset="0.0703125"/><stop stop-opacity="1" stop-color="rgb(21.647644%, 56.486511%, 87.89978%)" offset="0.0742187"/><stop stop-opacity="1" stop-color="rgb(21.592712%, 56.259155%, 87.985229%)" offset="0.078125"/><stop stop-opacity="1" stop-color="rgb(21.536255%, 56.031799%, 88.069153%)" offset="0.0820312"/><stop stop-opacity="1" stop-color="rgb(21.481323%, 55.805969%, 88.153076%)" offset="0.0859375"/><stop stop-opacity="1" stop-color="rgb(21.424866%, 55.578613%, 88.237%)" offset="0.0898437"/><stop stop-opacity="1" stop-color="rgb(21.369934%, 55.351257%, 88.322449%)" offset="0.09375"/><stop stop-opacity="1" stop-color="rgb(21.315002%, 55.123901%, 88.406372%)" offset="0.0976562"/><stop stop-opacity="1" stop-color="rgb(21.260071%, 54.898071%, 88.490295%)" offset="0.101562"/><stop stop-opacity="1" stop-color="rgb(21.203613%, 54.670715%, 88.574219%)" offset="0.105469"/><stop stop-opacity="1" stop-color="rgb(21.148682%, 54.443359%, 88.659668%)" offset="0.109375"/><stop stop-opacity="1" stop-color="rgb(21.09375%, 54.216003%, 88.743591%)" offset="0.113281"/><stop stop-opacity="1" stop-color="rgb(21.038818%, 53.990173%, 88.827515%)" offset="0.117188"/><stop stop-opacity="1" stop-color="rgb(20.982361%, 53.762817%, 88.911438%)" offset="0.121094"/><stop stop-opacity="1" stop-color="rgb(20.927429%, 53.535461%, 88.995361%)" offset="0.125"/><stop stop-opacity="1" stop-color="rgb(20.872498%, 53.308105%, 89.079285%)" offset="0.128906"/><stop stop-opacity="1" stop-color="rgb(20.817566%, 53.08075%, 89.164734%)" offset="0.132812"/><stop stop-opacity="1" stop-color="rgb(20.761108%, 52.853394%, 89.248657%)" offset="0.136719"/><stop stop-opacity="1" stop-color="rgb(20.706177%, 52.627563%, 89.332581%)" offset="0.140625"/><stop stop-opacity="1" stop-color="rgb(20.649719%, 52.400208%, 89.416504%)" offset="0.144531"/><stop stop-opacity="1" stop-color="rgb(20.594788%, 52.172852%, 89.501953%)" offset="0.148437"/><stop stop-opacity="1" stop-color="rgb(20.539856%, 51.945496%, 89.585876%)" offset="0.152344"/><stop stop-opacity="1" stop-color="rgb(20.484924%, 51.719666%, 89.6698%)" offset="0.15625"/><stop stop-opacity="1" stop-color="rgb(20.428467%, 51.49231%, 89.753723%)" offset="0.160156"/><stop stop-opacity="1" stop-color="rgb(20.373535%, 51.264954%, 89.839172%)" offset="0.164062"/><stop stop-opacity="1" stop-color="rgb(20.318604%, 51.037598%, 89.923096%)" offset="0.167969"/><stop stop-opacity="1" stop-color="rgb(20.263672%, 50.811768%, 90.007019%)" offset="0.171875"/><stop stop-opacity="1" stop-color="rgb(20.207214%, 50.584412%, 90.090942%)" offset="0.175781"/><stop stop-opacity="1" stop-color="rgb(20.152283%, 50.357056%, 90.176392%)" offset="0.179687"/><stop stop-opacity="1" stop-color="rgb(20.097351%, 50.1297%, 90.260315%)" offset="0.183594"/><stop stop-opacity="1" stop-color="rgb(20.042419%, 49.90387%, 90.344238%)" offset="0.1875"/><stop stop-opacity="1" stop-color="rgb(19.985962%, 49.676514%, 90.428162%)" offset="0.191406"/><stop stop-opacity="1" stop-color="rgb(19.93103%, 49.449158%, 90.513611%)" offset="0.195312"/><stop stop-opacity="1" stop-color="rgb(19.874573%, 49.221802%, 90.597534%)" offset="0.199219"/><stop stop-opacity="1" stop-color="rgb(19.819641%, 48.995972%, 90.681458%)" offset="0.203125"/><stop stop-opacity="1" stop-color="rgb(19.764709%, 48.768616%, 90.765381%)" offset="0.207031"/><stop stop-opacity="1" stop-color="rgb(19.709778%, 48.54126%, 90.85083%)" offset="0.210938"/><stop stop-opacity="1" stop-color="rgb(19.65332%, 48.313904%, 90.934753%)" offset="0.214844"/><stop stop-opacity="1" stop-color="rgb(19.598389%, 48.088074%, 91.018677%)" offset="0.21875"/><stop stop-opacity="1" stop-color="rgb(19.543457%, 47.860718%, 91.1026%)" offset="0.222656"/><stop stop-opacity="1" stop-color="rgb(19.488525%, 47.633362%, 91.186523%)" offset="0.226562"/><stop stop-opacity="1" stop-color="rgb(19.432068%, 47.406006%, 91.270447%)" offset="0.230469"/><stop stop-opacity="1" stop-color="rgb(19.377136%, 47.180176%, 91.355896%)" offset="0.234375"/><stop stop-opacity="1" stop-color="rgb(19.322205%, 46.95282%, 91.439819%)" offset="0.238281"/><stop stop-opacity="1" stop-color="rgb(19.267273%, 46.725464%, 91.523743%)" offset="0.242188"/><stop stop-opacity="1" stop-color="rgb(19.210815%, 46.498108%, 91.607666%)" offset="0.246094"/><stop stop-opacity="1" stop-color="rgb(19.155884%, 46.272278%, 91.693115%)" offset="0.25"/><stop stop-opacity="1" stop-color="rgb(19.099426%, 46.044922%, 91.777039%)" offset="0.253906"/><stop stop-opacity="1" stop-color="rgb(19.044495%, 45.817566%, 91.860962%)" offset="0.257812"/><stop stop-opacity="1" stop-color="rgb(18.989563%, 45.59021%, 91.944885%)" offset="0.261719"/><stop stop-opacity="1" stop-color="rgb(18.934631%, 45.36438%, 92.030334%)" offset="0.265625"/><stop stop-opacity="1" stop-color="rgb(18.878174%, 45.137024%, 92.114258%)" offset="0.269531"/><stop stop-opacity="1" stop-color="rgb(18.823242%, 44.909668%, 92.198181%)" offset="0.273437"/><stop stop-opacity="1" stop-color="rgb(18.768311%, 44.682312%, 92.282104%)" offset="0.277344"/><stop stop-opacity="1" stop-color="rgb(18.713379%, 44.456482%, 92.367554%)" offset="0.28125"/><stop stop-opacity="1" stop-color="rgb(18.656921%, 44.229126%, 92.451477%)" offset="0.285156"/><stop stop-opacity="1" stop-color="rgb(18.60199%, 44.00177%, 92.5354%)" offset="0.289062"/><stop stop-opacity="1" stop-color="rgb(18.547058%, 43.774414%, 92.619324%)" offset="0.292969"/><stop stop-opacity="1" stop-color="rgb(18.492126%, 43.547058%, 92.704773%)" offset="0.296875"/><stop stop-opacity="1" stop-color="rgb(18.435669%, 43.319702%, 92.788696%)" offset="0.300781"/><stop stop-opacity="1" stop-color="rgb(18.380737%, 43.093872%, 92.87262%)" offset="0.304687"/><stop stop-opacity="1" stop-color="rgb(18.32428%, 42.866516%, 92.956543%)" offset="0.308594"/><stop stop-opacity="1" stop-color="rgb(18.269348%, 42.63916%, 93.041992%)" offset="0.3125"/><stop stop-opacity="1" stop-color="rgb(18.214417%, 42.411804%, 93.125916%)" offset="0.316406"/><stop stop-opacity="1" stop-color="rgb(18.159485%, 42.185974%, 93.209839%)" offset="0.320312"/><stop stop-opacity="1" stop-color="rgb(18.103027%, 41.958618%, 93.293762%)" offset="0.324219"/><stop stop-opacity="1" stop-color="rgb(18.048096%, 41.731262%, 93.379211%)" offset="0.328125"/><stop stop-opacity="1" stop-color="rgb(17.993164%, 41.503906%, 93.463135%)" offset="0.332031"/><stop stop-opacity="1" stop-color="rgb(17.938232%, 41.278076%, 93.547058%)" offset="0.335937"/><stop stop-opacity="1" stop-color="rgb(17.881775%, 41.05072%, 93.630981%)" offset="0.339844"/><stop stop-opacity="1" stop-color="rgb(17.826843%, 40.823364%, 93.714905%)" offset="0.34375"/><stop stop-opacity="1" stop-color="rgb(17.771912%, 40.596008%, 93.798828%)" offset="0.347656"/><stop stop-opacity="1" stop-color="rgb(17.71698%, 40.370178%, 93.884277%)" offset="0.351562"/><stop stop-opacity="1" stop-color="rgb(17.660522%, 40.142822%, 93.968201%)" offset="0.355469"/><stop stop-opacity="1" stop-color="rgb(17.605591%, 39.915466%, 94.052124%)" offset="0.359375"/><stop stop-opacity="1" stop-color="rgb(17.550659%, 39.68811%, 94.136047%)" offset="0.363281"/><stop stop-opacity="1" stop-color="rgb(17.495728%, 39.46228%, 94.221497%)" offset="0.367187"/><stop stop-opacity="1" stop-color="rgb(17.43927%, 39.234924%, 94.30542%)" offset="0.371094"/><stop stop-opacity="1" stop-color="rgb(17.384338%, 39.007568%, 94.389343%)" offset="0.375"/><stop stop-opacity="1" stop-color="rgb(17.327881%, 38.780212%, 94.473267%)" offset="0.378906"/><stop stop-opacity="1" stop-color="rgb(17.272949%, 38.554382%, 94.558716%)" offset="0.382812"/><stop stop-opacity="1" stop-color="rgb(17.218018%, 38.327026%, 94.642639%)" offset="0.386719"/><stop stop-opacity="1" stop-color="rgb(17.163086%, 38.09967%, 94.726562%)" offset="0.390625"/><stop stop-opacity="1" stop-color="rgb(17.106628%, 37.872314%, 94.810486%)" offset="0.394531"/><stop stop-opacity="1" stop-color="rgb(17.051697%, 37.646484%, 94.895935%)" offset="0.398437"/><stop stop-opacity="1" stop-color="rgb(16.996765%, 37.419128%, 94.979858%)" offset="0.402344"/><stop stop-opacity="1" stop-color="rgb(16.941833%, 37.191772%, 95.063782%)" offset="0.40625"/><stop stop-opacity="1" stop-color="rgb(16.885376%, 36.964417%, 95.147705%)" offset="0.410156"/><stop stop-opacity="1" stop-color="rgb(16.830444%, 36.738586%, 95.233154%)" offset="0.414062"/><stop stop-opacity="1" stop-color="rgb(16.775513%, 36.51123%, 95.317078%)" offset="0.417969"/><stop stop-opacity="1" stop-color="rgb(16.720581%, 36.283875%, 95.401001%)" offset="0.421875"/><stop stop-opacity="1" stop-color="rgb(16.664124%, 36.056519%, 95.484924%)" offset="0.425781"/><stop stop-opacity="1" stop-color="rgb(16.609192%, 35.830688%, 95.570374%)" offset="0.429687"/><stop stop-opacity="1" stop-color="rgb(16.552734%, 35.603333%, 95.654297%)" offset="0.433594"/><stop stop-opacity="1" stop-color="rgb(16.497803%, 35.375977%, 95.73822%)" offset="0.4375"/><stop stop-opacity="1" stop-color="rgb(16.442871%, 35.148621%, 95.822144%)" offset="0.441406"/><stop stop-opacity="1" stop-color="rgb(16.387939%, 34.922791%, 95.906067%)" offset="0.445312"/><stop stop-opacity="1" stop-color="rgb(16.331482%, 34.695435%, 95.98999%)" offset="0.449219"/><stop stop-opacity="1" stop-color="rgb(16.27655%, 34.468079%, 96.075439%)" offset="0.453125"/><stop stop-opacity="1" stop-color="rgb(16.221619%, 34.240723%, 96.159363%)" offset="0.457031"/><stop stop-opacity="1" stop-color="rgb(16.166687%, 34.013367%, 96.243286%)" offset="0.460937"/><stop stop-opacity="1" stop-color="rgb(16.110229%, 33.786011%, 96.327209%)" offset="0.464844"/><stop stop-opacity="1" stop-color="rgb(16.055298%, 33.560181%, 96.412659%)" offset="0.46875"/><stop stop-opacity="1" stop-color="rgb(16.000366%, 33.332825%, 96.496582%)" offset="0.472656"/><stop stop-opacity="1" stop-color="rgb(15.945435%, 33.105469%, 96.580505%)" offset="0.476562"/><stop stop-opacity="1" stop-color="rgb(15.888977%, 32.878113%, 96.664429%)" offset="0.480469"/><stop stop-opacity="1" stop-color="rgb(15.834045%, 32.652283%, 96.749878%)" offset="0.484375"/><stop stop-opacity="1" stop-color="rgb(15.777588%, 32.424927%, 96.833801%)" offset="0.488281"/><stop stop-opacity="1" stop-color="rgb(15.722656%, 32.197571%, 96.917725%)" offset="0.492187"/><stop stop-opacity="1" stop-color="rgb(15.667725%, 31.970215%, 97.001648%)" offset="0.496094"/><stop stop-opacity="1" stop-color="rgb(15.612793%, 31.744385%, 97.087097%)" offset="0.5"/><stop stop-opacity="1" stop-color="rgb(15.556335%, 31.517029%, 97.171021%)" offset="0.503906"/><stop stop-opacity="1" stop-color="rgb(15.501404%, 31.289673%, 97.254944%)" offset="0.507812"/><stop stop-opacity="1" stop-color="rgb(15.446472%, 31.062317%, 97.338867%)" offset="0.511719"/><stop stop-opacity="1" stop-color="rgb(15.391541%, 30.836487%, 97.424316%)" offset="0.515625"/><stop stop-opacity="1" stop-color="rgb(15.335083%, 30.609131%, 97.50824%)" offset="0.519531"/><stop stop-opacity="1" stop-color="rgb(15.280151%, 30.381775%, 97.592163%)" offset="0.523437"/><stop stop-opacity="1" stop-color="rgb(15.22522%, 30.154419%, 97.676086%)" offset="0.527344"/><stop stop-opacity="1" stop-color="rgb(15.170288%, 29.928589%, 97.761536%)" offset="0.53125"/><stop stop-opacity="1" stop-color="rgb(15.113831%, 29.701233%, 97.845459%)" offset="0.535156"/><stop stop-opacity="1" stop-color="rgb(15.058899%, 29.473877%, 97.929382%)" offset="0.539062"/><stop stop-opacity="1" stop-color="rgb(15.002441%, 29.246521%, 98.013306%)" offset="0.542969"/><stop stop-opacity="1" stop-color="rgb(14.94751%, 29.020691%, 98.097229%)" offset="0.546875"/><stop stop-opacity="1" stop-color="rgb(14.892578%, 28.793335%, 98.181152%)" offset="0.550781"/><stop stop-opacity="1" stop-color="rgb(14.837646%, 28.565979%, 98.266602%)" offset="0.554687"/><stop stop-opacity="1" stop-color="rgb(14.781189%, 28.338623%, 98.350525%)" offset="0.558594"/><stop stop-opacity="1" stop-color="rgb(14.726257%, 28.112793%, 98.434448%)" offset="0.5625"/><stop stop-opacity="1" stop-color="rgb(14.671326%, 27.885437%, 98.518372%)" offset="0.566406"/><stop stop-opacity="1" stop-color="rgb(14.616394%, 27.658081%, 98.603821%)" offset="0.570312"/><stop stop-opacity="1" stop-color="rgb(14.559937%, 27.430725%, 98.687744%)" offset="0.574219"/><stop stop-opacity="1" stop-color="rgb(14.505005%, 27.204895%, 98.771667%)" offset="0.578125"/><stop stop-opacity="1" stop-color="rgb(14.450073%, 26.977539%, 98.855591%)" offset="0.582031"/><stop stop-opacity="1" stop-color="rgb(14.395142%, 26.750183%, 98.94104%)" offset="0.585937"/><stop stop-opacity="1" stop-color="rgb(14.338684%, 26.522827%, 99.024963%)" offset="0.589844"/><stop stop-opacity="1" stop-color="rgb(14.283752%, 26.296997%, 99.108887%)" offset="0.59375"/><stop stop-opacity="1" stop-color="rgb(14.228821%, 26.069641%, 99.19281%)" offset="0.597656"/><stop stop-opacity="1" stop-color="rgb(14.173889%, 25.842285%, 99.278259%)" offset="0.601562"/><stop stop-opacity="1" stop-color="rgb(14.117432%, 25.614929%, 99.362183%)" offset="0.605469"/><stop stop-opacity="1" stop-color="rgb(14.0625%, 25.387573%, 99.446106%)" offset="0.609375"/><stop stop-opacity="1" stop-color="rgb(14.006042%, 25.160217%, 99.530029%)" offset="0.613281"/><stop stop-opacity="1" stop-color="rgb(13.951111%, 24.934387%, 99.615479%)" offset="0.617187"/><stop stop-opacity="1" stop-color="rgb(13.896179%, 24.707031%, 99.699402%)" offset="0.621094"/><stop stop-opacity="1" stop-color="rgb(13.841248%, 24.479675%, 99.783325%)" offset="0.625"/><stop stop-opacity="1" stop-color="rgb(13.78479%, 24.252319%, 99.867249%)" offset="0.628906"/><stop stop-opacity="1" stop-color="rgb(13.729858%, 24.026489%, 99.952698%)" offset="0.632812"/><stop stop-opacity="1" stop-color="rgb(13.890076%, 24.336243%, 99.957275%)" offset="0.636719"/><stop stop-opacity="1" stop-color="rgb(14.051819%, 24.647522%, 99.961853%)" offset="0.640625"/><stop stop-opacity="1" stop-color="rgb(14.295959%, 25.166321%, 99.934387%)" offset="0.644531"/><stop stop-opacity="1" stop-color="rgb(14.541626%, 25.686646%, 99.908447%)" offset="0.648437"/><stop stop-opacity="1" stop-color="rgb(14.787292%, 26.20697%, 99.882507%)" offset="0.652344"/><stop stop-opacity="1" stop-color="rgb(15.032959%, 26.727295%, 99.856567%)" offset="0.65625"/><stop stop-opacity="1" stop-color="rgb(15.2771%, 27.246094%, 99.829102%)" offset="0.660156"/><stop stop-opacity="1" stop-color="rgb(15.522766%, 27.766418%, 99.803162%)" offset="0.664062"/><stop stop-opacity="1" stop-color="rgb(15.766907%, 28.285217%, 99.777222%)" offset="0.667969"/><stop stop-opacity="1" stop-color="rgb(16.012573%, 28.805542%, 99.751282%)" offset="0.671875"/><stop stop-opacity="1" stop-color="rgb(16.25824%, 29.324341%, 99.725342%)" offset="0.675781"/><stop stop-opacity="1" stop-color="rgb(16.503906%, 29.844666%, 99.699402%)" offset="0.679687"/><stop stop-opacity="1" stop-color="rgb(16.748047%, 30.363464%, 99.671936%)" offset="0.683594"/><stop stop-opacity="1" stop-color="rgb(16.993713%, 30.883789%, 99.645996%)" offset="0.6875"/><stop stop-opacity="1" stop-color="rgb(17.237854%, 31.404114%, 99.620056%)" offset="0.691406"/><stop stop-opacity="1" stop-color="rgb(17.483521%, 31.924438%, 99.594116%)" offset="0.695312"/><stop stop-opacity="1" stop-color="rgb(17.727661%, 32.443237%, 99.56665%)" offset="0.699219"/><stop stop-opacity="1" stop-color="rgb(17.973328%, 32.963562%, 99.54071%)" offset="0.703125"/><stop stop-opacity="1" stop-color="rgb(18.218994%, 33.482361%, 99.514771%)" offset="0.707031"/><stop stop-opacity="1" stop-color="rgb(18.464661%, 34.002686%, 99.488831%)" offset="0.710937"/><stop stop-opacity="1" stop-color="rgb(18.708801%, 34.521484%, 99.462891%)" offset="0.714844"/><stop stop-opacity="1" stop-color="rgb(18.954468%, 35.041809%, 99.436951%)" offset="0.71875"/><stop stop-opacity="1" stop-color="rgb(19.198608%, 35.562134%, 99.409485%)" offset="0.722656"/><stop stop-opacity="1" stop-color="rgb(19.444275%, 36.082458%, 99.383545%)" offset="0.726562"/><stop stop-opacity="1" stop-color="rgb(19.688416%, 36.601257%, 99.357605%)" offset="0.730469"/><stop stop-opacity="1" stop-color="rgb(19.934082%, 37.121582%, 99.331665%)" offset="0.734375"/><stop stop-opacity="1" stop-color="rgb(20.179749%, 37.640381%, 99.304199%)" offset="0.738281"/><stop stop-opacity="1" stop-color="rgb(20.425415%, 38.160706%, 99.278259%)" offset="0.742187"/><stop stop-opacity="1" stop-color="rgb(20.669556%, 38.679504%, 99.252319%)" offset="0.746094"/><stop stop-opacity="1" stop-color="rgb(20.915222%, 39.199829%, 99.226379%)" offset="0.75"/><stop stop-opacity="1" stop-color="rgb(21.159363%, 39.720154%, 99.198914%)" offset="0.753906"/><stop stop-opacity="1" stop-color="rgb(21.405029%, 40.240479%, 99.172974%)" offset="0.757812"/><stop stop-opacity="1" stop-color="rgb(21.64917%, 40.759277%, 99.147034%)" offset="0.761719"/><stop stop-opacity="1" stop-color="rgb(21.894836%, 41.279602%, 99.121094%)" offset="0.765625"/><stop stop-opacity="1" stop-color="rgb(22.140503%, 41.798401%, 99.095154%)" offset="0.769531"/><stop stop-opacity="1" stop-color="rgb(22.386169%, 42.318726%, 99.069214%)" offset="0.773438"/><stop stop-opacity="1" stop-color="rgb(22.63031%, 42.837524%, 99.041748%)" offset="0.777344"/><stop stop-opacity="1" stop-color="rgb(22.875977%, 43.357849%, 99.015808%)" offset="0.78125"/><stop stop-opacity="1" stop-color="rgb(23.120117%, 43.876648%, 98.989868%)" offset="0.785156"/><stop stop-opacity="1" stop-color="rgb(23.365784%, 44.396973%, 98.963928%)" offset="0.789062"/><stop stop-opacity="1" stop-color="rgb(23.609924%, 44.917297%, 98.936462%)" offset="0.792969"/><stop stop-opacity="1" stop-color="rgb(23.855591%, 45.437622%, 98.910522%)" offset="0.796875"/><stop stop-opacity="1" stop-color="rgb(24.101257%, 45.956421%, 98.884583%)" offset="0.800781"/><stop stop-opacity="1" stop-color="rgb(24.346924%, 46.476746%, 98.858643%)" offset="0.804688"/><stop stop-opacity="1" stop-color="rgb(24.591064%, 46.995544%, 98.831177%)" offset="0.808594"/><stop stop-opacity="1" stop-color="rgb(24.836731%, 47.515869%, 98.805237%)" offset="0.8125"/><stop stop-opacity="1" stop-color="rgb(25.080872%, 48.034668%, 98.779297%)" offset="0.816406"/><stop stop-opacity="1" stop-color="rgb(25.326538%, 48.554993%, 98.753357%)" offset="0.820312"/><stop stop-opacity="1" stop-color="rgb(25.570679%, 49.075317%, 98.727417%)" offset="0.824219"/><stop stop-opacity="1" stop-color="rgb(25.816345%, 49.595642%, 98.701477%)" offset="0.828125"/><stop stop-opacity="1" stop-color="rgb(26.062012%, 50.114441%, 98.674011%)" offset="0.832031"/><stop stop-opacity="1" stop-color="rgb(26.307678%, 50.634766%, 98.648071%)" offset="0.835938"/><stop stop-opacity="1" stop-color="rgb(26.551819%, 51.153564%, 98.622131%)" offset="0.839844"/><stop stop-opacity="1" stop-color="rgb(26.797485%, 51.673889%, 98.596191%)" offset="0.84375"/><stop stop-opacity="1" stop-color="rgb(27.041626%, 52.192688%, 98.568726%)" offset="0.847656"/><stop stop-opacity="1" stop-color="rgb(27.287292%, 52.713013%, 98.542786%)" offset="0.851562"/><stop stop-opacity="1" stop-color="rgb(27.531433%, 53.233337%, 98.516846%)" offset="0.855469"/><stop stop-opacity="1" stop-color="rgb(27.7771%, 53.753662%, 98.490906%)" offset="0.859375"/><stop stop-opacity="1" stop-color="rgb(28.022766%, 54.272461%, 98.464966%)" offset="0.863281"/><stop stop-opacity="1" stop-color="rgb(28.268433%, 54.792786%, 98.439026%)" offset="0.867188"/><stop stop-opacity="1" stop-color="rgb(28.512573%, 55.311584%, 98.41156%)" offset="0.871094"/><stop stop-opacity="1" stop-color="rgb(28.75824%, 55.831909%, 98.38562%)" offset="0.875"/><stop stop-opacity="1" stop-color="rgb(29.00238%, 56.350708%, 98.35968%)" offset="0.878906"/><stop stop-opacity="1" stop-color="rgb(29.248047%, 56.871033%, 98.33374%)" offset="0.882812"/><stop stop-opacity="1" stop-color="rgb(29.492188%, 57.391357%, 98.306274%)" offset="0.886719"/><stop stop-opacity="1" stop-color="rgb(29.737854%, 57.911682%, 98.280334%)" offset="0.890625"/><stop stop-opacity="1" stop-color="rgb(29.983521%, 58.430481%, 98.254395%)" offset="0.894531"/><stop stop-opacity="1" stop-color="rgb(30.229187%, 58.950806%, 98.228455%)" offset="0.898438"/><stop stop-opacity="1" stop-color="rgb(30.473328%, 59.469604%, 98.200989%)" offset="0.902344"/><stop stop-opacity="1" stop-color="rgb(30.718994%, 59.989929%, 98.175049%)" offset="0.90625"/><stop stop-opacity="1" stop-color="rgb(30.963135%, 60.508728%, 98.149109%)" offset="0.910156"/><stop stop-opacity="1" stop-color="rgb(31.208801%, 61.029053%, 98.123169%)" offset="0.914062"/><stop stop-opacity="1" stop-color="rgb(31.452942%, 61.547852%, 98.097229%)" offset="0.917969"/><stop stop-opacity="1" stop-color="rgb(31.698608%, 62.068176%, 98.071289%)" offset="0.921875"/><stop stop-opacity="1" stop-color="rgb(31.944275%, 62.588501%, 98.043823%)" offset="0.925781"/><stop stop-opacity="1" stop-color="rgb(32.189941%, 63.108826%, 98.017883%)" offset="0.929688"/><stop stop-opacity="1" stop-color="rgb(32.434082%, 63.627625%, 97.991943%)" offset="0.933594"/><stop stop-opacity="1" stop-color="rgb(32.679749%, 64.147949%, 97.966003%)" offset="0.9375"/><stop stop-opacity="1" stop-color="rgb(32.923889%, 64.666748%, 97.938538%)" offset="0.941406"/><stop stop-opacity="1" stop-color="rgb(33.169556%, 65.187073%, 97.912598%)" offset="0.945312"/><stop stop-opacity="1" stop-color="rgb(33.413696%, 65.705872%, 97.886658%)" offset="0.949219"/><stop stop-opacity="1" stop-color="rgb(33.659363%, 66.226196%, 97.860718%)" offset="0.953125"/><stop stop-opacity="1" stop-color="rgb(33.905029%, 66.746521%, 97.833252%)" offset="0.957031"/><stop stop-opacity="1" stop-color="rgb(34.150696%, 67.266846%, 97.807312%)" offset="0.960938"/><stop stop-opacity="1" stop-color="rgb(34.394836%, 67.785645%, 97.781372%)" offset="0.964844"/><stop stop-opacity="1" stop-color="rgb(34.640503%, 68.305969%, 97.755432%)" offset="0.96875"/><stop stop-opacity="1" stop-color="rgb(34.884644%, 68.824768%, 97.729492%)" offset="0.972656"/><stop stop-opacity="1" stop-color="rgb(35.13031%, 69.345093%, 97.703552%)" offset="0.976562"/><stop stop-opacity="1" stop-color="rgb(35.374451%, 69.863892%, 97.676086%)" offset="0.980469"/><stop stop-opacity="1" stop-color="rgb(35.620117%, 70.384216%, 97.650146%)" offset="0.984375"/><stop stop-opacity="1" stop-color="rgb(35.85968%, 70.890808%, 97.624207%)" offset="0.988281"/><stop stop-opacity="1" stop-color="rgb(36.099243%, 71.398926%, 97.599792%)" offset="0.992188"/><stop stop-opacity="1" stop-color="rgb(36.099243%, 71.398926%, 97.599792%)" offset="1"/></linearGradient><clipPath id="2047337678"><path d="M 271.867188 587.101562 L 538.117188 587.101562 L 538.117188 853.351562 L 271.867188 853.351562 Z M 271.867188 587.101562 " clip-rule="nonzero"/></clipPath></defs><g clip-path="url(#62b78d4d7b)"><g clip-path="url(#94eb847057)"><path fill="url(#c849677e99)" d="M 593.324219 531.824219 L 216.824219 531.824219 L 216.824219 908.324219 L 593.324219 908.324219 Z M 593.324219 531.824219 " fill-rule="nonzero"/></g></g><g clip-path="url(#2047337678)"><path fill="#ffffff" d="M 404.992188 844.476562 C 336.46875 844.476562 280.742188 788.75 280.742188 720.226562 C 280.742188 651.707031 336.46875 595.976562 404.992188 595.976562 C 473.511719 595.976562 529.242188 651.707031 529.242188 720.226562 C 529.242188 788.75 473.511719 844.476562 404.992188 844.476562 Z M 404.992188 587.101562 C 331.582031 587.101562 271.867188 646.816406 271.867188 720.226562 C 271.867188 793.636719 331.582031 853.351562 404.992188 853.351562 C 478.402344 853.351562 538.117188 793.636719 538.117188 720.226562 C 538.117188 646.816406 478.402344 587.101562 404.992188 587.101562 " fill-opacity="1" fill-rule="nonzero"/></g><path fill="#ffffff" d="M 440.371094 715.789062 C 440.058594 706.273438 438.722656 697.382812 436.574219 689.460938 C 441.425781 688.074219 445.953125 686.355469 450.078125 684.347656 C 457.078125 693.117188 461.550781 703.949219 462.453125 715.789062 Z M 409.429688 684.625 L 409.429688 663.476562 C 415.289062 665.816406 420.972656 672.679688 425.132812 682.960938 C 420.105469 683.859375 414.835938 684.414062 409.429688 684.625 Z M 409.429688 715.789062 L 409.429688 693.480469 C 415.878906 693.273438 422.101562 692.578125 427.992188 691.453125 C 429.933594 698.523438 431.183594 706.742188 431.496094 715.789062 Z M 409.429688 746.972656 L 409.429688 724.664062 L 431.496094 724.664062 C 431.183594 733.714844 429.933594 741.929688 427.992188 749 C 422.101562 747.875 415.878906 747.179688 409.429688 746.972656 Z M 409.429688 755.832031 C 414.835938 756.039062 420.105469 756.59375 425.132812 757.496094 C 420.972656 767.773438 415.289062 774.636719 409.429688 776.980469 Z M 400.554688 755.832031 L 400.554688 776.980469 C 394.695312 774.636719 389.007812 767.773438 384.847656 757.496094 C 389.875 756.59375 395.144531 756.039062 400.554688 755.832031 Z M 400.554688 724.664062 L 400.554688 746.972656 C 394.105469 747.179688 387.882812 747.875 381.988281 749 C 380.046875 741.929688 378.800781 733.714844 378.488281 724.664062 Z M 400.554688 693.480469 L 400.554688 715.789062 L 378.488281 715.789062 C 378.800781 706.742188 380.046875 698.523438 381.988281 691.453125 C 387.882812 692.578125 394.105469 693.273438 400.554688 693.480469 Z M 400.554688 684.625 C 395.144531 684.414062 389.875 683.859375 384.847656 682.960938 C 389.007812 672.679688 394.695312 665.816406 400.554688 663.476562 Z M 430.871094 668.746094 C 432.207031 669.402344 433.488281 670.148438 434.769531 670.910156 C 435.015625 671.050781 435.273438 671.207031 435.515625 671.363281 C 436.765625 672.160156 438.011719 672.992188 439.207031 673.894531 C 439.433594 674.066406 439.675781 674.238281 439.902344 674.414062 C 441.097656 675.332031 442.257812 676.269531 443.367188 677.289062 C 443.472656 677.378906 443.578125 677.464844 443.679688 677.566406 C 440.628906 678.867188 437.300781 680.011719 433.800781 680.984375 C 431.703125 675.488281 429.15625 670.6875 426.242188 666.664062 C 427.542969 667.183594 428.808594 667.738281 430.054688 668.347656 C 430.332031 668.484375 430.609375 668.605469 430.871094 668.746094 Z M 366.613281 677.289062 C 367.722656 676.269531 368.882812 675.332031 370.082031 674.414062 C 370.304688 674.238281 370.546875 674.066406 370.773438 673.894531 C 371.96875 672.992188 373.21875 672.160156 374.464844 671.363281 C 374.707031 671.207031 374.96875 671.050781 375.210938 670.910156 C 376.496094 670.148438 377.777344 669.402344 379.113281 668.746094 C 379.371094 668.605469 379.648438 668.484375 379.925781 668.347656 C 381.175781 667.738281 382.441406 667.183594 383.738281 666.664062 C 380.828125 670.6875 378.28125 675.488281 376.183594 680.984375 C 372.679688 680.011719 369.351562 678.867188 366.300781 677.566406 C 366.40625 677.464844 366.511719 677.378906 366.613281 677.289062 Z M 359.90625 684.347656 C 364.03125 686.355469 368.554688 688.074219 373.410156 689.460938 C 371.257812 697.382812 369.925781 706.273438 369.613281 715.789062 L 347.527344 715.789062 C 348.429688 703.949219 352.902344 693.117188 359.90625 684.347656 Z M 347.527344 724.664062 L 369.613281 724.664062 C 369.925781 734.179688 371.257812 743.074219 373.410156 750.996094 C 368.554688 752.382812 364.03125 754.097656 359.90625 756.109375 C 352.902344 747.335938 348.429688 736.503906 347.527344 724.664062 Z M 379.113281 771.710938 C 377.777344 771.050781 376.496094 770.304688 375.210938 769.542969 C 374.96875 769.386719 374.707031 769.246094 374.464844 769.089844 C 373.21875 768.292969 371.96875 767.460938 370.773438 766.5625 C 370.53125 766.386719 370.304688 766.214844 370.082031 766.039062 C 368.882812 765.121094 367.722656 764.1875 366.613281 763.164062 C 366.511719 763.078125 366.40625 762.988281 366.300781 762.886719 C 369.351562 761.585938 372.679688 760.441406 376.183594 759.472656 C 378.28125 764.964844 380.828125 769.769531 383.738281 773.789062 C 382.441406 773.269531 381.175781 772.714844 379.925781 772.109375 C 379.648438 771.96875 379.371094 771.847656 379.113281 771.710938 Z M 443.367188 763.164062 C 442.257812 764.1875 441.097656 765.121094 439.902344 766.039062 C 439.675781 766.214844 439.453125 766.386719 439.207031 766.5625 C 438.011719 767.460938 436.765625 768.292969 435.515625 769.089844 C 435.273438 769.246094 435.015625 769.386719 434.769531 769.542969 C 433.488281 770.304688 432.207031 771.050781 430.871094 771.710938 C 430.609375 771.847656 430.332031 771.96875 430.054688 772.109375 C 428.808594 772.714844 427.542969 773.269531 426.242188 773.789062 C 429.15625 769.769531 431.703125 764.964844 433.800781 759.472656 C 437.300781 760.441406 440.628906 761.585938 443.679688 762.886719 C 443.578125 762.988281 443.472656 763.078125 443.367188 763.164062 Z M 450.078125 756.109375 C 445.953125 754.097656 441.425781 752.382812 436.574219 750.996094 C 438.722656 743.074219 440.058594 734.179688 440.371094 724.664062 L 462.453125 724.664062 C 461.550781 736.503906 457.078125 747.335938 450.078125 756.109375 Z M 454.566406 675.972656 C 454.550781 675.9375 454.53125 675.886719 454.496094 675.851562 C 454.339844 675.660156 454.152344 675.503906 453.996094 675.332031 C 452.730469 673.945312 451.410156 672.628906 450.023438 671.34375 C 449.695312 671.050781 449.367188 670.738281 449.035156 670.445312 C 447.617188 669.214844 446.160156 668.015625 444.632812 666.890625 C 444.339844 666.648438 444.027344 666.421875 443.714844 666.195312 C 442.101562 665.035156 440.4375 663.960938 438.722656 662.957031 C 438.496094 662.800781 438.273438 662.660156 438.03125 662.523438 C 436.191406 661.464844 434.285156 660.496094 432.328125 659.609375 C 432.222656 659.558594 432.101562 659.488281 431.980469 659.4375 C 429.917969 658.519531 427.820312 657.703125 425.652344 656.992188 C 425.636719 656.976562 425.617188 656.976562 425.585938 656.957031 C 423.417969 656.265625 421.199219 655.640625 418.929688 655.15625 C 418.929688 655.15625 418.910156 655.15625 418.894531 655.15625 C 416.726562 654.6875 414.542969 654.339844 412.304688 654.082031 C 412.203125 654.082031 412.082031 654.046875 411.976562 654.046875 C 409.6875 653.804688 407.347656 653.664062 404.992188 653.664062 C 402.632812 653.664062 400.292969 653.804688 398.003906 654.046875 C 397.902344 654.046875 397.78125 654.082031 397.675781 654.082031 C 395.441406 654.339844 393.257812 654.6875 391.089844 655.15625 C 391.070312 655.15625 391.054688 655.15625 391.054688 655.15625 C 388.785156 655.640625 386.566406 656.265625 384.398438 656.957031 C 384.363281 656.976562 384.347656 656.976562 384.328125 656.992188 C 382.164062 657.703125 380.066406 658.519531 378.003906 659.4375 C 377.882812 659.488281 377.757812 659.558594 377.636719 659.609375 C 375.695312 660.496094 373.789062 661.464844 371.953125 662.523438 C 371.710938 662.660156 371.484375 662.800781 371.257812 662.957031 C 369.542969 663.960938 367.878906 665.035156 366.265625 666.195312 C 365.957031 666.421875 365.644531 666.648438 365.347656 666.890625 C 363.824219 668.015625 362.367188 669.214844 360.945312 670.445312 C 360.617188 670.738281 360.285156 671.050781 359.957031 671.34375 C 358.570312 672.628906 357.253906 673.945312 355.988281 675.332031 C 355.832031 675.503906 355.640625 675.660156 355.484375 675.851562 C 355.449219 675.886719 355.433594 675.9375 355.417969 675.972656 C 344.894531 687.742188 338.429688 703.222656 338.429688 720.226562 C 338.429688 737.230469 344.894531 752.710938 355.417969 764.480469 C 355.433594 764.515625 355.449219 764.566406 355.484375 764.601562 C 355.640625 764.792969 355.832031 764.949219 355.988281 765.121094 C 357.253906 766.507812 358.570312 767.828125 359.957031 769.109375 C 360.285156 769.402344 360.617188 769.714844 360.945312 770.011719 C 362.367188 771.242188 363.824219 772.4375 365.347656 773.5625 C 365.644531 773.804688 365.957031 774.03125 366.265625 774.257812 C 367.878906 775.417969 369.542969 776.492188 371.257812 777.5 C 371.484375 777.65625 371.710938 777.792969 371.953125 777.933594 C 373.789062 778.988281 375.695312 779.960938 377.636719 780.84375 C 377.757812 780.894531 377.882812 780.964844 378.003906 781.015625 C 380.066406 781.9375 382.164062 782.75 384.328125 783.460938 C 384.347656 783.480469 384.363281 783.480469 384.398438 783.496094 C 386.566406 784.191406 388.785156 784.8125 391.054688 785.300781 C 391.054688 785.300781 391.070312 785.300781 391.089844 785.300781 C 393.257812 785.765625 395.441406 786.113281 397.675781 786.375 C 397.78125 786.375 397.902344 786.410156 398.003906 786.410156 C 400.292969 786.652344 402.632812 786.789062 404.992188 786.789062 C 407.347656 786.789062 409.6875 786.652344 411.976562 786.410156 C 412.082031 786.410156 412.203125 786.375 412.304688 786.375 C 414.542969 786.113281 416.726562 785.765625 418.894531 785.300781 C 418.910156 785.300781 418.929688 785.300781 418.929688 785.300781 C 421.199219 784.8125 423.417969 784.191406 425.585938 783.496094 C 425.617188 783.480469 425.636719 783.480469 425.652344 783.460938 C 427.820312 782.75 429.917969 781.9375 431.980469 781.015625 C 432.101562 780.964844 432.222656 780.894531 432.34375 780.84375 C 434.285156 779.960938 436.191406 778.988281 438.03125 777.933594 C 438.273438 777.792969 438.496094 777.65625 438.722656 777.5 C 440.4375 776.492188 442.101562 775.417969 443.714844 774.257812 C 444.027344 774.03125 444.339844 773.804688 444.632812 773.5625 C 446.160156 772.4375 447.617188 771.242188 449.035156 770.011719 C 449.367188 769.714844 449.695312 769.402344 450.023438 769.109375 C 451.410156 767.828125 452.730469 766.507812 453.996094 765.121094 C 454.152344 764.949219 454.339844 764.792969 454.496094 764.601562 C 454.53125 764.566406 454.550781 764.515625 454.566406 764.480469 C 465.089844 752.710938 471.554688 737.230469 471.554688 720.226562 C 471.554688 703.222656 465.089844 687.742188 454.566406 675.972656 " fill-opacity="1" fill-rule="nonzero"/></svg>