<svg xmlns="http://www.w3.org/2000/svg" xmlns:xlink="http://www.w3.org/1999/xlink" width="90" zoomAndPan="magnify" viewBox="0 0 67.5 30.000001" height="40" preserveAspectRatio="xMidYMid meet" version="1.0"><defs><g/><clipPath id="431ff62656"><path d="M 0.847656 0 L 66.167969 0 L 66.167969 29.03125 L 0.847656 29.03125 Z M 0.847656 0 " clip-rule="nonzero"/></clipPath><clipPath id="8cf4918d27"><path d="M 30 10 L 41 10 L 41 14.3125 L 30 14.3125 Z M 30 10 " clip-rule="nonzero"/></clipPath><clipPath id="f97a65b66e"><path d="M 26 4.074219 L 44.734375 4.074219 L 44.734375 12 L 26 12 Z M 26 4.074219 " clip-rule="nonzero"/></clipPath><clipPath id="f1c0257b5b"><path d="M 41 6 L 44.734375 6 L 44.734375 11 L 41 11 Z M 41 6 " clip-rule="nonzero"/></clipPath><clipPath id="4b69b878a7"><path d="M 30 11 L 41 11 L 41 14.3125 L 30 14.3125 Z M 30 11 " clip-rule="nonzero"/></clipPath><clipPath id="61ea210848"><path d="M 35 4.074219 L 40 4.074219 L 40 6 L 35 6 Z M 35 4.074219 " clip-rule="nonzero"/></clipPath><clipPath id="76f362bc8a"><path d="M 30 4.074219 L 36 4.074219 L 36 8 L 30 8 Z M 30 4.074219 " clip-rule="nonzero"/></clipPath><clipPath id="90a3f10069"><path d="M 25.722656 7 L 31 7 L 31 12 L 25.722656 12 Z M 25.722656 7 " clip-rule="nonzero"/></clipPath><clipPath id="a3020d9493"><path d="M 0.847656 15 L 35 15 L 35 25 L 0.847656 25 Z M 0.847656 15 " clip-rule="nonzero"/></clipPath></defs><g clip-path="url(#431ff62656)"><path fill="#ffffff" d="M 0.847656 0 L 66.652344 0 L 66.652344 36.558594 L 0.847656 36.558594 Z M 0.847656 0 " fill-opacity="1" fill-rule="nonzero"/><path fill="#ffffff" d="M 0.847656 0 L 66.652344 0 L 66.652344 29.246094 L 0.847656 29.246094 Z M 0.847656 0 " fill-opacity="1" fill-rule="nonzero"/><path fill="#ffffff" d="M 0.847656 0 L 66.652344 0 L 66.652344 29.246094 L 0.847656 29.246094 Z M 0.847656 0 " fill-opacity="1" fill-rule="nonzero"/></g><path fill="#ffffff" d="M 30.339844 12.875 C 30.367188 13.035156 30.375 13.179688 30.371094 13.3125 C 30.296875 13.382812 29.921875 13.703125 29.285156 13.667969 C 28.835938 13.644531 28.628906 13.460938 28.539062 13.335938 C 29.253906 13.316406 29.960938 13.046875 30.339844 12.875 " fill-opacity="1" fill-rule="nonzero"/><path fill="#ffffff" d="M 30.183594 12.109375 C 30.214844 12.269531 30.257812 12.453125 30.300781 12.660156 C 29.921875 12.832031 29.128906 13.152344 28.371094 13.125 C 27.921875 13.113281 27.488281 12.980469 27.160156 12.628906 C 26.53125 11.957031 26.710938 11.46875 26.789062 11.320312 C 27.171875 11.4375 27.792969 11.554688 28.398438 11.671875 C 29.125 11.8125 30.03125 11.988281 30.175781 12.105469 C 30.179688 12.109375 30.179688 12.109375 30.183594 12.109375 " fill-opacity="1" fill-rule="nonzero"/><g clip-path="url(#8cf4918d27)"><path fill="#ffffff" d="M 40.214844 13.164062 C 40.226562 13.308594 40.238281 13.429688 40.238281 13.527344 C 40.238281 13.878906 40.109375 13.957031 39.496094 14.011719 C 38.566406 14.101562 35.386719 14.046875 33.515625 13.820312 C 32.042969 13.640625 30.9375 13.8125 30.519531 13.898438 C 30.550781 13.777344 30.582031 13.597656 30.589844 13.371094 C 30.589844 13.34375 30.589844 13.316406 30.589844 13.289062 C 30.589844 13.113281 30.574219 12.914062 30.527344 12.699219 C 30.472656 12.425781 30.421875 12.191406 30.378906 12 C 30.324219 11.753906 30.285156 11.582031 30.265625 11.496094 C 30.367188 11.421875 30.644531 11.242188 31.160156 11.066406 C 31.816406 10.839844 32.863281 10.625 34.421875 10.644531 C 34.574219 10.648438 34.730469 10.652344 34.890625 10.65625 C 35.457031 10.679688 35.980469 10.726562 36.457031 10.785156 C 36.984375 10.851562 37.457031 10.933594 37.875 11.023438 C 38.613281 11.179688 39.179688 11.355469 39.5625 11.492188 C 39.835938 11.589844 40.019531 11.667969 40.097656 11.703125 C 40.109375 11.8125 40.203125 12.996094 40.203125 12.996094 L 40.214844 13.164062 " fill-opacity="1" fill-rule="nonzero"/></g><g clip-path="url(#f97a65b66e)"><path fill="#ffffff" d="M 43.554688 6.988281 C 44.214844 7.589844 44.476562 8.5625 44.171875 9.304688 C 43.925781 9.910156 43.355469 10.273438 42.558594 10.335938 C 43.085938 9.839844 43.601562 9.464844 43.574219 9.421875 C 43.542969 9.375 42.832031 9.769531 42.226562 10.359375 C 42.207031 10.367188 42.1875 10.386719 42.179688 10.40625 C 42.167969 10.417969 42.15625 10.429688 42.144531 10.4375 C 41.515625 11.085938 40.496094 11.597656 39.640625 11.285156 C 39.628906 11.28125 39.613281 11.277344 39.597656 11.28125 C 39.304688 11.175781 38.917969 11.054688 38.441406 10.9375 C 38.78125 10.851562 39.097656 10.726562 39.082031 10.703125 C 39.058594 10.671875 38.5 10.832031 38.429688 10.839844 C 38.359375 10.84375 38.523438 10.679688 39.171875 10.46875 C 39.824219 10.257812 40.394531 10.242188 40.976562 10.019531 C 41.554688 9.792969 41.640625 9.445312 41.601562 9.445312 C 41.5625 9.445312 41.054688 9.785156 40.070312 10.085938 C 39.210938 10.347656 38.335938 10.601562 37.957031 10.824219 C 37.632812 10.753906 37.277344 10.6875 36.886719 10.632812 C 37.378906 10.363281 38 9.980469 38.703125 9.417969 C 39.4375 8.820312 39.542969 8.589844 39.507812 8.582031 C 39.46875 8.574219 39.34375 8.738281 39.050781 8.964844 C 38.765625 9.183594 38.335938 9.488281 38.308594 9.503906 C 38.339844 9.464844 39.164062 8.480469 39.953125 7.980469 C 40.757812 7.46875 41.449219 7.347656 41.449219 7.414062 C 41.449219 7.484375 41.433594 7.59375 41.507812 7.59375 C 41.585938 7.59375 41.640625 7.292969 41.523438 7.257812 C 41.410156 7.21875 40.9375 7.277344 40.179688 7.664062 C 39.421875 8.046875 38.714844 8.738281 38.453125 9.109375 C 38.191406 9.476562 37.988281 9.726562 37.5 10.085938 C 37.128906 10.363281 36.78125 10.527344 36.515625 10.582031 C 36.023438 10.519531 35.484375 10.472656 34.898438 10.449219 C 34.832031 10.445312 34.769531 10.441406 34.707031 10.441406 C 34.847656 10.3125 35.007812 10.089844 35.164062 9.746094 C 35.574219 8.859375 35.566406 8.183594 35.542969 8.183594 C 35.519531 8.183594 35.320312 8.890625 34.988281 9.492188 C 34.65625 10.09375 34.4375 10.328125 34.367188 10.320312 C 34.296875 10.3125 34.46875 10.011719 34.429688 9.777344 C 34.425781 9.75 34.234375 10.175781 34.273438 10.433594 C 33.558594 10.429688 32.953125 10.476562 32.441406 10.550781 C 32.285156 10.363281 31.96875 9.921875 31.960938 9.394531 C 31.953125 8.695312 32.449219 8.195312 32.851562 8.152344 C 33.238281 8.109375 33.347656 8.40625 33.425781 8.355469 C 33.503906 8.300781 33.433594 7.894531 32.882812 7.941406 C 32.332031 7.988281 31.824219 8.46875 31.761719 9.347656 C 31.714844 10.003906 31.949219 10.433594 32.070312 10.609375 C 31.730469 10.671875 31.441406 10.746094 31.199219 10.824219 C 30.914062 10.695312 30.25 10.417969 29.726562 10.207031 C 29.039062 9.929688 28.394531 9.566406 28.316406 9.613281 C 28.28125 9.632812 29.007812 10.109375 29.84375 10.507812 C 30.324219 10.738281 30.679688 10.863281 30.894531 10.929688 C 30.328125 11.148438 30.089844 11.359375 30.070312 11.378906 C 30.042969 11.402344 30.03125 11.441406 30.039062 11.480469 C 30.039062 11.480469 30.070312 11.613281 30.125 11.847656 C 29.824219 11.734375 29.25 11.621094 28.4375 11.464844 C 27.832031 11.347656 27.203125 11.226562 26.835938 11.113281 C 26.8125 11.109375 26.789062 11.101562 26.769531 11.09375 C 26.042969 10.847656 25.992188 10.398438 26.15625 9.660156 C 26.324219 8.886719 26.597656 8.113281 27.890625 7.917969 L 28.570312 7.820312 C 29.265625 7.722656 29.8125 7.644531 30.160156 7.496094 C 29.855469 7.996094 29.421875 8.226562 29.449219 8.265625 C 29.480469 8.3125 30.246094 8.011719 30.554688 7.148438 C 30.558594 7.136719 30.5625 7.121094 30.566406 7.109375 L 30.632812 6.882812 C 30.789062 6.34375 30.96875 5.726562 31.515625 5.253906 C 32.195312 4.667969 33.957031 4.074219 35.1875 5.25 C 34.675781 5.914062 34.574219 6.757812 34.613281 6.765625 C 34.660156 6.769531 34.839844 5.921875 35.394531 5.304688 C 35.589844 5.089844 35.828125 4.902344 36.125 4.792969 C 37.207031 4.382812 38.375 4.789062 38.863281 5.183594 C 38.09375 5.394531 37.550781 5.8125 37.578125 5.847656 C 37.605469 5.886719 38.25 5.488281 39.085938 5.332031 C 39.308594 5.292969 39.539062 5.265625 39.777344 5.269531 C 40.863281 5.289062 41.359375 5.828125 41.4375 6.195312 C 40.972656 6.265625 40.660156 6.417969 40.671875 6.441406 C 40.679688 6.464844 41.027344 6.351562 41.515625 6.324219 C 41.53125 6.332031 41.546875 6.335938 41.566406 6.332031 C 41.578125 6.332031 41.59375 6.328125 41.605469 6.320312 C 42.179688 6.304688 42.925781 6.417969 43.554688 6.988281 " fill-opacity="1" fill-rule="nonzero"/></g><path fill="#000000" d="M 42.558594 10.335938 C 42.480469 10.40625 42.40625 10.480469 42.332031 10.558594 C 42.3125 10.558594 42.292969 10.558594 42.273438 10.558594 C 42.214844 10.558594 42.167969 10.511719 42.167969 10.453125 C 42.167969 10.4375 42.171875 10.421875 42.179688 10.40625 C 42.195312 10.390625 42.210938 10.375 42.226562 10.359375 C 42.242188 10.351562 42.257812 10.347656 42.277344 10.347656 C 42.371094 10.347656 42.464844 10.34375 42.558594 10.335938 " fill-opacity="1" fill-rule="nonzero"/><path fill="#000000" d="M 42.226562 10.359375 C 42.832031 9.769531 43.542969 9.375 43.574219 9.421875 C 43.601562 9.464844 43.085938 9.839844 42.558594 10.335938 C 42.464844 10.34375 42.371094 10.347656 42.277344 10.347656 C 42.257812 10.347656 42.242188 10.351562 42.226562 10.359375 " fill-opacity="1" fill-rule="nonzero"/><path fill="#000000" d="M 42.226562 10.359375 C 42.210938 10.375 42.195312 10.390625 42.179688 10.40625 C 42.1875 10.386719 42.207031 10.367188 42.226562 10.359375 " fill-opacity="1" fill-rule="nonzero"/><g clip-path="url(#f1c0257b5b)"><path fill="#000000" d="M 43.554688 6.988281 C 42.925781 6.417969 42.179688 6.304688 41.605469 6.320312 C 41.644531 6.300781 41.667969 6.261719 41.660156 6.214844 C 41.660156 6.203125 41.65625 6.1875 41.65625 6.171875 C 42.253906 6.121094 43.03125 6.226562 43.703125 6.832031 C 44.4375 7.503906 44.714844 8.550781 44.375 9.382812 C 44.195312 9.816406 43.695312 10.542969 42.332031 10.558594 C 42.40625 10.480469 42.480469 10.40625 42.558594 10.335938 C 43.355469 10.273438 43.925781 9.910156 44.171875 9.304688 C 44.476562 8.5625 44.214844 7.589844 43.554688 6.988281 " fill-opacity="1" fill-rule="nonzero"/></g><path fill="#000000" d="M 41.660156 6.214844 C 41.667969 6.261719 41.644531 6.300781 41.605469 6.320312 C 41.574219 6.324219 41.542969 6.324219 41.515625 6.324219 C 41.480469 6.3125 41.449219 6.28125 41.445312 6.242188 C 41.445312 6.226562 41.441406 6.210938 41.4375 6.195312 C 41.507812 6.1875 41.578125 6.175781 41.65625 6.171875 C 41.65625 6.1875 41.660156 6.203125 41.660156 6.214844 " fill-opacity="1" fill-rule="nonzero"/><path fill="#000000" d="M 41.605469 6.320312 C 41.59375 6.328125 41.578125 6.332031 41.566406 6.332031 C 41.546875 6.335938 41.53125 6.332031 41.515625 6.324219 C 41.542969 6.324219 41.574219 6.324219 41.605469 6.320312 " fill-opacity="1" fill-rule="nonzero"/><path fill="#000000" d="M 41.445312 6.242188 C 41.449219 6.28125 41.480469 6.3125 41.515625 6.324219 C 41.027344 6.351562 40.679688 6.464844 40.671875 6.441406 C 40.660156 6.417969 40.972656 6.265625 41.4375 6.195312 C 41.441406 6.210938 41.445312 6.226562 41.445312 6.242188 " fill-opacity="1" fill-rule="nonzero"/><path fill="#000000" d="M 40.300781 11.589844 C 40.054688 11.601562 39.808594 11.570312 39.566406 11.484375 C 39.511719 11.464844 39.480469 11.402344 39.503906 11.347656 C 39.519531 11.308594 39.554688 11.28125 39.597656 11.28125 C 40.023438 11.429688 40.246094 11.539062 40.25 11.542969 C 40.273438 11.554688 40.289062 11.570312 40.300781 11.589844 " fill-opacity="1" fill-rule="nonzero"/><g clip-path="url(#4b69b878a7)"><path fill="#000000" d="M 39.566406 11.484375 C 39.808594 11.570312 40.054688 11.601562 40.300781 11.589844 C 40.304688 11.601562 40.308594 11.613281 40.308594 11.628906 L 40.417969 12.984375 L 40.433594 13.144531 C 40.492188 13.894531 40.46875 14.132812 39.515625 14.222656 C 38.578125 14.3125 35.375 14.257812 33.488281 14.027344 C 31.675781 13.808594 30.402344 14.140625 30.390625 14.144531 C 30.351562 14.15625 30.308594 14.144531 30.28125 14.113281 C 30.253906 14.085938 30.246094 14.042969 30.261719 14.003906 C 30.261719 14 30.320312 13.847656 30.351562 13.59375 C 30.472656 13.515625 30.535156 13.449219 30.542969 13.441406 C 30.5625 13.421875 30.570312 13.398438 30.570312 13.371094 L 30.589844 13.371094 C 30.582031 13.597656 30.550781 13.777344 30.519531 13.898438 C 30.9375 13.8125 32.042969 13.640625 33.515625 13.820312 C 35.386719 14.046875 38.566406 14.101562 39.496094 14.011719 C 40.109375 13.957031 40.238281 13.878906 40.238281 13.527344 C 40.238281 13.429688 40.226562 13.308594 40.214844 13.164062 L 40.203125 12.996094 C 40.203125 12.996094 40.109375 11.8125 40.097656 11.703125 C 40.019531 11.667969 39.835938 11.589844 39.5625 11.492188 L 39.566406 11.484375 " fill-opacity="1" fill-rule="nonzero"/></g><path fill="#000000" d="M 42.300781 10.585938 C 41.824219 11.074219 41.074219 11.550781 40.300781 11.589844 C 40.289062 11.570312 40.273438 11.554688 40.25 11.542969 C 40.246094 11.539062 40.023438 11.429688 39.597656 11.28125 C 39.613281 11.277344 39.628906 11.28125 39.640625 11.285156 C 40.496094 11.597656 41.515625 11.085938 42.144531 10.4375 C 42.15625 10.429688 42.167969 10.417969 42.179688 10.40625 C 42.171875 10.421875 42.167969 10.4375 42.167969 10.453125 C 42.167969 10.511719 42.214844 10.558594 42.273438 10.558594 C 42.292969 10.558594 42.3125 10.558594 42.332031 10.558594 C 42.320312 10.566406 42.3125 10.574219 42.300781 10.585938 " fill-opacity="1" fill-rule="nonzero"/><path fill="#000000" d="M 39.148438 5.15625 C 39.1875 5.199219 39.183594 5.265625 39.140625 5.304688 C 39.125 5.316406 39.105469 5.324219 39.085938 5.328125 C 39.050781 5.335938 39.011719 5.324219 38.988281 5.296875 C 38.953125 5.257812 38.910156 5.21875 38.863281 5.183594 C 38.945312 5.160156 39.03125 5.140625 39.117188 5.121094 C 39.128906 5.132812 39.136719 5.144531 39.148438 5.15625 " fill-opacity="1" fill-rule="nonzero"/><path fill="#000000" d="M 39.140625 5.304688 C 39.183594 5.265625 39.1875 5.199219 39.148438 5.15625 C 39.136719 5.144531 39.128906 5.132812 39.117188 5.121094 C 39.328125 5.082031 39.550781 5.054688 39.78125 5.058594 C 41.015625 5.082031 41.566406 5.71875 41.65625 6.171875 C 41.578125 6.175781 41.507812 6.1875 41.4375 6.195312 C 41.359375 5.828125 40.863281 5.289062 39.777344 5.269531 C 39.539062 5.265625 39.308594 5.292969 39.085938 5.332031 L 39.085938 5.328125 C 39.105469 5.324219 39.125 5.316406 39.140625 5.304688 " fill-opacity="1" fill-rule="nonzero"/><path fill="#000000" d="M 38.988281 5.296875 C 39.011719 5.324219 39.050781 5.335938 39.085938 5.328125 L 39.085938 5.332031 C 38.25 5.488281 37.605469 5.886719 37.578125 5.847656 C 37.550781 5.8125 38.09375 5.394531 38.863281 5.183594 C 38.910156 5.21875 38.953125 5.257812 38.988281 5.296875 " fill-opacity="1" fill-rule="nonzero"/><path fill="#000000" d="M 37.957031 10.824219 C 38.128906 10.863281 38.289062 10.898438 38.441406 10.9375 C 38.34375 10.960938 38.246094 10.984375 38.152344 10.996094 C 38.007812 11.015625 37.925781 11.015625 37.878906 11.003906 C 37.785156 10.980469 37.828125 10.921875 37.828125 10.921875 C 37.859375 10.890625 37.902344 10.859375 37.957031 10.824219 " fill-opacity="1" fill-rule="nonzero"/><path fill="#000000" d="M 40.070312 10.085938 C 41.054688 9.785156 41.5625 9.445312 41.601562 9.445312 C 41.640625 9.445312 41.554688 9.792969 40.976562 10.019531 C 40.394531 10.242188 39.824219 10.257812 39.171875 10.46875 C 38.523438 10.679688 38.359375 10.84375 38.429688 10.839844 C 38.5 10.832031 39.058594 10.671875 39.082031 10.703125 C 39.097656 10.726562 38.78125 10.851562 38.441406 10.9375 C 38.289062 10.898438 38.128906 10.863281 37.957031 10.824219 C 38.335938 10.601562 39.210938 10.347656 40.070312 10.085938 " fill-opacity="1" fill-rule="nonzero"/><path fill="#000000" d="M 39.503906 11.347656 C 39.480469 11.402344 39.511719 11.464844 39.566406 11.484375 L 39.5625 11.492188 C 39.179688 11.355469 38.613281 11.179688 37.875 11.023438 L 37.878906 11.003906 C 37.925781 11.015625 38.007812 11.015625 38.152344 10.996094 C 38.246094 10.984375 38.34375 10.960938 38.441406 10.9375 C 38.917969 11.054688 39.304688 11.175781 39.597656 11.28125 C 39.554688 11.28125 39.519531 11.308594 39.503906 11.347656 " fill-opacity="1" fill-rule="nonzero"/><path fill="#000000" d="M 41.523438 7.257812 C 41.640625 7.292969 41.585938 7.59375 41.507812 7.59375 C 41.433594 7.59375 41.449219 7.484375 41.449219 7.414062 C 41.449219 7.347656 40.757812 7.46875 39.953125 7.980469 C 39.164062 8.480469 38.339844 9.464844 38.308594 9.503906 C 38.335938 9.488281 38.765625 9.183594 39.050781 8.964844 C 39.34375 8.738281 39.46875 8.574219 39.507812 8.582031 C 39.542969 8.589844 39.4375 8.820312 38.703125 9.417969 C 38 9.980469 37.378906 10.363281 36.886719 10.632812 C 36.769531 10.613281 36.644531 10.597656 36.515625 10.582031 C 36.78125 10.527344 37.128906 10.363281 37.5 10.085938 C 37.988281 9.726562 38.191406 9.476562 38.453125 9.109375 C 38.714844 8.738281 39.421875 8.046875 40.179688 7.664062 C 40.9375 7.277344 41.410156 7.21875 41.523438 7.257812 " fill-opacity="1" fill-rule="nonzero"/><path fill="#000000" d="M 36.886719 10.632812 C 36.863281 10.648438 36.839844 10.660156 36.8125 10.671875 C 36.648438 10.761719 36.535156 10.785156 36.460938 10.777344 C 36.304688 10.757812 36.304688 10.605469 36.304688 10.605469 C 36.367188 10.605469 36.4375 10.597656 36.515625 10.582031 C 36.644531 10.597656 36.769531 10.613281 36.886719 10.632812 " fill-opacity="1" fill-rule="nonzero"/><path fill="#000000" d="M 36.886719 10.632812 C 37.277344 10.6875 37.632812 10.753906 37.957031 10.824219 C 37.902344 10.859375 37.859375 10.890625 37.828125 10.921875 C 37.828125 10.921875 37.785156 10.980469 37.878906 11.003906 L 37.875 11.023438 C 37.457031 10.933594 36.984375 10.851562 36.457031 10.785156 L 36.460938 10.777344 C 36.535156 10.785156 36.648438 10.761719 36.8125 10.671875 C 36.839844 10.660156 36.863281 10.648438 36.886719 10.632812 " fill-opacity="1" fill-rule="nonzero"/><path fill="#000000" d="M 36.304688 10.605469 C 36.304688 10.605469 36.304688 10.757812 36.460938 10.777344 L 36.457031 10.785156 C 35.980469 10.726562 35.457031 10.679688 34.890625 10.65625 C 34.730469 10.652344 34.574219 10.648438 34.421875 10.644531 L 34.425781 10.582031 C 34.5 10.582031 34.597656 10.539062 34.707031 10.441406 C 34.769531 10.441406 34.832031 10.445312 34.898438 10.449219 C 35.484375 10.472656 36.023438 10.519531 36.515625 10.582031 C 36.4375 10.597656 36.367188 10.605469 36.304688 10.605469 " fill-opacity="1" fill-rule="nonzero"/><g clip-path="url(#61ea210848)"><path fill="#000000" d="M 35.378906 5.289062 C 35.421875 5.25 35.421875 5.183594 35.378906 5.140625 C 35.363281 5.125 35.34375 5.105469 35.324219 5.089844 C 35.515625 4.882812 35.753906 4.707031 36.046875 4.59375 C 37.257812 4.136719 38.605469 4.609375 39.117188 5.121094 C 39.03125 5.140625 38.945312 5.160156 38.863281 5.183594 C 38.375 4.789062 37.207031 4.382812 36.125 4.792969 C 35.828125 4.902344 35.589844 5.089844 35.394531 5.304688 L 35.378906 5.289062 " fill-opacity="1" fill-rule="nonzero"/></g><path fill="#000000" d="M 35.1875 5.25 C 35.230469 5.195312 35.273438 5.140625 35.324219 5.089844 C 35.34375 5.105469 35.363281 5.125 35.378906 5.140625 C 35.421875 5.183594 35.421875 5.25 35.378906 5.289062 C 35.335938 5.332031 35.265625 5.332031 35.222656 5.289062 C 35.210938 5.277344 35.199219 5.265625 35.1875 5.25 " fill-opacity="1" fill-rule="nonzero"/><path fill="#000000" d="M 35.222656 5.289062 C 35.265625 5.332031 35.335938 5.332031 35.378906 5.289062 L 35.394531 5.304688 C 34.839844 5.921875 34.660156 6.769531 34.613281 6.765625 C 34.574219 6.757812 34.675781 5.914062 35.1875 5.25 C 35.199219 5.265625 35.210938 5.277344 35.222656 5.289062 " fill-opacity="1" fill-rule="nonzero"/><path fill="#000000" d="M 34.707031 10.441406 C 34.597656 10.539062 34.5 10.582031 34.425781 10.582031 C 34.347656 10.582031 34.292969 10.535156 34.277344 10.453125 C 34.273438 10.449219 34.273438 10.441406 34.273438 10.433594 C 34.414062 10.433594 34.558594 10.4375 34.707031 10.441406 " fill-opacity="1" fill-rule="nonzero"/><path fill="#000000" d="M 34.367188 10.320312 C 34.4375 10.328125 34.65625 10.09375 34.988281 9.492188 C 35.320312 8.890625 35.519531 8.183594 35.542969 8.183594 C 35.566406 8.183594 35.574219 8.859375 35.164062 9.746094 C 35.007812 10.089844 34.847656 10.3125 34.707031 10.441406 C 34.558594 10.4375 34.414062 10.433594 34.273438 10.433594 C 34.234375 10.175781 34.425781 9.75 34.429688 9.777344 C 34.46875 10.011719 34.296875 10.3125 34.367188 10.320312 " fill-opacity="1" fill-rule="nonzero"/><path fill="#000000" d="M 32.882812 7.941406 C 33.433594 7.894531 33.503906 8.300781 33.425781 8.355469 C 33.347656 8.40625 33.238281 8.109375 32.851562 8.152344 C 32.449219 8.195312 31.953125 8.695312 31.960938 9.394531 C 31.96875 9.921875 32.285156 10.363281 32.441406 10.550781 C 32.3125 10.566406 32.1875 10.589844 32.070312 10.609375 C 31.949219 10.433594 31.714844 10.003906 31.761719 9.347656 C 31.824219 8.46875 32.332031 7.988281 32.882812 7.941406 " fill-opacity="1" fill-rule="nonzero"/><path fill="#000000" d="M 32.527344 10.644531 L 32.140625 10.703125 C 32.140625 10.703125 32.109375 10.671875 32.070312 10.609375 C 32.1875 10.589844 32.3125 10.566406 32.441406 10.550781 C 32.492188 10.609375 32.527344 10.644531 32.527344 10.644531 " fill-opacity="1" fill-rule="nonzero"/><path fill="#000000" d="M 31.199219 10.824219 C 31.289062 10.867188 31.339844 10.894531 31.335938 10.898438 C 31.320312 10.921875 31.132812 10.996094 31.132812 10.996094 C 31.132812 10.996094 31.054688 10.980469 30.894531 10.929688 C 30.988281 10.894531 31.089844 10.859375 31.199219 10.824219 " fill-opacity="1" fill-rule="nonzero"/><path fill="#000000" d="M 34.421875 10.644531 C 32.863281 10.625 31.816406 10.839844 31.160156 11.066406 L 31.132812 10.996094 C 31.132812 10.996094 31.320312 10.921875 31.335938 10.898438 C 31.339844 10.894531 31.289062 10.867188 31.199219 10.824219 C 31.441406 10.746094 31.730469 10.671875 32.070312 10.609375 C 32.109375 10.671875 32.140625 10.703125 32.140625 10.703125 L 32.527344 10.644531 C 32.527344 10.644531 32.492188 10.609375 32.441406 10.550781 C 32.953125 10.476562 33.558594 10.429688 34.273438 10.433594 C 34.273438 10.441406 34.273438 10.449219 34.277344 10.453125 C 34.292969 10.535156 34.347656 10.582031 34.425781 10.582031 L 34.421875 10.644531 " fill-opacity="1" fill-rule="nonzero"/><path fill="#000000" d="M 31.199219 10.824219 C 31.089844 10.859375 30.988281 10.894531 30.894531 10.929688 C 30.679688 10.863281 30.324219 10.738281 29.84375 10.507812 C 29.007812 10.109375 28.28125 9.632812 28.316406 9.613281 C 28.394531 9.566406 29.039062 9.929688 29.726562 10.207031 C 30.25 10.417969 30.914062 10.695312 31.199219 10.824219 " fill-opacity="1" fill-rule="nonzero"/><g clip-path="url(#76f362bc8a)"><path fill="#000000" d="M 30.476562 7.011719 C 30.433594 7 30.390625 7.011719 30.363281 7.042969 L 30.425781 6.828125 C 30.589844 6.257812 30.777344 5.609375 31.371094 5.097656 C 31.71875 4.796875 32.371094 4.449219 33.160156 4.371094 C 33.746094 4.316406 34.59375 4.394531 35.324219 5.089844 C 35.273438 5.140625 35.230469 5.195312 35.1875 5.25 C 33.957031 4.074219 32.195312 4.667969 31.515625 5.253906 C 30.96875 5.726562 30.789062 6.34375 30.632812 6.882812 L 30.566406 7.109375 C 30.5625 7.121094 30.558594 7.136719 30.554688 7.148438 L 30.546875 7.144531 C 30.566406 7.089844 30.535156 7.027344 30.476562 7.011719 " fill-opacity="1" fill-rule="nonzero"/></g><path fill="#000000" d="M 30.546875 7.144531 L 30.554688 7.148438 C 30.246094 8.011719 29.480469 8.3125 29.449219 8.265625 C 29.421875 8.226562 29.855469 7.996094 30.160156 7.496094 C 30.363281 7.410156 30.496094 7.300781 30.546875 7.144531 " fill-opacity="1" fill-rule="nonzero"/><path fill="#000000" d="M 30.371094 13.3125 C 30.378906 13.304688 30.382812 13.300781 30.386719 13.300781 C 30.425781 13.257812 30.496094 13.253906 30.539062 13.296875 C 30.5625 13.316406 30.570312 13.34375 30.570312 13.371094 C 30.570312 13.398438 30.5625 13.421875 30.542969 13.441406 C 30.535156 13.449219 30.472656 13.515625 30.351562 13.59375 C 30.363281 13.511719 30.371094 13.417969 30.371094 13.3125 " fill-opacity="1" fill-rule="nonzero"/><path fill="#000000" d="M 30.359375 7.050781 L 30.363281 7.042969 C 30.390625 7.011719 30.433594 7 30.476562 7.011719 C 30.535156 7.027344 30.566406 7.089844 30.546875 7.144531 C 30.496094 7.300781 30.363281 7.410156 30.160156 7.496094 C 30.238281 7.367188 30.308594 7.21875 30.359375 7.050781 " fill-opacity="1" fill-rule="nonzero"/><path fill="#000000" d="M 30.375 12.625 C 30.429688 12.597656 30.492188 12.621094 30.519531 12.671875 C 30.523438 12.679688 30.527344 12.691406 30.527344 12.699219 C 30.539062 12.746094 30.515625 12.792969 30.472656 12.8125 C 30.433594 12.832031 30.390625 12.851562 30.339844 12.875 C 30.332031 12.832031 30.324219 12.785156 30.316406 12.738281 C 30.3125 12.710938 30.304688 12.6875 30.300781 12.660156 C 30.328125 12.648438 30.351562 12.636719 30.375 12.625 " fill-opacity="1" fill-rule="nonzero"/><path fill="#000000" d="M 30.378906 12 C 30.421875 12.191406 30.472656 12.425781 30.527344 12.699219 C 30.527344 12.691406 30.523438 12.679688 30.519531 12.671875 C 30.492188 12.621094 30.429688 12.597656 30.375 12.625 C 30.351562 12.636719 30.328125 12.648438 30.300781 12.660156 C 30.257812 12.453125 30.214844 12.269531 30.183594 12.109375 C 30.226562 12.144531 30.292969 12.136719 30.328125 12.09375 C 30.351562 12.070312 30.359375 12.035156 30.351562 12.003906 L 30.378906 12 " fill-opacity="1" fill-rule="nonzero"/><path fill="#000000" d="M 30.539062 13.296875 C 30.496094 13.253906 30.425781 13.257812 30.386719 13.300781 C 30.382812 13.300781 30.378906 13.304688 30.371094 13.3125 C 30.375 13.179688 30.367188 13.035156 30.339844 12.875 C 30.390625 12.851562 30.433594 12.832031 30.472656 12.8125 C 30.515625 12.792969 30.539062 12.746094 30.527344 12.699219 C 30.574219 12.914062 30.589844 13.113281 30.589844 13.289062 C 30.589844 13.316406 30.589844 13.34375 30.589844 13.371094 L 30.570312 13.371094 C 30.570312 13.34375 30.5625 13.316406 30.539062 13.296875 " fill-opacity="1" fill-rule="nonzero"/><path fill="#000000" d="M 30.265625 11.496094 C 30.285156 11.582031 30.324219 11.753906 30.378906 12 L 30.351562 12.003906 C 30.347656 11.984375 30.335938 11.960938 30.316406 11.949219 C 30.277344 11.914062 30.210938 11.882812 30.125 11.847656 C 30.070312 11.613281 30.039062 11.480469 30.039062 11.480469 C 30.03125 11.441406 30.042969 11.402344 30.070312 11.378906 C 30.089844 11.359375 30.328125 11.148438 30.894531 10.929688 C 31.054688 10.980469 31.132812 10.996094 31.132812 10.996094 L 31.160156 11.066406 C 30.644531 11.242188 30.367188 11.421875 30.265625 11.496094 " fill-opacity="1" fill-rule="nonzero"/><path fill="#000000" d="M 30.371094 13.3125 C 30.371094 13.417969 30.363281 13.511719 30.351562 13.59375 C 30.148438 13.730469 29.78125 13.90625 29.273438 13.878906 C 28.585938 13.839844 28.351562 13.472656 28.285156 13.332031 C 28.371094 13.335938 28.453125 13.339844 28.539062 13.335938 C 28.628906 13.460938 28.835938 13.644531 29.285156 13.667969 C 29.921875 13.703125 30.296875 13.382812 30.371094 13.3125 " fill-opacity="1" fill-rule="nonzero"/><path fill="#000000" d="M 30.351562 12.003906 C 30.359375 12.035156 30.351562 12.070312 30.328125 12.09375 C 30.292969 12.136719 30.226562 12.144531 30.183594 12.109375 C 30.160156 12.011719 30.140625 11.925781 30.125 11.847656 C 30.210938 11.882812 30.277344 11.914062 30.316406 11.949219 C 30.335938 11.960938 30.347656 11.984375 30.351562 12.003906 " fill-opacity="1" fill-rule="nonzero"/><path fill="#000000" d="M 28.371094 13.125 C 29.128906 13.152344 29.921875 12.832031 30.300781 12.660156 C 30.304688 12.6875 30.3125 12.710938 30.316406 12.738281 C 30.324219 12.785156 30.332031 12.832031 30.339844 12.875 C 29.960938 13.046875 29.253906 13.316406 28.539062 13.335938 C 28.492188 13.273438 28.476562 13.226562 28.472656 13.21875 C 28.457031 13.175781 28.417969 13.144531 28.371094 13.144531 L 28.371094 13.125 " fill-opacity="1" fill-rule="nonzero"/><path fill="#000000" d="M 28.339844 13.152344 C 28.28125 13.167969 28.25 13.226562 28.265625 13.28125 C 28.265625 13.285156 28.273438 13.304688 28.285156 13.332031 C 27.8125 13.304688 27.355469 13.152344 27 12.769531 C 26.316406 12.039062 26.476562 11.46875 26.585938 11.25 C 26.644531 11.273438 26.703125 11.292969 26.769531 11.316406 C 26.777344 11.316406 26.785156 11.320312 26.789062 11.320312 C 26.710938 11.46875 26.53125 11.957031 27.160156 12.628906 C 27.488281 12.980469 27.921875 13.113281 28.371094 13.125 L 28.371094 13.144531 C 28.359375 13.144531 28.347656 13.148438 28.339844 13.152344 " fill-opacity="1" fill-rule="nonzero"/><path fill="#000000" d="M 28.265625 13.28125 C 28.25 13.226562 28.28125 13.167969 28.339844 13.152344 C 28.347656 13.148438 28.359375 13.144531 28.371094 13.144531 C 28.417969 13.144531 28.457031 13.175781 28.472656 13.21875 C 28.476562 13.226562 28.492188 13.273438 28.539062 13.335938 C 28.453125 13.339844 28.371094 13.335938 28.285156 13.332031 C 28.273438 13.304688 28.265625 13.285156 28.265625 13.28125 " fill-opacity="1" fill-rule="nonzero"/><path fill="#000000" d="M 26.792969 11.128906 C 26.839844 11.164062 26.851562 11.230469 26.816406 11.277344 C 26.816406 11.28125 26.804688 11.292969 26.789062 11.320312 C 26.785156 11.320312 26.777344 11.316406 26.769531 11.316406 C 26.703125 11.292969 26.644531 11.273438 26.585938 11.25 C 26.613281 11.191406 26.636719 11.15625 26.644531 11.152344 C 26.671875 11.113281 26.71875 11.101562 26.761719 11.113281 C 26.773438 11.117188 26.785156 11.121094 26.792969 11.128906 " fill-opacity="1" fill-rule="nonzero"/><path fill="#000000" d="M 26.835938 11.113281 C 27.203125 11.226562 27.832031 11.347656 28.4375 11.464844 C 29.25 11.621094 29.824219 11.734375 30.125 11.847656 C 30.140625 11.925781 30.160156 12.011719 30.183594 12.109375 C 30.179688 12.109375 30.179688 12.109375 30.175781 12.105469 C 30.03125 11.988281 29.125 11.8125 28.398438 11.671875 C 27.792969 11.554688 27.171875 11.4375 26.789062 11.320312 C 26.804688 11.292969 26.816406 11.28125 26.816406 11.277344 C 26.851562 11.230469 26.839844 11.164062 26.792969 11.128906 C 26.785156 11.121094 26.773438 11.117188 26.761719 11.113281 L 26.769531 11.09375 C 26.789062 11.101562 26.8125 11.109375 26.835938 11.113281 " fill-opacity="1" fill-rule="nonzero"/><g clip-path="url(#90a3f10069)"><path fill="#000000" d="M 26.15625 9.660156 C 25.992188 10.398438 26.042969 10.847656 26.769531 11.09375 L 26.761719 11.113281 C 26.71875 11.101562 26.671875 11.113281 26.644531 11.152344 C 26.636719 11.15625 26.613281 11.191406 26.585938 11.25 C 25.742188 10.90625 25.808594 10.230469 25.941406 9.617188 C 26.121094 8.808594 26.429688 7.925781 27.859375 7.710938 L 28.539062 7.613281 C 29.488281 7.476562 30.242188 7.375 30.339844 7.078125 C 30.34375 7.0625 30.351562 7.050781 30.363281 7.042969 L 30.359375 7.050781 C 30.308594 7.21875 30.238281 7.367188 30.160156 7.496094 C 29.8125 7.644531 29.265625 7.722656 28.570312 7.820312 L 27.890625 7.917969 C 26.597656 8.113281 26.324219 8.886719 26.15625 9.660156 " fill-opacity="1" fill-rule="nonzero"/></g><g clip-path="url(#a3020d9493)"><g fill="#000000" fill-opacity="1"><g transform="translate(0.846773, 22.26229)"><g><path d="M 3.078125 -6.046875 C 3.078125 -5.921875 3.035156 -5.804688 2.953125 -5.703125 C 2.867188 -5.609375 2.769531 -5.53125 2.65625 -5.46875 C 2.550781 -5.40625 2.441406 -5.335938 2.328125 -5.265625 C 2.222656 -5.191406 2.125 -5.109375 2.03125 -5.015625 C 1.9375 -4.929688 1.859375 -4.832031 1.796875 -4.71875 C 1.742188 -4.613281 1.71875 -4.492188 1.71875 -4.359375 C 1.71875 -4.234375 1.742188 -4.117188 1.796875 -4.015625 C 1.859375 -3.921875 1.929688 -3.828125 2.015625 -3.734375 C 2.097656 -3.640625 2.191406 -3.539062 2.296875 -3.4375 C 2.398438 -3.34375 2.492188 -3.234375 2.578125 -3.109375 C 2.660156 -2.984375 2.726562 -2.84375 2.78125 -2.6875 C 2.84375 -2.53125 2.875 -2.347656 2.875 -2.140625 C 2.875 -2.003906 2.84375 -1.84375 2.78125 -1.65625 C 2.71875 -1.476562 2.632812 -1.296875 2.53125 -1.109375 C 2.425781 -0.929688 2.300781 -0.753906 2.15625 -0.578125 C 2.019531 -0.398438 1.875 -0.242188 1.71875 -0.109375 C 1.5625 0.0234375 1.394531 0.132812 1.21875 0.21875 C 1.050781 0.300781 0.882812 0.34375 0.71875 0.34375 C 0.539062 0.34375 0.382812 0.289062 0.25 0.1875 C 0.113281 0.09375 0.046875 -0.0507812 0.046875 -0.25 C 0.046875 -0.382812 0.078125 -0.503906 0.140625 -0.609375 C 0.203125 -0.722656 0.28125 -0.832031 0.375 -0.9375 C 0.46875 -1.039062 0.566406 -1.140625 0.671875 -1.234375 C 0.785156 -1.335938 0.890625 -1.4375 0.984375 -1.53125 C 1.078125 -1.632812 1.15625 -1.738281 1.21875 -1.84375 C 1.28125 -1.945312 1.3125 -2.0625 1.3125 -2.1875 C 1.3125 -2.351562 1.25 -2.519531 1.125 -2.6875 C 1.007812 -2.863281 0.878906 -3.046875 0.734375 -3.234375 C 0.597656 -3.421875 0.46875 -3.613281 0.34375 -3.8125 C 0.226562 -4.007812 0.171875 -4.207031 0.171875 -4.40625 C 0.171875 -4.65625 0.234375 -4.914062 0.359375 -5.1875 C 0.492188 -5.457031 0.664062 -5.707031 0.875 -5.9375 C 1.082031 -6.164062 1.316406 -6.351562 1.578125 -6.5 C 1.835938 -6.644531 2.09375 -6.71875 2.34375 -6.71875 C 2.539062 -6.71875 2.710938 -6.65625 2.859375 -6.53125 C 3.003906 -6.414062 3.078125 -6.253906 3.078125 -6.046875 Z M 3.078125 -6.046875 "/></g></g><g transform="translate(3.965273, 22.26229)"><g><path d="M 4.546875 0.109375 C 4.367188 0.109375 4.207031 0.015625 4.0625 -0.171875 C 3.914062 -0.367188 3.785156 -0.601562 3.671875 -0.875 C 3.566406 -1.15625 3.476562 -1.4375 3.40625 -1.71875 C 3.332031 -2.007812 3.273438 -2.25 3.234375 -2.4375 C 3.191406 -2.320312 3.128906 -2.179688 3.046875 -2.015625 C 2.972656 -1.847656 2.882812 -1.671875 2.78125 -1.484375 C 2.6875 -1.304688 2.582031 -1.125 2.46875 -0.9375 C 2.351562 -0.75 2.234375 -0.578125 2.109375 -0.421875 C 1.984375 -0.273438 1.859375 -0.15625 1.734375 -0.0625 C 1.609375 0.0195312 1.488281 0.0625 1.375 0.0625 C 1.21875 0.0625 1.082031 -0.0078125 0.96875 -0.15625 C 0.851562 -0.300781 0.753906 -0.492188 0.671875 -0.734375 C 0.585938 -0.984375 0.519531 -1.253906 0.46875 -1.546875 C 0.414062 -1.835938 0.375 -2.128906 0.34375 -2.421875 C 0.3125 -2.710938 0.289062 -2.984375 0.28125 -3.234375 C 0.269531 -3.492188 0.265625 -3.703125 0.265625 -3.859375 C 0.265625 -3.992188 0.269531 -4.128906 0.28125 -4.265625 C 0.300781 -4.398438 0.332031 -4.519531 0.375 -4.625 C 0.414062 -4.726562 0.476562 -4.804688 0.5625 -4.859375 C 0.644531 -4.921875 0.753906 -4.953125 0.890625 -4.953125 C 1.023438 -4.953125 1.140625 -4.90625 1.234375 -4.8125 C 1.328125 -4.71875 1.40625 -4.585938 1.46875 -4.421875 C 1.53125 -4.265625 1.582031 -4.085938 1.625 -3.890625 C 1.664062 -3.691406 1.695312 -3.488281 1.71875 -3.28125 C 1.75 -3.082031 1.765625 -2.882812 1.765625 -2.6875 C 1.773438 -2.5 1.785156 -2.335938 1.796875 -2.203125 C 1.828125 -2.316406 1.875 -2.460938 1.9375 -2.640625 C 2 -2.816406 2.066406 -3.003906 2.140625 -3.203125 C 2.222656 -3.398438 2.304688 -3.597656 2.390625 -3.796875 C 2.484375 -3.992188 2.570312 -4.164062 2.65625 -4.3125 C 2.75 -4.46875 2.835938 -4.59375 2.921875 -4.6875 C 3.003906 -4.789062 3.085938 -4.84375 3.171875 -4.84375 L 3.1875 -4.84375 C 3.289062 -4.84375 3.390625 -4.789062 3.484375 -4.6875 C 3.578125 -4.59375 3.671875 -4.46875 3.765625 -4.3125 C 3.859375 -4.164062 3.941406 -3.988281 4.015625 -3.78125 C 4.097656 -3.582031 4.175781 -3.378906 4.25 -3.171875 C 4.320312 -2.972656 4.382812 -2.773438 4.4375 -2.578125 C 4.488281 -2.390625 4.53125 -2.226562 4.5625 -2.09375 C 4.5625 -2.257812 4.566406 -2.445312 4.578125 -2.65625 C 4.597656 -2.863281 4.625 -3.070312 4.65625 -3.28125 C 4.6875 -3.5 4.726562 -3.707031 4.78125 -3.90625 C 4.832031 -4.113281 4.898438 -4.296875 4.984375 -4.453125 C 5.066406 -4.609375 5.164062 -4.734375 5.28125 -4.828125 C 5.394531 -4.921875 5.53125 -4.96875 5.6875 -4.96875 C 5.851562 -4.96875 5.972656 -4.910156 6.046875 -4.796875 C 6.128906 -4.691406 6.171875 -4.554688 6.171875 -4.390625 C 6.171875 -4.222656 6.144531 -3.992188 6.09375 -3.703125 C 6.050781 -3.421875 5.992188 -3.109375 5.921875 -2.765625 C 5.847656 -2.429688 5.757812 -2.09375 5.65625 -1.75 C 5.5625 -1.40625 5.453125 -1.09375 5.328125 -0.8125 C 5.203125 -0.539062 5.070312 -0.316406 4.9375 -0.140625 C 4.8125 0.0234375 4.679688 0.109375 4.546875 0.109375 Z M 4.546875 0.109375 "/></g></g><g transform="translate(10.340107, 22.26229)"><g><path d="M 3.921875 -1.21875 C 3.921875 -1.113281 3.914062 -0.976562 3.90625 -0.8125 C 3.894531 -0.644531 3.867188 -0.484375 3.828125 -0.328125 C 3.796875 -0.171875 3.734375 -0.0351562 3.640625 0.078125 C 3.554688 0.203125 3.4375 0.265625 3.28125 0.265625 C 3.070312 0.265625 2.910156 0.191406 2.796875 0.046875 C 2.679688 -0.0859375 2.625 -0.257812 2.625 -0.46875 C 2.445312 -0.300781 2.238281 -0.171875 2 -0.078125 C 1.769531 0.00390625 1.535156 0.046875 1.296875 0.046875 C 1.128906 0.046875 0.96875 0.0078125 0.8125 -0.0625 C 0.664062 -0.144531 0.535156 -0.25 0.421875 -0.375 C 0.304688 -0.5 0.210938 -0.640625 0.140625 -0.796875 C 0.078125 -0.960938 0.046875 -1.125 0.046875 -1.28125 C 0.046875 -1.550781 0.128906 -1.789062 0.296875 -2 C 0.460938 -2.207031 0.671875 -2.382812 0.921875 -2.53125 C 1.171875 -2.675781 1.429688 -2.789062 1.703125 -2.875 C 1.984375 -2.96875 2.234375 -3.023438 2.453125 -3.046875 C 2.453125 -3.078125 2.453125 -3.101562 2.453125 -3.125 C 2.460938 -3.144531 2.46875 -3.171875 2.46875 -3.203125 C 2.46875 -3.378906 2.414062 -3.519531 2.3125 -3.625 C 2.21875 -3.738281 2.082031 -3.796875 1.90625 -3.796875 C 1.757812 -3.796875 1.632812 -3.769531 1.53125 -3.71875 C 1.425781 -3.675781 1.328125 -3.625 1.234375 -3.5625 C 1.148438 -3.5 1.0625 -3.441406 0.96875 -3.390625 C 0.875 -3.347656 0.769531 -3.328125 0.65625 -3.328125 C 0.53125 -3.328125 0.421875 -3.363281 0.328125 -3.4375 C 0.242188 -3.519531 0.203125 -3.628906 0.203125 -3.765625 C 0.203125 -3.953125 0.253906 -4.125 0.359375 -4.28125 C 0.472656 -4.4375 0.613281 -4.566406 0.78125 -4.671875 C 0.957031 -4.773438 1.144531 -4.859375 1.34375 -4.921875 C 1.539062 -4.984375 1.722656 -5.015625 1.890625 -5.015625 C 2.046875 -5.015625 2.203125 -4.992188 2.359375 -4.953125 C 2.515625 -4.910156 2.660156 -4.851562 2.796875 -4.78125 C 2.929688 -4.707031 3.054688 -4.613281 3.171875 -4.5 C 3.285156 -4.382812 3.375 -4.253906 3.4375 -4.109375 C 3.539062 -3.890625 3.625 -3.660156 3.6875 -3.421875 C 3.75 -3.179688 3.796875 -2.9375 3.828125 -2.6875 C 3.867188 -2.4375 3.894531 -2.1875 3.90625 -1.9375 C 3.914062 -1.6875 3.921875 -1.445312 3.921875 -1.21875 Z M 2.546875 -1.484375 L 2.515625 -2.078125 C 2.503906 -2.078125 2.492188 -2.078125 2.484375 -2.078125 C 2.472656 -2.085938 2.460938 -2.09375 2.453125 -2.09375 C 2.378906 -2.09375 2.285156 -2.070312 2.171875 -2.03125 C 2.054688 -1.988281 1.945312 -1.9375 1.84375 -1.875 C 1.738281 -1.8125 1.648438 -1.738281 1.578125 -1.65625 C 1.503906 -1.570312 1.46875 -1.488281 1.46875 -1.40625 C 1.46875 -1.320312 1.492188 -1.265625 1.546875 -1.234375 C 1.609375 -1.210938 1.679688 -1.203125 1.765625 -1.203125 C 1.890625 -1.203125 2.019531 -1.234375 2.15625 -1.296875 C 2.300781 -1.359375 2.429688 -1.421875 2.546875 -1.484375 Z M 2.546875 -1.484375 "/></g></g><g transform="translate(14.518208, 22.26229)"><g><path d="M 2.703125 0.234375 C 2.609375 0.234375 2.53125 0.1875 2.46875 0.09375 C 2.414062 0.0078125 2.375 -0.0859375 2.34375 -0.203125 C 2.3125 -0.316406 2.289062 -0.429688 2.28125 -0.546875 C 2.28125 -0.660156 2.28125 -0.75 2.28125 -0.8125 C 2.28125 -0.988281 2.289062 -1.160156 2.3125 -1.328125 C 2.332031 -1.503906 2.351562 -1.675781 2.375 -1.84375 C 2.394531 -2.019531 2.414062 -2.191406 2.4375 -2.359375 C 2.457031 -2.535156 2.46875 -2.710938 2.46875 -2.890625 C 2.46875 -2.953125 2.460938 -3.023438 2.453125 -3.109375 C 2.453125 -3.191406 2.441406 -3.269531 2.421875 -3.34375 C 2.398438 -3.414062 2.367188 -3.472656 2.328125 -3.515625 C 2.285156 -3.566406 2.222656 -3.59375 2.140625 -3.59375 C 2.085938 -3.59375 2.03125 -3.550781 1.96875 -3.46875 C 1.90625 -3.382812 1.847656 -3.285156 1.796875 -3.171875 C 1.742188 -3.066406 1.695312 -2.960938 1.65625 -2.859375 C 1.625 -2.753906 1.609375 -2.675781 1.609375 -2.625 C 1.609375 -2.5 1.609375 -2.367188 1.609375 -2.234375 C 1.609375 -2.109375 1.609375 -1.976562 1.609375 -1.84375 L 1.609375 -1.34375 C 1.609375 -1.238281 1.597656 -1.128906 1.578125 -1.015625 C 1.566406 -0.910156 1.550781 -0.804688 1.53125 -0.703125 C 1.519531 -0.597656 1.492188 -0.5 1.453125 -0.40625 C 1.421875 -0.3125 1.375 -0.226562 1.3125 -0.15625 C 1.257812 -0.0820312 1.195312 -0.0234375 1.125 0.015625 C 1.050781 0.0664062 0.960938 0.09375 0.859375 0.09375 C 0.742188 0.09375 0.648438 0.0546875 0.578125 -0.015625 C 0.503906 -0.0976562 0.441406 -0.195312 0.390625 -0.3125 C 0.347656 -0.425781 0.316406 -0.554688 0.296875 -0.703125 C 0.273438 -0.859375 0.257812 -1.003906 0.25 -1.140625 C 0.238281 -1.285156 0.234375 -1.414062 0.234375 -1.53125 C 0.242188 -1.644531 0.25 -1.738281 0.25 -1.8125 L 0.25 -2.21875 C 0.25 -2.4375 0.242188 -2.648438 0.234375 -2.859375 C 0.222656 -3.078125 0.21875 -3.289062 0.21875 -3.5 C 0.21875 -3.613281 0.21875 -3.757812 0.21875 -3.9375 C 0.226562 -4.113281 0.253906 -4.285156 0.296875 -4.453125 C 0.335938 -4.628906 0.398438 -4.773438 0.484375 -4.890625 C 0.578125 -5.015625 0.710938 -5.078125 0.890625 -5.078125 C 0.972656 -5.078125 1.046875 -5.050781 1.109375 -5 C 1.171875 -4.945312 1.226562 -4.882812 1.28125 -4.8125 C 1.332031 -4.738281 1.375 -4.65625 1.40625 -4.5625 C 1.4375 -4.476562 1.457031 -4.40625 1.46875 -4.34375 C 1.53125 -4.425781 1.597656 -4.503906 1.671875 -4.578125 C 1.753906 -4.648438 1.84375 -4.710938 1.9375 -4.765625 C 2.039062 -4.828125 2.148438 -4.875 2.265625 -4.90625 C 2.390625 -4.945312 2.53125 -4.96875 2.6875 -4.96875 C 2.976562 -4.96875 3.203125 -4.894531 3.359375 -4.75 C 3.523438 -4.613281 3.644531 -4.4375 3.71875 -4.21875 C 3.800781 -4.007812 3.847656 -3.785156 3.859375 -3.546875 C 3.878906 -3.304688 3.890625 -3.085938 3.890625 -2.890625 C 3.890625 -2.796875 3.878906 -2.648438 3.859375 -2.453125 C 3.847656 -2.265625 3.820312 -2.050781 3.78125 -1.8125 C 3.75 -1.582031 3.703125 -1.34375 3.640625 -1.09375 C 3.578125 -0.851562 3.5 -0.632812 3.40625 -0.4375 C 3.320312 -0.238281 3.222656 -0.078125 3.109375 0.046875 C 2.992188 0.171875 2.859375 0.234375 2.703125 0.234375 Z M 2.703125 0.234375 "/></g></g><g transform="translate(18.636006, 22.26229)"><g/></g><g transform="translate(20.712134, 22.26229)"><g><path d="M 3.453125 -3.3125 C 3.453125 -3.28125 3.445312 -3.25 3.4375 -3.21875 C 3.4375 -3.1875 3.429688 -3.15625 3.421875 -3.125 C 3.367188 -3 3.285156 -2.890625 3.171875 -2.796875 C 3.066406 -2.703125 2.941406 -2.65625 2.796875 -2.65625 C 2.566406 -2.65625 2.414062 -2.769531 2.34375 -3 C 2.320312 -3.03125 2.3125 -3.0625 2.3125 -3.09375 C 2.3125 -3.132812 2.3125 -3.175781 2.3125 -3.21875 L 2.3125 -3.46875 C 2.300781 -3.550781 2.28125 -3.613281 2.25 -3.65625 C 2.21875 -3.695312 2.171875 -3.71875 2.109375 -3.71875 C 2.003906 -3.71875 1.90625 -3.65625 1.8125 -3.53125 C 1.726562 -3.414062 1.648438 -3.269531 1.578125 -3.09375 C 1.515625 -2.925781 1.460938 -2.753906 1.421875 -2.578125 C 1.390625 -2.398438 1.375 -2.253906 1.375 -2.140625 C 1.375 -2.054688 1.378906 -1.953125 1.390625 -1.828125 C 1.398438 -1.703125 1.421875 -1.582031 1.453125 -1.46875 C 1.492188 -1.351562 1.539062 -1.253906 1.59375 -1.171875 C 1.65625 -1.085938 1.738281 -1.046875 1.84375 -1.046875 C 1.9375 -1.046875 2.023438 -1.078125 2.109375 -1.140625 C 2.191406 -1.203125 2.273438 -1.273438 2.359375 -1.359375 C 2.429688 -1.421875 2.507812 -1.488281 2.59375 -1.5625 C 2.6875 -1.644531 2.789062 -1.6875 2.90625 -1.6875 C 3.050781 -1.6875 3.164062 -1.632812 3.25 -1.53125 C 3.332031 -1.425781 3.375 -1.304688 3.375 -1.171875 C 3.375 -0.972656 3.320312 -0.789062 3.21875 -0.625 C 3.113281 -0.457031 2.984375 -0.3125 2.828125 -0.1875 C 2.671875 -0.0625 2.5 0.0351562 2.3125 0.109375 C 2.125 0.179688 1.941406 0.21875 1.765625 0.21875 C 1.453125 0.21875 1.1875 0.140625 0.96875 -0.015625 C 0.757812 -0.171875 0.585938 -0.367188 0.453125 -0.609375 C 0.328125 -0.847656 0.234375 -1.109375 0.171875 -1.390625 C 0.117188 -1.671875 0.09375 -1.9375 0.09375 -2.1875 C 0.09375 -2.476562 0.128906 -2.796875 0.203125 -3.140625 C 0.285156 -3.484375 0.410156 -3.800781 0.578125 -4.09375 C 0.742188 -4.382812 0.957031 -4.628906 1.21875 -4.828125 C 1.476562 -5.023438 1.789062 -5.125 2.15625 -5.125 C 2.375 -5.125 2.566406 -5.070312 2.734375 -4.96875 C 2.898438 -4.875 3.035156 -4.75 3.140625 -4.59375 C 3.242188 -4.4375 3.320312 -4.257812 3.375 -4.0625 C 3.4375 -3.863281 3.46875 -3.671875 3.46875 -3.484375 C 3.46875 -3.453125 3.46875 -3.421875 3.46875 -3.390625 C 3.46875 -3.367188 3.460938 -3.34375 3.453125 -3.3125 Z M 3.453125 -3.3125 "/></g></g><g transform="translate(24.390586, 22.26229)"><g><path d="M 1.6875 -6.015625 C 1.6875 -5.929688 1.660156 -5.859375 1.609375 -5.796875 C 1.566406 -5.734375 1.507812 -5.675781 1.4375 -5.625 C 1.375 -5.582031 1.300781 -5.546875 1.21875 -5.515625 C 1.144531 -5.492188 1.070312 -5.484375 1 -5.484375 C 0.882812 -5.484375 0.78125 -5.507812 0.6875 -5.5625 C 0.601562 -5.625 0.5625 -5.71875 0.5625 -5.84375 C 0.5625 -5.925781 0.582031 -6 0.625 -6.0625 C 0.675781 -6.132812 0.734375 -6.191406 0.796875 -6.234375 C 0.859375 -6.273438 0.925781 -6.304688 1 -6.328125 C 1.082031 -6.347656 1.160156 -6.359375 1.234375 -6.359375 C 1.347656 -6.359375 1.453125 -6.332031 1.546875 -6.28125 C 1.640625 -6.226562 1.6875 -6.140625 1.6875 -6.015625 Z M 1.75 -3.09375 C 1.75 -3.007812 1.75 -2.921875 1.75 -2.828125 C 1.75 -2.742188 1.742188 -2.660156 1.734375 -2.578125 C 1.734375 -2.484375 1.734375 -2.351562 1.734375 -2.1875 C 1.734375 -2.019531 1.726562 -1.84375 1.71875 -1.65625 C 1.707031 -1.46875 1.6875 -1.273438 1.65625 -1.078125 C 1.632812 -0.878906 1.59375 -0.695312 1.53125 -0.53125 C 1.476562 -0.375 1.398438 -0.242188 1.296875 -0.140625 C 1.203125 -0.046875 1.085938 0.00390625 0.953125 0.015625 C 0.835938 0.015625 0.742188 -0.03125 0.671875 -0.125 C 0.597656 -0.21875 0.535156 -0.335938 0.484375 -0.484375 C 0.429688 -0.628906 0.394531 -0.789062 0.375 -0.96875 C 0.351562 -1.144531 0.335938 -1.316406 0.328125 -1.484375 C 0.316406 -1.660156 0.3125 -1.820312 0.3125 -1.96875 C 0.3125 -2.113281 0.3125 -2.21875 0.3125 -2.28125 C 0.3125 -2.375 0.3125 -2.503906 0.3125 -2.671875 C 0.3125 -2.847656 0.316406 -3.03125 0.328125 -3.21875 C 0.335938 -3.414062 0.359375 -3.613281 0.390625 -3.8125 C 0.421875 -4.019531 0.46875 -4.207031 0.53125 -4.375 C 0.59375 -4.539062 0.671875 -4.675781 0.765625 -4.78125 C 0.859375 -4.882812 0.984375 -4.9375 1.140625 -4.9375 C 1.296875 -4.9375 1.410156 -4.859375 1.484375 -4.703125 C 1.566406 -4.546875 1.628906 -4.363281 1.671875 -4.15625 C 1.710938 -3.945312 1.734375 -3.738281 1.734375 -3.53125 C 1.742188 -3.332031 1.75 -3.1875 1.75 -3.09375 Z M 1.75 -3.09375 "/></g></g><g transform="translate(26.492558, 22.26229)"><g><path d="M 2.265625 0.3125 C 1.859375 0.3125 1.539062 0.253906 1.3125 0.140625 C 1.082031 0.0351562 0.910156 -0.109375 0.796875 -0.296875 C 0.691406 -0.492188 0.625 -0.726562 0.59375 -1 C 0.570312 -1.28125 0.5625 -1.59375 0.5625 -1.9375 C 0.5625 -2.207031 0.570312 -2.476562 0.59375 -2.75 C 0.613281 -3.019531 0.640625 -3.3125 0.671875 -3.625 C 0.585938 -3.625 0.519531 -3.617188 0.46875 -3.609375 C 0.425781 -3.609375 0.394531 -3.609375 0.375 -3.609375 C 0.1875 -3.609375 0.0234375 -3.648438 -0.109375 -3.734375 C -0.242188 -3.816406 -0.3125 -3.941406 -0.3125 -4.109375 C -0.3125 -4.210938 -0.269531 -4.300781 -0.1875 -4.375 C -0.113281 -4.457031 -0.0195312 -4.523438 0.09375 -4.578125 C 0.21875 -4.640625 0.347656 -4.6875 0.484375 -4.71875 C 0.628906 -4.757812 0.765625 -4.785156 0.890625 -4.796875 C 0.890625 -4.953125 0.898438 -5.128906 0.921875 -5.328125 C 0.953125 -5.523438 0.992188 -5.707031 1.046875 -5.875 C 1.109375 -6.039062 1.191406 -6.179688 1.296875 -6.296875 C 1.398438 -6.410156 1.535156 -6.46875 1.703125 -6.46875 C 1.796875 -6.46875 1.875 -6.441406 1.9375 -6.390625 C 2.007812 -6.335938 2.066406 -6.269531 2.109375 -6.1875 C 2.160156 -6.101562 2.195312 -6.007812 2.21875 -5.90625 C 2.25 -5.800781 2.265625 -5.703125 2.265625 -5.609375 C 2.265625 -5.492188 2.253906 -5.375 2.234375 -5.25 C 2.210938 -5.125 2.179688 -4.972656 2.140625 -4.796875 C 2.234375 -4.804688 2.296875 -4.8125 2.328125 -4.8125 C 2.367188 -4.820312 2.40625 -4.828125 2.4375 -4.828125 C 2.53125 -4.828125 2.628906 -4.816406 2.734375 -4.796875 C 2.835938 -4.785156 2.929688 -4.757812 3.015625 -4.71875 C 3.109375 -4.675781 3.1875 -4.617188 3.25 -4.546875 C 3.3125 -4.484375 3.34375 -4.40625 3.34375 -4.3125 C 3.34375 -4.207031 3.300781 -4.113281 3.21875 -4.03125 C 3.132812 -3.957031 3.023438 -3.890625 2.890625 -3.828125 C 2.765625 -3.773438 2.628906 -3.734375 2.484375 -3.703125 C 2.347656 -3.671875 2.21875 -3.648438 2.09375 -3.640625 C 2.050781 -3.398438 2.019531 -3.179688 2 -2.984375 C 1.988281 -2.785156 1.976562 -2.585938 1.96875 -2.390625 C 1.957031 -2.285156 1.945312 -2.179688 1.9375 -2.078125 C 1.925781 -1.984375 1.921875 -1.882812 1.921875 -1.78125 C 1.921875 -1.707031 1.921875 -1.617188 1.921875 -1.515625 C 1.929688 -1.421875 1.953125 -1.328125 1.984375 -1.234375 C 2.023438 -1.140625 2.082031 -1.054688 2.15625 -0.984375 C 2.226562 -0.921875 2.332031 -0.890625 2.46875 -0.890625 C 2.550781 -0.890625 2.632812 -0.894531 2.71875 -0.90625 C 2.800781 -0.925781 2.882812 -0.9375 2.96875 -0.9375 C 3.125 -0.9375 3.234375 -0.882812 3.296875 -0.78125 C 3.359375 -0.675781 3.390625 -0.546875 3.390625 -0.390625 C 3.390625 -0.265625 3.351562 -0.15625 3.28125 -0.0625 C 3.21875 0.0195312 3.128906 0.0859375 3.015625 0.140625 C 2.910156 0.191406 2.789062 0.234375 2.65625 0.265625 C 2.519531 0.296875 2.390625 0.3125 2.265625 0.3125 Z M 2.265625 0.3125 "/></g></g><g transform="translate(29.80058, 22.26229)"><g><path d="M 2.125 2.515625 C 1.988281 2.515625 1.832031 2.488281 1.65625 2.4375 C 1.476562 2.394531 1.3125 2.332031 1.15625 2.25 C 1.007812 2.175781 0.878906 2.082031 0.765625 1.96875 C 0.660156 1.851562 0.609375 1.71875 0.609375 1.5625 C 0.609375 1.507812 0.625 1.453125 0.65625 1.390625 C 0.6875 1.335938 0.722656 1.289062 0.765625 1.25 C 0.816406 1.207031 0.867188 1.171875 0.921875 1.140625 C 0.984375 1.117188 1.046875 1.109375 1.109375 1.109375 C 1.179688 1.109375 1.25 1.113281 1.3125 1.125 C 1.375 1.144531 1.441406 1.171875 1.515625 1.203125 C 1.585938 1.234375 1.660156 1.257812 1.734375 1.28125 C 1.804688 1.300781 1.882812 1.3125 1.96875 1.3125 C 2.113281 1.3125 2.238281 1.265625 2.34375 1.171875 C 2.445312 1.078125 2.535156 0.945312 2.609375 0.78125 C 2.679688 0.625 2.738281 0.445312 2.78125 0.25 C 2.832031 0.0625 2.867188 -0.125 2.890625 -0.3125 C 2.921875 -0.5 2.941406 -0.675781 2.953125 -0.84375 C 2.960938 -1.007812 2.972656 -1.144531 2.984375 -1.25 C 2.785156 -0.945312 2.585938 -0.710938 2.390625 -0.546875 C 2.191406 -0.378906 1.945312 -0.296875 1.65625 -0.296875 C 1.4375 -0.296875 1.242188 -0.34375 1.078125 -0.4375 C 0.921875 -0.53125 0.78125 -0.648438 0.65625 -0.796875 C 0.539062 -0.953125 0.445312 -1.125 0.375 -1.3125 C 0.300781 -1.507812 0.242188 -1.707031 0.203125 -1.90625 C 0.171875 -2.113281 0.148438 -2.316406 0.140625 -2.515625 C 0.128906 -2.710938 0.128906 -2.894531 0.140625 -3.0625 C 0.140625 -3.195312 0.148438 -3.363281 0.171875 -3.5625 C 0.203125 -3.769531 0.242188 -3.96875 0.296875 -4.15625 C 0.359375 -4.351562 0.441406 -4.519531 0.546875 -4.65625 C 0.648438 -4.789062 0.785156 -4.851562 0.953125 -4.84375 C 1.066406 -4.84375 1.15625 -4.796875 1.21875 -4.703125 C 1.289062 -4.609375 1.347656 -4.492188 1.390625 -4.359375 C 1.429688 -4.234375 1.460938 -4.09375 1.484375 -3.9375 C 1.503906 -3.78125 1.515625 -3.625 1.515625 -3.46875 C 1.523438 -3.3125 1.53125 -3.164062 1.53125 -3.03125 C 1.53125 -2.90625 1.53125 -2.804688 1.53125 -2.734375 C 1.53125 -2.640625 1.53125 -2.539062 1.53125 -2.4375 C 1.539062 -2.34375 1.5625 -2.253906 1.59375 -2.171875 C 1.625 -2.097656 1.675781 -2.039062 1.75 -2 C 1.820312 -1.957031 1.925781 -1.9375 2.0625 -1.9375 C 2.207031 -1.9375 2.320312 -1.972656 2.40625 -2.046875 C 2.5 -2.117188 2.566406 -2.207031 2.609375 -2.3125 C 2.660156 -2.425781 2.691406 -2.546875 2.703125 -2.671875 C 2.710938 -2.804688 2.71875 -2.929688 2.71875 -3.046875 C 2.71875 -3.128906 2.71875 -3.226562 2.71875 -3.34375 C 2.71875 -3.457031 2.71875 -3.578125 2.71875 -3.703125 C 2.71875 -3.828125 2.726562 -3.953125 2.75 -4.078125 C 2.769531 -4.203125 2.800781 -4.3125 2.84375 -4.40625 C 2.882812 -4.507812 2.941406 -4.59375 3.015625 -4.65625 C 3.085938 -4.726562 3.179688 -4.765625 3.296875 -4.765625 C 3.441406 -4.765625 3.566406 -4.707031 3.671875 -4.59375 C 3.773438 -4.476562 3.863281 -4.328125 3.9375 -4.140625 C 4.007812 -3.960938 4.066406 -3.765625 4.109375 -3.546875 C 4.148438 -3.328125 4.179688 -3.109375 4.203125 -2.890625 C 4.222656 -2.679688 4.238281 -2.484375 4.25 -2.296875 C 4.257812 -2.117188 4.265625 -1.976562 4.265625 -1.875 C 4.265625 -1.632812 4.253906 -1.359375 4.234375 -1.046875 C 4.222656 -0.742188 4.191406 -0.429688 4.140625 -0.109375 C 4.085938 0.210938 4.015625 0.53125 3.921875 0.84375 C 3.828125 1.15625 3.695312 1.4375 3.53125 1.6875 C 3.375 1.9375 3.179688 2.132812 2.953125 2.28125 C 2.722656 2.4375 2.445312 2.515625 2.125 2.515625 Z M 2.125 2.515625 "/></g></g></g></g><g fill="#000000" fill-opacity="1"><g transform="translate(34.36602, 22.26229)"><g/></g></g><g fill="#000000" fill-opacity="1"><g transform="translate(36.441702, 22.26229)"><g><path d="M 4.203125 -2.5625 C 4.203125 -2.3125 4.175781 -2.035156 4.125 -1.734375 C 4.070312 -1.429688 3.976562 -1.148438 3.84375 -0.890625 C 3.71875 -0.640625 3.550781 -0.425781 3.34375 -0.25 C 3.132812 -0.0703125 2.867188 0.015625 2.546875 0.015625 C 2.472656 0.015625 2.390625 0.0078125 2.296875 0 C 2.210938 -0.0195312 2.128906 -0.0390625 2.046875 -0.0625 C 1.972656 -0.09375 1.90625 -0.132812 1.84375 -0.1875 C 1.78125 -0.238281 1.734375 -0.300781 1.703125 -0.375 L 1.625 0.859375 C 1.613281 0.992188 1.609375 1.148438 1.609375 1.328125 C 1.609375 1.515625 1.582031 1.691406 1.53125 1.859375 C 1.488281 2.023438 1.414062 2.164062 1.3125 2.28125 C 1.21875 2.40625 1.078125 2.46875 0.890625 2.46875 C 0.773438 2.46875 0.679688 2.410156 0.609375 2.296875 C 0.535156 2.179688 0.476562 2.035156 0.4375 1.859375 C 0.394531 1.691406 0.359375 1.5 0.328125 1.28125 C 0.304688 1.070312 0.289062 0.867188 0.28125 0.671875 C 0.28125 0.484375 0.28125 0.304688 0.28125 0.140625 C 0.28125 -0.015625 0.28125 -0.128906 0.28125 -0.203125 C 0.28125 -0.585938 0.273438 -0.972656 0.265625 -1.359375 C 0.265625 -1.742188 0.265625 -2.128906 0.265625 -2.515625 C 0.265625 -2.578125 0.265625 -2.679688 0.265625 -2.828125 C 0.265625 -2.972656 0.269531 -3.128906 0.28125 -3.296875 C 0.289062 -3.472656 0.304688 -3.65625 0.328125 -3.84375 C 0.359375 -4.03125 0.398438 -4.195312 0.453125 -4.34375 C 0.503906 -4.5 0.570312 -4.625 0.65625 -4.71875 C 0.738281 -4.8125 0.835938 -4.859375 0.953125 -4.859375 C 1.023438 -4.859375 1.085938 -4.835938 1.140625 -4.796875 C 1.203125 -4.753906 1.253906 -4.695312 1.296875 -4.625 C 1.347656 -4.5625 1.382812 -4.492188 1.40625 -4.421875 C 1.4375 -4.347656 1.460938 -4.28125 1.484375 -4.21875 C 1.660156 -4.414062 1.863281 -4.566406 2.09375 -4.671875 C 2.332031 -4.773438 2.582031 -4.828125 2.84375 -4.828125 C 3.125 -4.828125 3.347656 -4.75 3.515625 -4.59375 C 3.691406 -4.4375 3.832031 -4.242188 3.9375 -4.015625 C 4.039062 -3.785156 4.109375 -3.539062 4.140625 -3.28125 C 4.179688 -3.019531 4.203125 -2.78125 4.203125 -2.5625 Z M 2.96875 -2.640625 C 2.96875 -2.722656 2.960938 -2.804688 2.953125 -2.890625 C 2.941406 -2.984375 2.914062 -3.066406 2.875 -3.140625 C 2.832031 -3.222656 2.773438 -3.285156 2.703125 -3.328125 C 2.640625 -3.378906 2.554688 -3.40625 2.453125 -3.40625 C 2.316406 -3.40625 2.171875 -3.359375 2.015625 -3.265625 C 1.867188 -3.179688 1.757812 -3.082031 1.6875 -2.96875 C 1.65625 -2.925781 1.632812 -2.851562 1.625 -2.75 C 1.625 -2.644531 1.625 -2.566406 1.625 -2.515625 C 1.625 -2.472656 1.625 -2.421875 1.625 -2.359375 C 1.625 -2.296875 1.625 -2.226562 1.625 -2.15625 C 1.632812 -2.082031 1.644531 -2.015625 1.65625 -1.953125 C 1.664062 -1.890625 1.679688 -1.84375 1.703125 -1.8125 C 1.710938 -1.757812 1.742188 -1.710938 1.796875 -1.671875 C 1.859375 -1.628906 1.925781 -1.585938 2 -1.546875 C 2.070312 -1.515625 2.140625 -1.488281 2.203125 -1.46875 C 2.273438 -1.457031 2.335938 -1.453125 2.390625 -1.453125 C 2.515625 -1.453125 2.613281 -1.492188 2.6875 -1.578125 C 2.757812 -1.671875 2.816406 -1.78125 2.859375 -1.90625 C 2.910156 -2.039062 2.941406 -2.175781 2.953125 -2.3125 C 2.960938 -2.445312 2.96875 -2.554688 2.96875 -2.640625 Z M 2.96875 -2.640625 "/></g></g><g transform="translate(40.912701, 22.26229)"><g><path d="M 1.6875 -6.015625 C 1.6875 -5.929688 1.660156 -5.859375 1.609375 -5.796875 C 1.566406 -5.734375 1.507812 -5.675781 1.4375 -5.625 C 1.375 -5.582031 1.300781 -5.546875 1.21875 -5.515625 C 1.144531 -5.492188 1.070312 -5.484375 1 -5.484375 C 0.882812 -5.484375 0.78125 -5.507812 0.6875 -5.5625 C 0.601562 -5.625 0.5625 -5.71875 0.5625 -5.84375 C 0.5625 -5.925781 0.582031 -6 0.625 -6.0625 C 0.675781 -6.132812 0.734375 -6.191406 0.796875 -6.234375 C 0.859375 -6.273438 0.925781 -6.304688 1 -6.328125 C 1.082031 -6.347656 1.160156 -6.359375 1.234375 -6.359375 C 1.347656 -6.359375 1.453125 -6.332031 1.546875 -6.28125 C 1.640625 -6.226562 1.6875 -6.140625 1.6875 -6.015625 Z M 1.75 -3.09375 C 1.75 -3.007812 1.75 -2.921875 1.75 -2.828125 C 1.75 -2.742188 1.742188 -2.660156 1.734375 -2.578125 C 1.734375 -2.484375 1.734375 -2.351562 1.734375 -2.1875 C 1.734375 -2.019531 1.726562 -1.84375 1.71875 -1.65625 C 1.707031 -1.46875 1.6875 -1.273438 1.65625 -1.078125 C 1.632812 -0.878906 1.59375 -0.695312 1.53125 -0.53125 C 1.476562 -0.375 1.398438 -0.242188 1.296875 -0.140625 C 1.203125 -0.046875 1.085938 0.00390625 0.953125 0.015625 C 0.835938 0.015625 0.742188 -0.03125 0.671875 -0.125 C 0.597656 -0.21875 0.535156 -0.335938 0.484375 -0.484375 C 0.429688 -0.628906 0.394531 -0.789062 0.375 -0.96875 C 0.351562 -1.144531 0.335938 -1.316406 0.328125 -1.484375 C 0.316406 -1.660156 0.3125 -1.820312 0.3125 -1.96875 C 0.3125 -2.113281 0.3125 -2.21875 0.3125 -2.28125 C 0.3125 -2.375 0.3125 -2.503906 0.3125 -2.671875 C 0.3125 -2.847656 0.316406 -3.03125 0.328125 -3.21875 C 0.335938 -3.414062 0.359375 -3.613281 0.390625 -3.8125 C 0.421875 -4.019531 0.46875 -4.207031 0.53125 -4.375 C 0.59375 -4.539062 0.671875 -4.675781 0.765625 -4.78125 C 0.859375 -4.882812 0.984375 -4.9375 1.140625 -4.9375 C 1.296875 -4.9375 1.410156 -4.859375 1.484375 -4.703125 C 1.566406 -4.546875 1.628906 -4.363281 1.671875 -4.15625 C 1.710938 -3.945312 1.734375 -3.738281 1.734375 -3.53125 C 1.742188 -3.332031 1.75 -3.1875 1.75 -3.09375 Z M 1.75 -3.09375 "/></g></g><g transform="translate(43.014673, 22.26229)"><g><path d="M 4.125 -0.8125 C 4.125 -0.695312 4.078125 -0.59375 3.984375 -0.5 C 3.890625 -0.414062 3.769531 -0.335938 3.625 -0.265625 C 3.476562 -0.203125 3.3125 -0.144531 3.125 -0.09375 C 2.9375 -0.0507812 2.75 -0.0195312 2.5625 0 C 2.382812 0.03125 2.210938 0.0507812 2.046875 0.0625 C 1.890625 0.0820312 1.765625 0.09375 1.671875 0.09375 C 1.578125 0.09375 1.441406 0.0859375 1.265625 0.078125 C 1.085938 0.078125 0.910156 0.0546875 0.734375 0.015625 C 0.566406 -0.015625 0.421875 -0.0703125 0.296875 -0.15625 C 0.171875 -0.238281 0.109375 -0.359375 0.109375 -0.515625 C 0.109375 -0.628906 0.144531 -0.769531 0.21875 -0.9375 C 0.300781 -1.101562 0.40625 -1.28125 0.53125 -1.46875 C 0.65625 -1.664062 0.796875 -1.863281 0.953125 -2.0625 C 1.109375 -2.269531 1.257812 -2.46875 1.40625 -2.65625 C 1.5625 -2.851562 1.703125 -3.03125 1.828125 -3.1875 C 1.960938 -3.34375 2.066406 -3.472656 2.140625 -3.578125 C 2.066406 -3.554688 1.96875 -3.53125 1.84375 -3.5 C 1.71875 -3.46875 1.585938 -3.4375 1.453125 -3.40625 C 1.328125 -3.382812 1.203125 -3.363281 1.078125 -3.34375 C 0.953125 -3.320312 0.847656 -3.3125 0.765625 -3.3125 C 0.691406 -3.3125 0.609375 -3.320312 0.515625 -3.34375 C 0.429688 -3.375 0.347656 -3.410156 0.265625 -3.453125 C 0.191406 -3.503906 0.128906 -3.5625 0.078125 -3.625 C 0.0234375 -3.6875 0 -3.757812 0 -3.84375 C 0 -3.9375 0.046875 -4.03125 0.140625 -4.125 C 0.234375 -4.21875 0.351562 -4.296875 0.5 -4.359375 C 0.644531 -4.429688 0.8125 -4.492188 1 -4.546875 C 1.1875 -4.609375 1.367188 -4.65625 1.546875 -4.6875 C 1.722656 -4.726562 1.890625 -4.753906 2.046875 -4.765625 C 2.210938 -4.785156 2.34375 -4.796875 2.4375 -4.796875 C 2.550781 -4.796875 2.679688 -4.785156 2.828125 -4.765625 C 2.984375 -4.742188 3.132812 -4.703125 3.28125 -4.640625 C 3.4375 -4.585938 3.5625 -4.507812 3.65625 -4.40625 C 3.757812 -4.3125 3.8125 -4.191406 3.8125 -4.046875 C 3.8125 -3.992188 3.804688 -3.945312 3.796875 -3.90625 C 3.796875 -3.875 3.789062 -3.835938 3.78125 -3.796875 C 3.769531 -3.753906 3.71875 -3.660156 3.625 -3.515625 C 3.53125 -3.378906 3.421875 -3.210938 3.296875 -3.015625 C 3.171875 -2.828125 3.03125 -2.617188 2.875 -2.390625 C 2.71875 -2.171875 2.570312 -1.960938 2.4375 -1.765625 C 2.300781 -1.578125 2.179688 -1.40625 2.078125 -1.25 C 1.972656 -1.101562 1.90625 -1.003906 1.875 -0.953125 C 2.101562 -1.015625 2.335938 -1.066406 2.578125 -1.109375 C 2.828125 -1.160156 3.070312 -1.1875 3.3125 -1.1875 C 3.375 -1.1875 3.453125 -1.179688 3.546875 -1.171875 C 3.640625 -1.160156 3.726562 -1.144531 3.8125 -1.125 C 3.894531 -1.101562 3.96875 -1.066406 4.03125 -1.015625 C 4.09375 -0.960938 4.125 -0.894531 4.125 -0.8125 Z M 4.125 -0.8125 "/></g></g><g transform="translate(47.054939, 22.26229)"><g><path d="M 4.125 -0.8125 C 4.125 -0.695312 4.078125 -0.59375 3.984375 -0.5 C 3.890625 -0.414062 3.769531 -0.335938 3.625 -0.265625 C 3.476562 -0.203125 3.3125 -0.144531 3.125 -0.09375 C 2.9375 -0.0507812 2.75 -0.0195312 2.5625 0 C 2.382812 0.03125 2.210938 0.0507812 2.046875 0.0625 C 1.890625 0.0820312 1.765625 0.09375 1.671875 0.09375 C 1.578125 0.09375 1.441406 0.0859375 1.265625 0.078125 C 1.085938 0.078125 0.910156 0.0546875 0.734375 0.015625 C 0.566406 -0.015625 0.421875 -0.0703125 0.296875 -0.15625 C 0.171875 -0.238281 0.109375 -0.359375 0.109375 -0.515625 C 0.109375 -0.628906 0.144531 -0.769531 0.21875 -0.9375 C 0.300781 -1.101562 0.40625 -1.28125 0.53125 -1.46875 C 0.65625 -1.664062 0.796875 -1.863281 0.953125 -2.0625 C 1.109375 -2.269531 1.257812 -2.46875 1.40625 -2.65625 C 1.5625 -2.851562 1.703125 -3.03125 1.828125 -3.1875 C 1.960938 -3.34375 2.066406 -3.472656 2.140625 -3.578125 C 2.066406 -3.554688 1.96875 -3.53125 1.84375 -3.5 C 1.71875 -3.46875 1.585938 -3.4375 1.453125 -3.40625 C 1.328125 -3.382812 1.203125 -3.363281 1.078125 -3.34375 C 0.953125 -3.320312 0.847656 -3.3125 0.765625 -3.3125 C 0.691406 -3.3125 0.609375 -3.320312 0.515625 -3.34375 C 0.429688 -3.375 0.347656 -3.410156 0.265625 -3.453125 C 0.191406 -3.503906 0.128906 -3.5625 0.078125 -3.625 C 0.0234375 -3.6875 0 -3.757812 0 -3.84375 C 0 -3.9375 0.046875 -4.03125 0.140625 -4.125 C 0.234375 -4.21875 0.351562 -4.296875 0.5 -4.359375 C 0.644531 -4.429688 0.8125 -4.492188 1 -4.546875 C 1.1875 -4.609375 1.367188 -4.65625 1.546875 -4.6875 C 1.722656 -4.726562 1.890625 -4.753906 2.046875 -4.765625 C 2.210938 -4.785156 2.34375 -4.796875 2.4375 -4.796875 C 2.550781 -4.796875 2.679688 -4.785156 2.828125 -4.765625 C 2.984375 -4.742188 3.132812 -4.703125 3.28125 -4.640625 C 3.4375 -4.585938 3.5625 -4.507812 3.65625 -4.40625 C 3.757812 -4.3125 3.8125 -4.191406 3.8125 -4.046875 C 3.8125 -3.992188 3.804688 -3.945312 3.796875 -3.90625 C 3.796875 -3.875 3.789062 -3.835938 3.78125 -3.796875 C 3.769531 -3.753906 3.71875 -3.660156 3.625 -3.515625 C 3.53125 -3.378906 3.421875 -3.210938 3.296875 -3.015625 C 3.171875 -2.828125 3.03125 -2.617188 2.875 -2.390625 C 2.71875 -2.171875 2.570312 -1.960938 2.4375 -1.765625 C 2.300781 -1.578125 2.179688 -1.40625 2.078125 -1.25 C 1.972656 -1.101562 1.90625 -1.003906 1.875 -0.953125 C 2.101562 -1.015625 2.335938 -1.066406 2.578125 -1.109375 C 2.828125 -1.160156 3.070312 -1.1875 3.3125 -1.1875 C 3.375 -1.1875 3.453125 -1.179688 3.546875 -1.171875 C 3.640625 -1.160156 3.726562 -1.144531 3.8125 -1.125 C 3.894531 -1.101562 3.96875 -1.066406 4.03125 -1.015625 C 4.09375 -0.960938 4.125 -0.894531 4.125 -0.8125 Z M 4.125 -0.8125 "/></g></g><g transform="translate(51.095206, 22.26229)"><g><path d="M 3.875 -1.53125 C 3.875 -1.332031 3.8125 -1.140625 3.6875 -0.953125 C 3.5625 -0.773438 3.40625 -0.609375 3.21875 -0.453125 C 3.03125 -0.304688 2.828125 -0.1875 2.609375 -0.09375 C 2.398438 -0.0078125 2.207031 0.03125 2.03125 0.03125 C 1.726562 0.03125 1.457031 -0.046875 1.21875 -0.203125 C 0.976562 -0.359375 0.773438 -0.550781 0.609375 -0.78125 C 0.453125 -1.019531 0.332031 -1.28125 0.25 -1.5625 C 0.164062 -1.84375 0.125 -2.117188 0.125 -2.390625 C 0.125 -2.679688 0.164062 -2.988281 0.25 -3.3125 C 0.332031 -3.644531 0.453125 -3.945312 0.609375 -4.21875 C 0.773438 -4.5 0.984375 -4.726562 1.234375 -4.90625 C 1.484375 -5.09375 1.78125 -5.1875 2.125 -5.1875 C 2.320312 -5.1875 2.507812 -5.148438 2.6875 -5.078125 C 2.863281 -5.015625 3.019531 -4.921875 3.15625 -4.796875 C 3.289062 -4.679688 3.394531 -4.539062 3.46875 -4.375 C 3.550781 -4.207031 3.59375 -4.019531 3.59375 -3.8125 C 3.59375 -3.539062 3.535156 -3.285156 3.421875 -3.046875 C 3.304688 -2.816406 3.15625 -2.613281 2.96875 -2.4375 C 2.78125 -2.269531 2.5625 -2.132812 2.3125 -2.03125 C 2.0625 -1.925781 1.804688 -1.867188 1.546875 -1.859375 C 1.578125 -1.691406 1.644531 -1.566406 1.75 -1.484375 C 1.863281 -1.410156 2 -1.375 2.15625 -1.375 C 2.269531 -1.375 2.378906 -1.398438 2.484375 -1.453125 C 2.597656 -1.515625 2.707031 -1.582031 2.8125 -1.65625 C 2.914062 -1.726562 3.015625 -1.789062 3.109375 -1.84375 C 3.210938 -1.90625 3.316406 -1.9375 3.421875 -1.9375 C 3.535156 -1.9375 3.640625 -1.898438 3.734375 -1.828125 C 3.828125 -1.753906 3.875 -1.65625 3.875 -1.53125 Z M 2.46875 -3.640625 C 2.46875 -3.722656 2.445312 -3.800781 2.40625 -3.875 C 2.375 -3.957031 2.3125 -4 2.21875 -4 C 2.09375 -4 1.988281 -3.960938 1.90625 -3.890625 C 1.820312 -3.828125 1.75 -3.742188 1.6875 -3.640625 C 1.632812 -3.546875 1.59375 -3.441406 1.5625 -3.328125 C 1.53125 -3.210938 1.507812 -3.109375 1.5 -3.015625 C 1.582031 -3.023438 1.675781 -3.046875 1.78125 -3.078125 C 1.894531 -3.109375 2.003906 -3.144531 2.109375 -3.1875 C 2.210938 -3.238281 2.296875 -3.300781 2.359375 -3.375 C 2.429688 -3.445312 2.46875 -3.535156 2.46875 -3.640625 Z M 2.46875 -3.640625 "/></g></g><g transform="translate(55.049326, 22.26229)"><g><path d="M 3.25 -3.21875 C 3.164062 -3.21875 3.09375 -3.226562 3.03125 -3.25 C 2.976562 -3.269531 2.925781 -3.289062 2.875 -3.3125 C 2.820312 -3.332031 2.769531 -3.351562 2.71875 -3.375 C 2.664062 -3.394531 2.609375 -3.398438 2.546875 -3.390625 C 2.429688 -3.390625 2.328125 -3.359375 2.234375 -3.296875 C 2.148438 -3.242188 2.070312 -3.171875 2 -3.078125 C 1.925781 -2.992188 1.863281 -2.898438 1.8125 -2.796875 C 1.757812 -2.691406 1.71875 -2.585938 1.6875 -2.484375 C 1.664062 -2.410156 1.648438 -2.300781 1.640625 -2.15625 C 1.640625 -2.019531 1.640625 -1.875 1.640625 -1.71875 C 1.628906 -1.550781 1.625 -1.390625 1.625 -1.234375 C 1.625 -1.085938 1.617188 -0.972656 1.609375 -0.890625 C 1.609375 -0.796875 1.59375 -0.6875 1.5625 -0.5625 C 1.539062 -0.4375 1.503906 -0.316406 1.453125 -0.203125 C 1.410156 -0.0976562 1.347656 -0.0078125 1.265625 0.0625 C 1.179688 0.132812 1.078125 0.171875 0.953125 0.171875 C 0.859375 0.171875 0.773438 0.140625 0.703125 0.078125 C 0.628906 0.0234375 0.566406 -0.046875 0.515625 -0.140625 C 0.472656 -0.234375 0.4375 -0.34375 0.40625 -0.46875 C 0.375 -0.59375 0.347656 -0.722656 0.328125 -0.859375 C 0.304688 -0.992188 0.289062 -1.128906 0.28125 -1.265625 C 0.28125 -1.410156 0.273438 -1.546875 0.265625 -1.671875 C 0.265625 -1.796875 0.265625 -1.90625 0.265625 -2 C 0.273438 -2.101562 0.28125 -2.191406 0.28125 -2.265625 C 0.269531 -2.460938 0.253906 -2.660156 0.234375 -2.859375 C 0.222656 -3.066406 0.21875 -3.269531 0.21875 -3.46875 C 0.21875 -3.59375 0.222656 -3.734375 0.234375 -3.890625 C 0.253906 -4.046875 0.285156 -4.191406 0.328125 -4.328125 C 0.378906 -4.460938 0.457031 -4.578125 0.5625 -4.671875 C 0.664062 -4.765625 0.804688 -4.8125 0.984375 -4.8125 C 1.078125 -4.8125 1.160156 -4.78125 1.234375 -4.71875 C 1.304688 -4.65625 1.363281 -4.578125 1.40625 -4.484375 C 1.445312 -4.390625 1.476562 -4.289062 1.5 -4.1875 C 1.519531 -4.082031 1.535156 -3.988281 1.546875 -3.90625 C 1.679688 -4.125 1.832031 -4.304688 2 -4.453125 C 2.175781 -4.597656 2.40625 -4.675781 2.6875 -4.6875 C 2.820312 -4.6875 2.957031 -4.671875 3.09375 -4.640625 C 3.226562 -4.609375 3.347656 -4.554688 3.453125 -4.484375 C 3.566406 -4.410156 3.660156 -4.316406 3.734375 -4.203125 C 3.804688 -4.085938 3.847656 -3.953125 3.859375 -3.796875 C 3.867188 -3.617188 3.8125 -3.476562 3.6875 -3.375 C 3.570312 -3.28125 3.425781 -3.226562 3.25 -3.21875 Z M 3.25 -3.21875 "/></g></g><g transform="translate(58.77085, 22.26229)"><g><path d="M 1.6875 -6.015625 C 1.6875 -5.929688 1.660156 -5.859375 1.609375 -5.796875 C 1.566406 -5.734375 1.507812 -5.675781 1.4375 -5.625 C 1.375 -5.582031 1.300781 -5.546875 1.21875 -5.515625 C 1.144531 -5.492188 1.070312 -5.484375 1 -5.484375 C 0.882812 -5.484375 0.78125 -5.507812 0.6875 -5.5625 C 0.601562 -5.625 0.5625 -5.71875 0.5625 -5.84375 C 0.5625 -5.925781 0.582031 -6 0.625 -6.0625 C 0.675781 -6.132812 0.734375 -6.191406 0.796875 -6.234375 C 0.859375 -6.273438 0.925781 -6.304688 1 -6.328125 C 1.082031 -6.347656 1.160156 -6.359375 1.234375 -6.359375 C 1.347656 -6.359375 1.453125 -6.332031 1.546875 -6.28125 C 1.640625 -6.226562 1.6875 -6.140625 1.6875 -6.015625 Z M 1.75 -3.09375 C 1.75 -3.007812 1.75 -2.921875 1.75 -2.828125 C 1.75 -2.742188 1.742188 -2.660156 1.734375 -2.578125 C 1.734375 -2.484375 1.734375 -2.351562 1.734375 -2.1875 C 1.734375 -2.019531 1.726562 -1.84375 1.71875 -1.65625 C 1.707031 -1.46875 1.6875 -1.273438 1.65625 -1.078125 C 1.632812 -0.878906 1.59375 -0.695312 1.53125 -0.53125 C 1.476562 -0.375 1.398438 -0.242188 1.296875 -0.140625 C 1.203125 -0.046875 1.085938 0.00390625 0.953125 0.015625 C 0.835938 0.015625 0.742188 -0.03125 0.671875 -0.125 C 0.597656 -0.21875 0.535156 -0.335938 0.484375 -0.484375 C 0.429688 -0.628906 0.394531 -0.789062 0.375 -0.96875 C 0.351562 -1.144531 0.335938 -1.316406 0.328125 -1.484375 C 0.316406 -1.660156 0.3125 -1.820312 0.3125 -1.96875 C 0.3125 -2.113281 0.3125 -2.21875 0.3125 -2.28125 C 0.3125 -2.375 0.3125 -2.503906 0.3125 -2.671875 C 0.3125 -2.847656 0.316406 -3.03125 0.328125 -3.21875 C 0.335938 -3.414062 0.359375 -3.613281 0.390625 -3.8125 C 0.421875 -4.019531 0.46875 -4.207031 0.53125 -4.375 C 0.59375 -4.539062 0.671875 -4.675781 0.765625 -4.78125 C 0.859375 -4.882812 0.984375 -4.9375 1.140625 -4.9375 C 1.296875 -4.9375 1.410156 -4.859375 1.484375 -4.703125 C 1.566406 -4.546875 1.628906 -4.363281 1.671875 -4.15625 C 1.710938 -3.945312 1.734375 -3.738281 1.734375 -3.53125 C 1.742188 -3.332031 1.75 -3.1875 1.75 -3.09375 Z M 1.75 -3.09375 "/></g></g><g transform="translate(60.872823, 22.26229)"><g><path d="M 3.921875 -1.21875 C 3.921875 -1.113281 3.914062 -0.976562 3.90625 -0.8125 C 3.894531 -0.644531 3.867188 -0.484375 3.828125 -0.328125 C 3.796875 -0.171875 3.734375 -0.0351562 3.640625 0.078125 C 3.554688 0.203125 3.4375 0.265625 3.28125 0.265625 C 3.070312 0.265625 2.910156 0.191406 2.796875 0.046875 C 2.679688 -0.0859375 2.625 -0.257812 2.625 -0.46875 C 2.445312 -0.300781 2.238281 -0.171875 2 -0.078125 C 1.769531 0.00390625 1.535156 0.046875 1.296875 0.046875 C 1.128906 0.046875 0.96875 0.0078125 0.8125 -0.0625 C 0.664062 -0.144531 0.535156 -0.25 0.421875 -0.375 C 0.304688 -0.5 0.210938 -0.640625 0.140625 -0.796875 C 0.078125 -0.960938 0.046875 -1.125 0.046875 -1.28125 C 0.046875 -1.550781 0.128906 -1.789062 0.296875 -2 C 0.460938 -2.207031 0.671875 -2.382812 0.921875 -2.53125 C 1.171875 -2.675781 1.429688 -2.789062 1.703125 -2.875 C 1.984375 -2.96875 2.234375 -3.023438 2.453125 -3.046875 C 2.453125 -3.078125 2.453125 -3.101562 2.453125 -3.125 C 2.460938 -3.144531 2.46875 -3.171875 2.46875 -3.203125 C 2.46875 -3.378906 2.414062 -3.519531 2.3125 -3.625 C 2.21875 -3.738281 2.082031 -3.796875 1.90625 -3.796875 C 1.757812 -3.796875 1.632812 -3.769531 1.53125 -3.71875 C 1.425781 -3.675781 1.328125 -3.625 1.234375 -3.5625 C 1.148438 -3.5 1.0625 -3.441406 0.96875 -3.390625 C 0.875 -3.347656 0.769531 -3.328125 0.65625 -3.328125 C 0.53125 -3.328125 0.421875 -3.363281 0.328125 -3.4375 C 0.242188 -3.519531 0.203125 -3.628906 0.203125 -3.765625 C 0.203125 -3.953125 0.253906 -4.125 0.359375 -4.28125 C 0.472656 -4.4375 0.613281 -4.566406 0.78125 -4.671875 C 0.957031 -4.773438 1.144531 -4.859375 1.34375 -4.921875 C 1.539062 -4.984375 1.722656 -5.015625 1.890625 -5.015625 C 2.046875 -5.015625 2.203125 -4.992188 2.359375 -4.953125 C 2.515625 -4.910156 2.660156 -4.851562 2.796875 -4.78125 C 2.929688 -4.707031 3.054688 -4.613281 3.171875 -4.5 C 3.285156 -4.382812 3.375 -4.253906 3.4375 -4.109375 C 3.539062 -3.890625 3.625 -3.660156 3.6875 -3.421875 C 3.75 -3.179688 3.796875 -2.9375 3.828125 -2.6875 C 3.867188 -2.4375 3.894531 -2.1875 3.90625 -1.9375 C 3.914062 -1.6875 3.921875 -1.445312 3.921875 -1.21875 Z M 2.546875 -1.484375 L 2.515625 -2.078125 C 2.503906 -2.078125 2.492188 -2.078125 2.484375 -2.078125 C 2.472656 -2.085938 2.460938 -2.09375 2.453125 -2.09375 C 2.378906 -2.09375 2.285156 -2.070312 2.171875 -2.03125 C 2.054688 -1.988281 1.945312 -1.9375 1.84375 -1.875 C 1.738281 -1.8125 1.648438 -1.738281 1.578125 -1.65625 C 1.503906 -1.570312 1.46875 -1.488281 1.46875 -1.40625 C 1.46875 -1.320312 1.492188 -1.265625 1.546875 -1.234375 C 1.609375 -1.210938 1.679688 -1.203125 1.765625 -1.203125 C 1.890625 -1.203125 2.019531 -1.234375 2.15625 -1.296875 C 2.300781 -1.359375 2.429688 -1.421875 2.546875 -1.484375 Z M 2.546875 -1.484375 "/></g></g></g><g fill="#000000" fill-opacity="1"><g transform="translate(65.049966, 22.26229)"><g/></g></g><g fill="#000000" fill-opacity="1"><g transform="translate(33.927728, 27.742913)"><g/></g></g></svg>